Rammetto.ufo
<glyph name="exclam" format="1">
  <advance width="770"/>
  <unicode hex="0021"/>
  <outline>
    <contour>
      <point x="678" y="1599" type="line"/>
      <point x="100" y="1599" type="line"/>
      <point x="203" y="639" type="line"/>
      <point x="575" y="639" type="line"/>
    </contour>
    <contour>
      <point x="418" y="479" type="curve" smooth="yes"/>
      <point x="221" y="479"/>
      <point x="102" y="330"/>
      <point x="102" y="199" type="curve" smooth="yes"/>
      <point x="102" y="76"/>
      <point x="182" y="-37"/>
      <point x="362" y="-37" type="curve" smooth="yes"/>
      <point x="573" y="-37"/>
      <point x="678" y="106"/>
      <point x="678" y="242" type="curve" smooth="yes"/>
      <point x="678" y="362"/>
      <point x="592" y="479"/>
    </contour>
  </outline>
</glyph>
<glyph name="quotedbl" format="1">
  <advance width="1317"/>
  <unicode hex="0022"/>
  <outline>
    <contour>
      <point x="1214" y="1597" type="line"/>
      <point x="698" y="1597" type="line"/>
      <point x="801" y="844" type="line"/>
      <point x="1133" y="844" type="line"/>
    </contour>
    <contour>
      <point x="614" y="1597" type="line"/>
      <point x="98" y="1597" type="line"/>
      <point x="201" y="844" type="line"/>
      <point x="532" y="844" type="line"/>
    </contour>
  </outline>
</glyph>
<glyph name="numbersign" format="1">
  <advance width="2056"/>
  <unicode hex="0023"/>
  <outline>
    <contour>
      <point x="170" y="942" type="line"/>
      <point x="330" y="942" type="line"/>
      <point x="293" y="680" type="line"/>
      <point x="117" y="680" type="line"/>
      <point x="76" y="381" type="line"/>
      <point x="252" y="381" type="line"/>
      <point x="199" y="0" type="line"/>
      <point x="688" y="0" type="line"/>
      <point x="776" y="381" type="line"/>
      <point x="1018" y="381" type="line"/>
      <point x="936" y="0" type="line"/>
      <point x="1364" y="0" type="line"/>
      <point x="1505" y="381" type="line"/>
      <point x="1759" y="381" type="line"/>
      <point x="1841" y="680" type="line"/>
      <point x="1616" y="680" type="line"/>
      <point x="1714" y="942" type="line"/>
      <point x="1915" y="942" type="line"/>
      <point x="1997" y="1241" type="line"/>
      <point x="1825" y="1241" type="line"/>
      <point x="1958" y="1597" type="line"/>
      <point x="1284" y="1597" type="line"/>
      <point x="1206" y="1241" type="line"/>
      <point x="975" y="1241" type="line"/>
      <point x="1057" y="1597" type="line"/>
      <point x="424" y="1597" type="line"/>
      <point x="373" y="1241" type="line"/>
      <point x="211" y="1241" type="line"/>
    </contour>
    <contour>
      <point x="905" y="942" type="line"/>
      <point x="1141" y="942" type="line"/>
      <point x="1083" y="680" type="line"/>
      <point x="844" y="680" type="line"/>
    </contour>
  </outline>
</glyph>
<glyph name="dollar" format="1">
  <advance width="1382"/>
  <unicode hex="0024"/>
  <outline>
    <contour>
      <point x="776" y="1802" type="line"/>
      <point x="623" y="1802" type="line"/>
      <point x="614" y="1632" type="line"/>
      <point x="322" y="1595"/>
      <point x="68" y="1448"/>
      <point x="68" y="1126" type="curve" smooth="yes"/>
      <point x="68" y="623"/>
      <point x="553" y="662"/>
      <point x="553" y="512" type="curve" smooth="yes"/>
      <point x="553" y="465"/>
      <point x="512" y="451"/>
      <point x="453" y="451" type="curve" smooth="yes"/>
      <point x="317" y="451"/>
      <point x="88" y="541"/>
      <point x="72" y="545" type="curve"/>
      <point x="72" y="72" type="line"/>
      <point x="72" y="72"/>
      <point x="166" y="-14"/>
      <point x="528" y="-33" type="curve"/>
      <point x="520" y="-205" type="line"/>
      <point x="674" y="-205" type="line"/>
      <point x="682" y="-37" type="line"/>
      <point x="1073" y="-33"/>
      <point x="1327" y="143"/>
      <point x="1327" y="485" type="curve" smooth="yes"/>
      <point x="1327" y="856"/>
      <point x="1120" y="937"/>
      <point x="848" y="1040" type="curve" smooth="yes"/>
      <point x="766" y="1071"/>
      <point x="745" y="1094"/>
      <point x="745" y="1118" type="curve" smooth="yes"/>
      <point x="745" y="1147"/>
      <point x="776" y="1171"/>
      <point x="838" y="1171" type="curve" smooth="yes"/>
      <point x="971" y="1171"/>
      <point x="1229" y="1114"/>
      <point x="1229" y="1114" type="curve"/>
      <point x="1229" y="1585" type="line"/>
      <point x="1192" y="1595"/>
      <point x="987" y="1638"/>
      <point x="768" y="1640" type="curve"/>
    </contour>
  </outline>
</glyph>
<glyph name="percent" format="1">
  <advance width="3320"/>
  <unicode hex="0025"/>
  <outline>
    <contour>
      <point x="2640" y="313" type="curve" smooth="yes"/>
      <point x="2517" y="313"/>
      <point x="2454" y="438"/>
      <point x="2454" y="563" type="curve" smooth="yes"/>
      <point x="2454" y="686"/>
      <point x="2515" y="809"/>
      <point x="2640" y="809" type="curve" smooth="yes"/>
      <point x="2763" y="809"/>
      <point x="2824" y="682"/>
      <point x="2824" y="559" type="curve" smooth="yes"/>
      <point x="2824" y="436"/>
      <point x="2763" y="313"/>
    </contour>
    <contour>
      <point x="2640" y="-37" type="curve" smooth="yes"/>
      <point x="3049" y="-37"/>
      <point x="3256" y="262"/>
      <point x="3256" y="561" type="curve" smooth="yes"/>
      <point x="3256" y="860"/>
      <point x="3049" y="1159"/>
      <point x="2640" y="1159" type="curve" smooth="yes"/>
      <point x="2228" y="1159"/>
      <point x="2023" y="860"/>
      <point x="2023" y="561" type="curve" smooth="yes"/>
      <point x="2023" y="262"/>
      <point x="2228" y="-37"/>
    </contour>
    <contour>
      <point x="676" y="795" type="curve" smooth="yes"/>
      <point x="553" y="795"/>
      <point x="489" y="920"/>
      <point x="489" y="1044" type="curve" smooth="yes"/>
      <point x="489" y="1167"/>
      <point x="551" y="1290"/>
      <point x="676" y="1290" type="curve" smooth="yes"/>
      <point x="799" y="1290"/>
      <point x="860" y="1163"/>
      <point x="860" y="1040" type="curve" smooth="yes"/>
      <point x="860" y="918"/>
      <point x="799" y="795"/>
    </contour>
    <contour>
      <point x="676" y="444" type="curve" smooth="yes"/>
      <point x="1085" y="444"/>
      <point x="1292" y="743"/>
      <point x="1292" y="1042" type="curve" smooth="yes"/>
      <point x="1292" y="1341"/>
      <point x="1085" y="1640"/>
      <point x="676" y="1640" type="curve" smooth="yes"/>
      <point x="264" y="1640"/>
      <point x="59" y="1341"/>
      <point x="59" y="1042" type="curve" smooth="yes"/>
      <point x="59" y="743"/>
      <point x="264" y="444"/>
    </contour>
    <contour>
      <point x="2310" y="1597" type="line"/>
      <point x="1718" y="1597" type="line"/>
      <point x="1165" y="0" type="line"/>
      <point x="1430" y="0" type="line"/>
    </contour>
  </outline>
</glyph>
<glyph name="ampersand" format="1">
  <advance width="2241"/>
  <unicode hex="0026"/>
  <outline>
    <contour>
      <point x="1202" y="1266" type="curve" smooth="yes"/>
      <point x="1202" y="1192"/>
      <point x="1067" y="1143"/>
      <point x="1040" y="1126" type="curve"/>
      <point x="985" y="1190" type="line" smooth="yes"/>
      <point x="962" y="1216"/>
      <point x="952" y="1242"/>
      <point x="952" y="1260" type="curve" smooth="yes"/>
      <point x="952" y="1317"/>
      <point x="1018" y="1356"/>
      <point x="1075" y="1356" type="curve" smooth="yes"/>
      <point x="1151" y="1356"/>
      <point x="1202" y="1327"/>
    </contour>
    <contour>
      <point x="66" y="502" type="curve" smooth="yes"/>
      <point x="66" y="129"/>
      <point x="426" y="-37"/>
      <point x="760" y="-37" type="curve" smooth="yes"/>
      <point x="958" y="-37"/>
      <point x="1102" y="-4"/>
      <point x="1257" y="102" type="curve"/>
      <point x="1350" y="0" type="line"/>
      <point x="2187" y="0" type="line"/>
      <point x="2187" y="139" type="line"/>
      <point x="1978" y="180"/>
      <point x="1872" y="254"/>
      <point x="1729" y="389" type="curve"/>
      <point x="1907" y="485"/>
      <point x="2189" y="825"/>
      <point x="2189" y="1010" type="curve"/>
      <point x="1718" y="1137" type="line"/>
      <point x="1645" y="977"/>
      <point x="1499" y="834"/>
      <point x="1370" y="739" type="curve"/>
      <point x="1223" y="909" type="line"/>
      <point x="1257" y="942"/>
      <point x="1567" y="1075"/>
      <point x="1567" y="1294" type="curve" smooth="yes"/>
      <point x="1567" y="1552"/>
      <point x="1251" y="1640"/>
      <point x="1040" y="1640" type="curve" smooth="yes"/>
      <point x="774" y="1640"/>
      <point x="487" y="1524"/>
      <point x="487" y="1276" type="curve" smooth="yes"/>
      <point x="487" y="1212"/>
      <point x="508" y="1141"/>
      <point x="551" y="1059" type="curve"/>
      <point x="483" y="1026"/>
      <point x="66" y="930"/>
    </contour>
    <contour>
      <point x="772" y="733" type="curve"/>
      <point x="977" y="481" type="line"/>
      <point x="930" y="449"/>
      <point x="829" y="432"/>
      <point x="797" y="432" type="curve" smooth="yes"/>
      <point x="709" y="432"/>
      <point x="659" y="498"/>
      <point x="659" y="569" type="curve" smooth="yes"/>
      <point x="659" y="631"/>
      <point x="694" y="696"/>
    </contour>
  </outline>
</glyph>
<glyph name="quotesingle" format="1">
  <advance width="672"/>
  <unicode hex="0027"/>
  <outline>
    <contour>
      <point x="590" y="1597" type="line"/>
      <point x="74" y="1597" type="line"/>
      <point x="176" y="844" type="line"/>
      <point x="508" y="844" type="line"/>
    </contour>
  </outline>
</glyph>
<glyph name="parenleft" format="1">
  <advance width="1022"/>
  <unicode hex="0028"/>
  <outline>
    <contour>
      <point x="897" y="1673" type="line"/>
      <point x="391" y="1667"/>
      <point x="41" y="1305"/>
      <point x="41" y="766" type="curve" smooth="yes"/>
      <point x="41" y="221"/>
      <point x="453" y="-66"/>
      <point x="901" y="-66" type="curve"/>
      <point x="901" y="303" type="line"/>
      <point x="719" y="307"/>
      <point x="600" y="510"/>
      <point x="600" y="737" type="curve" smooth="yes"/>
      <point x="600" y="936"/>
      <point x="688" y="1174"/>
      <point x="897" y="1333" type="curve"/>
    </contour>
  </outline>
</glyph>
<glyph name="parenright" format="1">
  <advance width="1024"/>
  <unicode hex="0029"/>
  <outline>
    <contour>
      <point x="127" y="1333" type="line"/>
      <point x="336" y="1174"/>
      <point x="424" y="936"/>
      <point x="424" y="737" type="curve" smooth="yes"/>
      <point x="424" y="510"/>
      <point x="305" y="307"/>
      <point x="123" y="303" type="curve"/>
      <point x="123" y="-66" type="line"/>
      <point x="571" y="-66"/>
      <point x="983" y="221"/>
      <point x="983" y="766" type="curve" smooth="yes"/>
      <point x="983" y="1305"/>
      <point x="633" y="1667"/>
      <point x="127" y="1673" type="curve"/>
    </contour>
  </outline>
</glyph>
<glyph name="asterisk" format="1">
  <advance width="1522"/>
  <unicode hex="002A"/>
  <outline>
    <contour>
      <point x="850" y="1176" type="curve"/>
      <point x="877" y="1296"/>
      <point x="938" y="1446"/>
      <point x="938" y="1575" type="curve" smooth="yes"/>
      <point x="938" y="1679"/>
      <point x="874" y="1755"/>
      <point x="760" y="1755" type="curve" smooth="yes"/>
      <point x="645" y="1755"/>
      <point x="584" y="1679"/>
      <point x="584" y="1575" type="curve" smooth="yes"/>
      <point x="584" y="1448"/>
      <point x="641" y="1300"/>
      <point x="670" y="1176" type="curve"/>
      <point x="672" y="1161"/>
      <point x="674" y="1149"/>
      <point x="678" y="1137" type="curve"/>
      <point x="649" y="1163" type="line" smooth="yes"/>
      <point x="526" y="1273"/>
      <point x="395" y="1466"/>
      <point x="246" y="1466" type="curve" smooth="yes"/>
      <point x="172" y="1466"/>
      <point x="74" y="1393"/>
      <point x="74" y="1280" type="curve" smooth="yes"/>
      <point x="74" y="1077"/>
      <point x="457" y="1047"/>
      <point x="616" y="993" type="curve"/>
      <point x="457" y="940"/>
      <point x="74" y="911"/>
      <point x="74" y="707" type="curve" smooth="yes"/>
      <point x="74" y="594"/>
      <point x="172" y="522"/>
      <point x="246" y="522" type="curve" smooth="yes"/>
      <point x="395" y="522"/>
      <point x="524" y="719"/>
      <point x="649" y="825" type="curve"/>
      <point x="684" y="858" type="line"/>
      <point x="657" y="748"/>
      <point x="584" y="555"/>
      <point x="584" y="416" type="curve" smooth="yes"/>
      <point x="584" y="311"/>
      <point x="645" y="233"/>
      <point x="760" y="233" type="curve" smooth="yes"/>
      <point x="874" y="233"/>
      <point x="938" y="311"/>
      <point x="938" y="416" type="curve" smooth="yes"/>
      <point x="938" y="541"/>
      <point x="874" y="686"/>
      <point x="850" y="813" type="curve"/>
      <point x="840" y="854" type="line"/>
      <point x="872" y="825" type="line" smooth="yes"/>
      <point x="993" y="719"/>
      <point x="1135" y="522"/>
      <point x="1276" y="522" type="curve" smooth="yes"/>
      <point x="1352" y="522"/>
      <point x="1448" y="602"/>
      <point x="1448" y="713" type="curve" smooth="yes"/>
      <point x="1448" y="905"/>
      <point x="1069" y="954"/>
      <point x="913" y="993" type="curve"/>
      <point x="1081" y="1057"/>
      <point x="1448" y="1071"/>
      <point x="1448" y="1276" type="curve" smooth="yes"/>
      <point x="1448" y="1386"/>
      <point x="1352" y="1464"/>
      <point x="1276" y="1464" type="curve" smooth="yes"/>
      <point x="1140" y="1464"/>
      <point x="987" y="1274"/>
      <point x="872" y="1163" type="curve" smooth="yes"/>
      <point x="836" y="1128" type="line"/>
      <point x="840" y="1145"/>
      <point x="844" y="1161"/>
    </contour>
  </outline>
</glyph>
<glyph name="plus" format="1">
  <advance width="1087"/>
  <unicode hex="002B"/>
  <outline>
    <contour>
      <point x="33" y="963" type="line"/>
      <point x="33" y="594" type="line"/>
      <point x="360" y="594" type="line"/>
      <point x="360" y="268" type="line"/>
      <point x="729" y="268" type="line"/>
      <point x="729" y="594" type="line"/>
      <point x="1055" y="594" type="line"/>
      <point x="1055" y="963" type="line"/>
      <point x="729" y="963" type="line"/>
      <point x="729" y="1290" type="line"/>
      <point x="360" y="1290" type="line"/>
      <point x="360" y="963" type="line"/>
    </contour>
  </outline>
</glyph>
<glyph name="comma" format="1">
  <advance width="809"/>
  <unicode hex="002C"/>
  <outline>
    <contour>
      <point x="123" y="-465" type="line"/>
      <point x="547" y="-465"/>
      <point x="731" y="-285"/>
      <point x="731" y="18" type="curve" smooth="yes"/>
      <point x="731" y="422" type="line"/>
      <point x="123" y="422" type="line"/>
      <point x="123" y="0" type="line"/>
      <point x="303" y="0" type="line"/>
      <point x="303" y="0"/>
      <point x="303" y="-207"/>
      <point x="123" y="-207" type="curve"/>
    </contour>
  </outline>
</glyph>
<glyph name="hyphen" format="1">
  <advance width="1008"/>
  <unicode hex="002D"/>
  <outline>
    <contour>
      <point x="123" y="479" type="line"/>
      <point x="887" y="479" type="line"/>
      <point x="887" y="911" type="line"/>
      <point x="123" y="911" type="line"/>
    </contour>
  </outline>
</glyph>
<glyph name="period" format="1">
  <advance width="760"/>
  <unicode hex="002E"/>
  <outline>
    <contour>
      <point x="410" y="551" type="curve" smooth="yes"/>
      <point x="201" y="551"/>
      <point x="76" y="383"/>
      <point x="76" y="233" type="curve" smooth="yes"/>
      <point x="76" y="92"/>
      <point x="160" y="-37"/>
      <point x="350" y="-37" type="curve" smooth="yes"/>
      <point x="573" y="-37"/>
      <point x="684" y="125"/>
      <point x="684" y="279" type="curve" smooth="yes"/>
      <point x="684" y="418"/>
      <point x="592" y="551"/>
    </contour>
  </outline>
</glyph>
<glyph name="slash" format="1">
  <advance width="1042"/>
  <unicode hex="002F"/>
  <outline>
    <contour>
      <point x="1014" y="1597" type="line"/>
      <point x="340" y="1597" type="line"/>
      <point x="53" y="0" type="line"/>
      <point x="584" y="0" type="line"/>
    </contour>
  </outline>
</glyph>
<glyph name="zero" format="1">
  <advance width="1792"/>
  <unicode hex="0030"/>
  <outline>
    <contour>
      <point x="897" y="-37" type="curve" smooth="yes"/>
      <point x="1382" y="-37"/>
      <point x="1716" y="322"/>
      <point x="1716" y="807" type="curve" smooth="yes"/>
      <point x="1716" y="1305"/>
      <point x="1397" y="1642"/>
      <point x="897" y="1642" type="curve" smooth="yes"/>
      <point x="397" y="1642"/>
      <point x="78" y="1305"/>
      <point x="78" y="807" type="curve" smooth="yes"/>
      <point x="78" y="322"/>
      <point x="412" y="-37"/>
    </contour>
    <contour>
      <point x="897" y="1157" type="curve" smooth="yes"/>
      <point x="1071" y="1157"/>
      <point x="1075" y="915"/>
      <point x="1075" y="776" type="curve" smooth="yes"/>
      <point x="1075" y="641"/>
      <point x="1051" y="455"/>
      <point x="897" y="455" type="curve" smooth="yes"/>
      <point x="733" y="455"/>
      <point x="719" y="662"/>
      <point x="719" y="776" type="curve" smooth="yes"/>
      <point x="719" y="915"/>
      <point x="723" y="1157"/>
    </contour>
  </outline>
</glyph>
<glyph name="one" format="1">
  <advance width="1155"/>
  <unicode hex="0031"/>
  <outline>
    <contour>
      <point x="375" y="0" type="line"/>
      <point x="1034" y="0" type="line"/>
      <point x="1034" y="1597" type="line"/>
      <point x="850" y="1597" type="line"/>
      <point x="20" y="1217" type="line"/>
      <point x="20" y="731" type="line"/>
      <point x="375" y="860" type="line"/>
    </contour>
  </outline>
</glyph>
<glyph name="two" format="1">
  <advance width="1726"/>
  <unicode hex="0032"/>
  <outline>
    <contour>
      <point x="190" y="0" type="line"/>
      <point x="1626" y="0" type="line"/>
      <point x="1626" y="479" type="line"/>
      <point x="1118" y="479" type="line"/>
      <point x="1327" y="641"/>
      <point x="1616" y="817"/>
      <point x="1616" y="1118" type="curve" smooth="yes"/>
      <point x="1616" y="1470"/>
      <point x="1294" y="1640"/>
      <point x="936" y="1640" type="curve" smooth="yes"/>
      <point x="602" y="1640"/>
      <point x="236" y="1493"/>
      <point x="68" y="1214" type="curve"/>
      <point x="303" y="877" type="line"/>
      <point x="467" y="1051"/>
      <point x="651" y="1149"/>
      <point x="776" y="1149" type="curve" smooth="yes"/>
      <point x="868" y="1149"/>
      <point x="922" y="1092"/>
      <point x="922" y="1014" type="curve" smooth="yes"/>
      <point x="922" y="947"/>
      <point x="882" y="869"/>
      <point x="799" y="799" type="curve" smooth="yes"/>
      <point x="190" y="289" type="line"/>
    </contour>
  </outline>
</glyph>
<glyph name="three" format="1">
  <advance width="1853"/>
  <unicode hex="0033"/>
  <outline>
    <contour>
      <point x="1761" y="524" type="curve" smooth="yes"/>
      <point x="1761" y="858"/>
      <point x="1518" y="989"/>
      <point x="1212" y="1026" type="curve"/>
      <point x="1726" y="1417" type="line"/>
      <point x="1726" y="1597" type="line"/>
      <point x="184" y="1597" type="line"/>
      <point x="184" y="1161" type="line"/>
      <point x="788" y="1161" type="line"/>
      <point x="704" y="1105"/>
      <point x="516" y="972"/>
      <point x="516" y="963" type="curve"/>
      <point x="637" y="752" type="line"/>
      <point x="653" y="754"/>
      <point x="684" y="756"/>
      <point x="722" y="756" type="curve" smooth="yes"/>
      <point x="854" y="756"/>
      <point x="1077" y="729"/>
      <point x="1077" y="567" type="curve" smooth="yes"/>
      <point x="1077" y="489"/>
      <point x="1012" y="430"/>
      <point x="877" y="430" type="curve" smooth="yes"/>
      <point x="674" y="430"/>
      <point x="469" y="500"/>
      <point x="317" y="600" type="curve"/>
      <point x="80" y="213" type="line"/>
      <point x="344" y="6"/>
      <point x="702" y="-37"/>
      <point x="936" y="-37" type="curve" smooth="yes"/>
      <point x="1311" y="-37"/>
      <point x="1761" y="72"/>
    </contour>
  </outline>
</glyph>
<glyph name="four" format="1">
  <advance width="1872"/>
  <unicode hex="0034"/>
  <outline>
    <contour>
      <point x="47" y="215" type="line"/>
      <point x="961" y="215" type="line"/>
      <point x="961" y="0" type="line"/>
      <point x="1636" y="0" type="line"/>
      <point x="1636" y="215" type="line"/>
      <point x="1778" y="215" type="line"/>
      <point x="1778" y="702" type="line"/>
      <point x="1636" y="702" type="line"/>
      <point x="1636" y="1599" type="line"/>
      <point x="676" y="1599" type="line"/>
      <point x="47" y="686" type="line"/>
    </contour>
    <contour>
      <point x="961" y="1139" type="line"/>
      <point x="961" y="686" type="line"/>
      <point x="670" y="686" type="line"/>
    </contour>
  </outline>
</glyph>
<glyph name="five" format="1">
  <advance width="1800"/>
  <unicode hex="0035"/>
  <outline>
    <contour>
      <point x="68" y="172" type="line"/>
      <point x="319" y="-2"/>
      <point x="662" y="-37"/>
      <point x="883" y="-37" type="curve" smooth="yes"/>
      <point x="1257" y="-37"/>
      <point x="1708" y="80"/>
      <point x="1708" y="532" type="curve" smooth="yes"/>
      <point x="1708" y="922"/>
      <point x="1309" y="1047"/>
      <point x="967" y="1047" type="curve" smooth="yes"/>
      <point x="901" y="1047"/>
      <point x="840" y="1042"/>
      <point x="782" y="1034" type="curve"/>
      <point x="811" y="1196" type="line"/>
      <point x="1597" y="1196" type="line"/>
      <point x="1681" y="1599" type="line"/>
      <point x="356" y="1599" type="line"/>
      <point x="188" y="797" type="line"/>
      <point x="479" y="676" type="line"/>
      <point x="494" y="679" type="line" smooth="yes"/>
      <point x="575" y="695"/>
      <point x="672" y="713"/>
      <point x="776" y="713" type="curve" smooth="yes"/>
      <point x="854" y="713"/>
      <point x="1024" y="711"/>
      <point x="1024" y="567" type="curve" smooth="yes"/>
      <point x="1024" y="489"/>
      <point x="958" y="430"/>
      <point x="823" y="430" type="curve" smooth="yes"/>
      <point x="637" y="430"/>
      <point x="444" y="483"/>
      <point x="305" y="559" type="curve"/>
    </contour>
  </outline>
</glyph>
<glyph name="six" format="1">
  <advance width="1786"/>
  <unicode hex="0036"/>
  <outline>
    <contour>
      <point x="965" y="1642" type="curve" smooth="yes"/>
      <point x="457" y="1642"/>
      <point x="74" y="1315"/>
      <point x="74" y="727" type="curve" smooth="yes"/>
      <point x="74" y="238"/>
      <point x="504" y="-37"/>
      <point x="958" y="-37" type="curve" smooth="yes"/>
      <point x="1290" y="-37"/>
      <point x="1710" y="72"/>
      <point x="1710" y="506" type="curve"/>
      <point x="1710" y="889"/>
      <point x="1339" y="981"/>
      <point x="985" y="981" type="curve" smooth="yes"/>
      <point x="897" y="981"/>
      <point x="805" y="967"/>
      <point x="735" y="948" type="curve"/>
      <point x="733" y="965"/>
      <point x="733" y="979"/>
      <point x="733" y="991" type="curve" smooth="yes"/>
      <point x="733" y="1141"/>
      <point x="838" y="1208"/>
      <point x="952" y="1208" type="curve" smooth="yes"/>
      <point x="1026" y="1208"/>
      <point x="1104" y="1165"/>
      <point x="1145" y="1085" type="curve"/>
      <point x="1145" y="1085"/>
      <point x="1554" y="1198"/>
      <point x="1647" y="1223" type="curve"/>
      <point x="1597" y="1497"/>
      <point x="1237" y="1642"/>
    </contour>
    <contour>
      <point x="1032" y="313" type="curve" smooth="yes"/>
      <point x="891" y="313"/>
      <point x="766" y="453"/>
      <point x="766" y="651" type="curve"/>
      <point x="1036" y="651" type="line"/>
      <point x="1112" y="553"/>
      <point x="1139" y="455"/>
      <point x="1139" y="397" type="curve" smooth="yes"/>
      <point x="1139" y="338"/>
      <point x="1083" y="313"/>
    </contour>
  </outline>
</glyph>
<glyph name="seven" format="1">
  <advance width="1759"/>
  <unicode hex="0037"/>
  <outline>
    <contour>
      <point x="168" y="0" type="line"/>
      <point x="1004" y="0" type="line"/>
      <point x="1726" y="1477" type="line"/>
      <point x="1726" y="1599" type="line"/>
      <point x="98" y="1599" type="line"/>
      <point x="98" y="1169" type="line" smooth="yes"/>
      <point x="98" y="1159"/>
      <point x="274" y="1137"/>
      <point x="305" y="1137" type="curve" smooth="yes"/>
      <point x="439" y="1137"/>
      <point x="864" y="1151"/>
      <point x="958" y="1151" type="curve"/>
      <point x="958" y="1108" type="line"/>
    </contour>
  </outline>
</glyph>
<glyph name="eight" format="1">
  <advance width="1769"/>
  <unicode hex="0038"/>
  <outline>
    <contour>
      <point x="885" y="-37" type="curve" smooth="yes"/>
      <point x="1202" y="-37"/>
      <point x="1683" y="23"/>
      <point x="1683" y="436" type="curve" smooth="yes"/>
      <point x="1683" y="655"/>
      <point x="1587" y="770"/>
      <point x="1380" y="862" type="curve"/>
      <point x="1561" y="956"/>
      <point x="1624" y="1020"/>
      <point x="1624" y="1219" type="curve" smooth="yes"/>
      <point x="1624" y="1585"/>
      <point x="1143" y="1642"/>
      <point x="885" y="1642" type="curve" smooth="yes"/>
      <point x="627" y="1642"/>
      <point x="145" y="1585"/>
      <point x="145" y="1219" type="curve" smooth="yes"/>
      <point x="145" y="1020"/>
      <point x="209" y="956"/>
      <point x="389" y="862" type="curve"/>
      <point x="182" y="770"/>
      <point x="86" y="655"/>
      <point x="86" y="436" type="curve" smooth="yes"/>
      <point x="86" y="23"/>
      <point x="567" y="-37"/>
    </contour>
    <contour>
      <point x="885" y="721" type="curve" smooth="yes"/>
      <point x="967" y="721"/>
      <point x="1042" y="657"/>
      <point x="1042" y="559" type="curve" smooth="yes"/>
      <point x="1042" y="444"/>
      <point x="963" y="430"/>
      <point x="885" y="430" type="curve" smooth="yes"/>
      <point x="807" y="430"/>
      <point x="727" y="444"/>
      <point x="727" y="559" type="curve" smooth="yes"/>
      <point x="727" y="657"/>
      <point x="803" y="721"/>
    </contour>
    <contour>
      <point x="885" y="979" type="curve" smooth="yes"/>
      <point x="836" y="979"/>
      <point x="750" y="1038"/>
      <point x="750" y="1118" type="curve" smooth="yes"/>
      <point x="750" y="1219"/>
      <point x="821" y="1233"/>
      <point x="885" y="1233" type="curve" smooth="yes"/>
      <point x="948" y="1233"/>
      <point x="1020" y="1219"/>
      <point x="1020" y="1118" type="curve" smooth="yes"/>
      <point x="1020" y="1038"/>
      <point x="934" y="979"/>
    </contour>
  </outline>
</glyph>
<glyph name="nine" format="1">
  <advance width="1784"/>
  <unicode hex="0039"/>
  <outline>
    <contour>
      <point x="776" y="1292" type="curve" smooth="yes"/>
      <point x="918" y="1292"/>
      <point x="1042" y="1153"/>
      <point x="1042" y="954" type="curve"/>
      <point x="772" y="954" type="line"/>
      <point x="696" y="1053"/>
      <point x="670" y="1151"/>
      <point x="670" y="1208" type="curve" smooth="yes"/>
      <point x="670" y="1268"/>
      <point x="725" y="1292"/>
    </contour>
    <contour>
      <point x="819" y="-37" type="curve" smooth="yes"/>
      <point x="1327" y="-37"/>
      <point x="1710" y="291"/>
      <point x="1710" y="879" type="curve" smooth="yes"/>
      <point x="1710" y="1368"/>
      <point x="1300" y="1642"/>
      <point x="866" y="1642" type="curve" smooth="yes"/>
      <point x="518" y="1642"/>
      <point x="74" y="1534"/>
      <point x="74" y="1100" type="curve" smooth="yes"/>
      <point x="74" y="717"/>
      <point x="444" y="625"/>
      <point x="799" y="625" type="curve" smooth="yes"/>
      <point x="887" y="625"/>
      <point x="979" y="631"/>
      <point x="1049" y="649" type="curve"/>
      <point x="1051" y="633"/>
      <point x="1051" y="627"/>
      <point x="1051" y="614" type="curve" smooth="yes"/>
      <point x="1051" y="465"/>
      <point x="946" y="397"/>
      <point x="831" y="397" type="curve" smooth="yes"/>
      <point x="758" y="397"/>
      <point x="680" y="440"/>
      <point x="639" y="520" type="curve"/>
      <point x="639" y="520"/>
      <point x="229" y="408"/>
      <point x="137" y="383" type="curve"/>
      <point x="186" y="109"/>
      <point x="547" y="-37"/>
    </contour>
  </outline>
</glyph>
<glyph name="colon" format="1">
  <advance width="717"/>
  <unicode hex="003A"/>
  <outline>
    <contour>
      <point x="385" y="1290" type="curve" smooth="yes"/>
      <point x="195" y="1290"/>
      <point x="82" y="1137"/>
      <point x="82" y="1001" type="curve" smooth="yes"/>
      <point x="82" y="872"/>
      <point x="156" y="756"/>
      <point x="332" y="756" type="curve" smooth="yes"/>
      <point x="535" y="756"/>
      <point x="635" y="903"/>
      <point x="635" y="1042" type="curve" smooth="yes"/>
      <point x="635" y="1167"/>
      <point x="549" y="1290"/>
    </contour>
    <contour>
      <point x="385" y="535" type="curve" smooth="yes"/>
      <point x="195" y="535"/>
      <point x="82" y="381"/>
      <point x="82" y="246" type="curve" smooth="yes"/>
      <point x="82" y="119"/>
      <point x="156" y="0"/>
      <point x="332" y="0" type="curve" smooth="yes"/>
      <point x="535" y="0"/>
      <point x="635" y="147"/>
      <point x="635" y="287" type="curve" smooth="yes"/>
      <point x="635" y="414"/>
      <point x="549" y="535"/>
    </contour>
  </outline>
</glyph>
<glyph name="semicolon" format="1">
  <advance width="778"/>
  <unicode hex="003B"/>
  <outline>
    <contour>
      <point x="94" y="-336" type="line"/>
      <point x="518" y="-336"/>
      <point x="702" y="-156"/>
      <point x="702" y="147" type="curve" smooth="yes"/>
      <point x="702" y="551" type="line"/>
      <point x="94" y="551" type="line"/>
      <point x="94" y="129" type="line"/>
      <point x="274" y="129" type="line"/>
      <point x="274" y="129"/>
      <point x="274" y="-78"/>
      <point x="94" y="-78" type="curve"/>
    </contour>
    <contour>
      <point x="432" y="1290" type="curve" smooth="yes"/>
      <point x="242" y="1290"/>
      <point x="129" y="1137"/>
      <point x="129" y="1001" type="curve" smooth="yes"/>
      <point x="129" y="872"/>
      <point x="203" y="756"/>
      <point x="379" y="756" type="curve" smooth="yes"/>
      <point x="582" y="756"/>
      <point x="682" y="903"/>
      <point x="682" y="1042" type="curve" smooth="yes"/>
      <point x="682" y="1167"/>
      <point x="596" y="1290"/>
    </contour>
  </outline>
</glyph>
<glyph name="less" format="1">
  <advance width="1010"/>
  <unicode hex="003C"/>
  <outline>
    <contour>
      <point x="891" y="1466" type="line"/>
      <point x="39" y="870" type="line"/>
      <point x="14" y="856"/>
      <point x="0" y="823"/>
      <point x="0" y="791" type="curve" smooth="yes"/>
      <point x="0" y="756"/>
      <point x="12" y="725"/>
      <point x="39" y="711" type="curve"/>
      <point x="891" y="139" type="line"/>
      <point x="891" y="637" type="line"/>
      <point x="668" y="766" type="line"/>
      <point x="891" y="901" type="line"/>
    </contour>
  </outline>
</glyph>
<glyph name="equal" format="1">
  <advance width="1157"/>
  <unicode hex="003D"/>
  <outline>
    <contour>
      <point x="123" y="614" type="line"/>
      <point x="1036" y="614" type="line"/>
      <point x="1036" y="911" type="line"/>
      <point x="123" y="911" type="line"/>
    </contour>
    <contour>
      <point x="123" y="55" type="line"/>
      <point x="1036" y="55" type="line"/>
      <point x="1036" y="352" type="line"/>
      <point x="123" y="352" type="line"/>
    </contour>
  </outline>
</glyph>
<glyph name="question" format="1">
  <advance width="1155"/>
  <unicode hex="003F"/>
  <outline>
    <contour>
      <point x="676" y="553" type="line"/>
      <point x="778" y="879"/>
      <point x="1120" y="784"/>
      <point x="1120" y="1214" type="curve" smooth="yes"/>
      <point x="1120" y="1540"/>
      <point x="791" y="1638"/>
      <point x="473" y="1638" type="curve" smooth="yes"/>
      <point x="332" y="1638"/>
      <point x="190" y="1616"/>
      <point x="82" y="1585" type="curve"/>
      <point x="82" y="1155" type="line"/>
      <point x="125" y="1174"/>
      <point x="279" y="1227"/>
      <point x="401" y="1227" type="curve" smooth="yes"/>
      <point x="489" y="1227"/>
      <point x="561" y="1200"/>
      <point x="561" y="1110" type="curve" smooth="yes"/>
      <point x="561" y="999"/>
      <point x="281" y="993"/>
      <point x="281" y="725" type="curve" smooth="yes"/>
      <point x="281" y="678"/>
      <point x="289" y="621"/>
      <point x="311" y="553" type="curve"/>
    </contour>
    <contour>
      <point x="526" y="479" type="curve" smooth="yes"/>
      <point x="330" y="479"/>
      <point x="211" y="330"/>
      <point x="211" y="199" type="curve" smooth="yes"/>
      <point x="211" y="76"/>
      <point x="291" y="-37"/>
      <point x="471" y="-37" type="curve" smooth="yes"/>
      <point x="682" y="-37"/>
      <point x="786" y="106"/>
      <point x="786" y="242" type="curve" smooth="yes"/>
      <point x="786" y="362"/>
      <point x="700" y="479"/>
    </contour>
  </outline>
</glyph>
<glyph name="at" format="1">
  <advance width="2370"/>
  <unicode hex="0040"/>
  <outline>
    <contour>
      <point x="2308" y="729" type="curve" smooth="yes"/>
      <point x="2308" y="1425"/>
      <point x="1749" y="1774"/>
      <point x="1192" y="1774" type="curve" smooth="yes"/>
      <point x="633" y="1774"/>
      <point x="76" y="1425"/>
      <point x="76" y="729" type="curve" smooth="yes"/>
      <point x="76" y="76"/>
      <point x="633" y="-246"/>
      <point x="1192" y="-246" type="curve" smooth="yes"/>
      <point x="1389" y="-246"/>
      <point x="1583" y="-195"/>
      <point x="1755" y="-90" type="curve"/>
      <point x="1667" y="117" type="line"/>
      <point x="1538" y="43"/>
      <point x="1380" y="0"/>
      <point x="1192" y="0" type="curve" smooth="yes"/>
      <point x="643" y="0"/>
      <point x="373" y="360"/>
      <point x="373" y="735" type="curve" smooth="yes"/>
      <point x="373" y="1133"/>
      <point x="649" y="1532"/>
      <point x="1192" y="1532" type="curve" smooth="yes"/>
      <point x="1761" y="1532"/>
      <point x="2015" y="1137"/>
      <point x="2015" y="700" type="curve" smooth="yes"/>
      <point x="2015" y="537"/>
      <point x="1958" y="469"/>
      <point x="1894" y="469" type="curve" smooth="yes"/>
      <point x="1817" y="469"/>
      <point x="1726" y="518"/>
      <point x="1726" y="594" type="curve" smooth="yes"/>
      <point x="1726" y="1233" type="line"/>
      <point x="1464" y="1233" type="line"/>
      <point x="1350" y="1077" type="line"/>
      <point x="1272" y="1198"/>
      <point x="1126" y="1270"/>
      <point x="985" y="1270" type="curve" smooth="yes"/>
      <point x="760" y="1270"/>
      <point x="567" y="1073"/>
      <point x="567" y="743" type="curve" smooth="yes"/>
      <point x="567" y="393"/>
      <point x="768" y="209"/>
      <point x="1001" y="209" type="curve" smooth="yes"/>
      <point x="1153" y="209"/>
      <point x="1307" y="291"/>
      <point x="1391" y="424" type="curve"/>
      <point x="1518" y="289"/>
      <point x="1675" y="225"/>
      <point x="1823" y="225" type="curve" smooth="yes"/>
      <point x="2079" y="225"/>
      <point x="2308" y="416"/>
    </contour>
    <contour>
      <point x="1065" y="532" type="curve" smooth="yes"/>
      <point x="991" y="532"/>
      <point x="973" y="584"/>
      <point x="973" y="635" type="curve" smooth="yes"/>
      <point x="973" y="793"/>
      <point x="1178" y="920"/>
      <point x="1296" y="920" type="curve"/>
      <point x="1296" y="674" type="line"/>
      <point x="1247" y="602"/>
      <point x="1149" y="532"/>
    </contour>
  </outline>
</glyph>
<glyph name="A" format="1">
  <advance width="2128"/>
  <unicode hex="0041"/>
  <outline>
    <contour>
      <point x="1045" y="1554" type="move" name="top"/>
    </contour>
    <contour>
      <point x="739" y="0" type="line"/>
      <point x="793" y="158" type="line"/>
      <point x="1225" y="158" type="line"/>
      <point x="1288" y="0" type="line"/>
      <point x="2099" y="0" type="line"/>
      <point x="1247" y="1522" type="line" smooth="yes"/>
      <point x="1205" y="1597"/>
      <point x="1123" y="1632"/>
      <point x="1044" y="1632" type="curve" smooth="yes"/>
      <point x="956" y="1632"/>
      <point x="865" y="1589"/>
      <point x="827" y="1516" type="curve" smooth="yes"/>
      <point x="33" y="0" type="line"/>
    </contour>
    <contour>
      <point x="1012" y="907" type="line"/>
      <point x="1165" y="475" type="line"/>
      <point x="842" y="475" type="line"/>
    </contour>
  </outline>
</glyph>
<glyph name="B" format="1">
  <advance width="1892"/>
  <unicode hex="0042"/>
  <outline>
    <contour>
      <point x="123" y="4" type="line"/>
      <point x="242" y="-4"/>
      <point x="795" y="-23"/>
      <point x="913" y="-23" type="curve" smooth="yes"/>
      <point x="1272" y="-23"/>
      <point x="1808" y="0"/>
      <point x="1808" y="467" type="curve" smooth="yes"/>
      <point x="1808" y="770"/>
      <point x="1640" y="879"/>
      <point x="1475" y="936" type="curve"/>
      <point x="1632" y="1008"/>
      <point x="1708" y="1102"/>
      <point x="1708" y="1249" type="curve" smooth="yes"/>
      <point x="1708" y="1479"/>
      <point x="1511" y="1622"/>
      <point x="918" y="1622" type="curve" smooth="yes"/>
      <point x="653" y="1622"/>
      <point x="123" y="1597"/>
      <point x="123" y="1597" type="curve"/>
    </contour>
    <contour>
      <point x="1143" y="621" type="curve" smooth="yes"/>
      <point x="1143" y="480"/>
      <point x="1008" y="430"/>
      <point x="800" y="352" type="curve" smooth="yes"/>
      <point x="783" y="346"/>
      <point x="766" y="339"/>
      <point x="748" y="332" type="curve"/>
      <point x="748" y="584" type="line"/>
      <point x="817" y="618"/>
      <point x="954" y="705"/>
      <point x="1044" y="705" type="curve" smooth="yes"/>
      <point x="1100" y="705"/>
      <point x="1143" y="682"/>
    </contour>
    <contour>
      <point x="748" y="1126" type="line"/>
      <point x="754" y="1130"/>
      <point x="897" y="1225"/>
      <point x="989" y="1225" type="curve" smooth="yes"/>
      <point x="1034" y="1225"/>
      <point x="1090" y="1198"/>
      <point x="1090" y="1139" type="curve" smooth="yes"/>
      <point x="1090" y="1004"/>
      <point x="918" y="932"/>
      <point x="748" y="866" type="curve"/>
    </contour>
  </outline>
</glyph>
<glyph name="C" format="1">
  <advance width="1526"/>
  <unicode hex="0043"/>
  <outline>
    <contour>
      <point x="895" y="1554" type="move" name="top"/>
    </contour>
    <contour>
      <point x="926" y="0" type="move" name="bot"/>
    </contour>
    <contour>
      <point x="1413" y="698" type="line"/>
      <point x="1167" y="518"/>
      <point x="1085" y="508"/>
      <point x="1024" y="508" type="curve" smooth="yes"/>
      <point x="920" y="508"/>
      <point x="866" y="590"/>
      <point x="866" y="727" type="curve" smooth="yes"/>
      <point x="866" y="934"/>
      <point x="1040" y="1102"/>
      <point x="1247" y="1102" type="curve" smooth="yes"/>
      <point x="1290" y="1102"/>
      <point x="1337" y="1094"/>
      <point x="1382" y="1077" type="curve"/>
      <point x="1382" y="1593" type="line"/>
      <point x="1276" y="1632"/>
      <point x="1114" y="1642"/>
      <point x="1034" y="1642" type="curve" smooth="yes"/>
      <point x="459" y="1642"/>
      <point x="61" y="1276"/>
      <point x="61" y="745" type="curve" smooth="yes"/>
      <point x="61" y="244"/>
      <point x="498" y="-39"/>
      <point x="952" y="-39" type="curve" smooth="yes"/>
      <point x="1116" y="-39"/>
      <point x="1272" y="-10"/>
      <point x="1413" y="47" type="curve"/>
    </contour>
  </outline>
</glyph>
<glyph name="D" format="1">
  <advance width="1810"/>
  <unicode hex="0044"/>
  <outline>
    <contour>
      <point x="836" y="1555" type="move" name="top"/>
    </contour>
    <contour>
      <point x="123" y="0" type="line"/>
      <point x="889" y="0" type="line" smooth="yes"/>
      <point x="1370" y="0"/>
      <point x="1735" y="295"/>
      <point x="1735" y="797" type="curve" smooth="yes"/>
      <point x="1735" y="1200"/>
      <point x="1493" y="1642"/>
      <point x="971" y="1642" type="curve" smooth="yes"/>
      <point x="688" y="1642"/>
      <point x="123" y="1597"/>
      <point x="123" y="1597" type="curve"/>
    </contour>
    <contour>
      <point x="745" y="1090" type="line"/>
      <point x="784" y="1135"/>
      <point x="840" y="1174"/>
      <point x="901" y="1174" type="curve" smooth="yes"/>
      <point x="1028" y="1174"/>
      <point x="1098" y="1038"/>
      <point x="1098" y="928" type="curve" smooth="yes"/>
      <point x="1098" y="707"/>
      <point x="887" y="602"/>
      <point x="745" y="481" type="curve"/>
    </contour>
  </outline>
</glyph>
<glyph name="E" format="1">
  <advance width="1423"/>
  <unicode hex="0045"/>
  <outline>
    <contour>
      <point x="705" y="1554" type="move" name="top"/>
    </contour>
    <contour>
      <point x="123" y="0" type="line"/>
      <point x="1309" y="0" type="line"/>
      <point x="1309" y="463" type="line"/>
      <point x="745" y="463" type="line"/>
      <point x="745" y="614" type="line"/>
      <point x="1272" y="614" type="line"/>
      <point x="1272" y="1006" type="line"/>
      <point x="745" y="1006" type="line"/>
      <point x="745" y="1137" type="line"/>
      <point x="1274" y="1137" type="line"/>
      <point x="1274" y="1597" type="line"/>
      <point x="123" y="1597" type="line"/>
    </contour>
  </outline>
</glyph>
<glyph name="F" format="1">
  <advance width="1323"/>
  <unicode hex="0046"/>
  <outline>
    <contour>
      <point x="123" y="0" type="line"/>
      <point x="745" y="0" type="line"/>
      <point x="745" y="561" type="line"/>
      <point x="1272" y="561" type="line"/>
      <point x="1272" y="997" type="line"/>
      <point x="745" y="997" type="line"/>
      <point x="745" y="1145" type="line"/>
      <point x="1272" y="1145" type="line"/>
      <point x="1272" y="1597" type="line"/>
      <point x="123" y="1597" type="line"/>
    </contour>
  </outline>
</glyph>
<glyph name="G" format="1">
  <advance width="1724"/>
  <unicode hex="0047"/>
  <outline>
    <contour>
      <point x="958" y="1554" type="move" name="top"/>
    </contour>
    <contour>
      <point x="1618" y="762" type="line"/>
      <point x="1618" y="762"/>
      <point x="1616" y="760"/>
      <point x="1104" y="760" type="curve"/>
      <point x="1104" y="645"/>
      <point x="1104" y="569"/>
      <point x="1102" y="520" type="curve"/>
      <point x="1079" y="510"/>
      <point x="1047" y="506"/>
      <point x="1016" y="506" type="curve" smooth="yes"/>
      <point x="877" y="506"/>
      <point x="793" y="608"/>
      <point x="793" y="752" type="curve" smooth="yes"/>
      <point x="793" y="938"/>
      <point x="948" y="1145"/>
      <point x="1268" y="1145" type="curve" smooth="yes"/>
      <point x="1352" y="1145"/>
      <point x="1442" y="1130"/>
      <point x="1540" y="1100" type="curve"/>
      <point x="1540" y="1583" type="line"/>
      <point x="1536" y="1583"/>
      <point x="1409" y="1642"/>
      <point x="1145" y="1642" type="curve" smooth="yes"/>
      <point x="524" y="1642"/>
      <point x="63" y="1325"/>
      <point x="63" y="807" type="curve" smooth="yes"/>
      <point x="63" y="289"/>
      <point x="492" y="-39"/>
      <point x="1063" y="-39" type="curve" smooth="yes"/>
      <point x="1270" y="-39"/>
      <point x="1618" y="20"/>
      <point x="1618" y="20" type="curve"/>
    </contour>
  </outline>
</glyph>
<glyph name="H" format="1">
  <advance width="1823"/>
  <unicode hex="0048"/>
  <outline>
    <contour>
      <point x="1077" y="1047" type="line"/>
      <point x="745" y="1020" type="line"/>
      <point x="745" y="1597" type="line"/>
      <point x="123" y="1597" type="line"/>
      <point x="123" y="0" type="line"/>
      <point x="745" y="0" type="line"/>
      <point x="745" y="561" type="line"/>
      <point x="1077" y="590" type="line"/>
      <point x="1077" y="0" type="line"/>
      <point x="1700" y="0" type="line"/>
      <point x="1700" y="1597" type="line"/>
      <point x="1077" y="1597" type="line"/>
    </contour>
  </outline>
</glyph>
<glyph name="I" format="1">
  <advance width="866"/>
  <unicode hex="0049"/>
  <outline>
    <contour>
      <point x="442" y="1554" type="move" name="top"/>
    </contour>
    <contour>
      <point x="442" y="0" type="move" name="bot"/>
    </contour>
    <contour>
      <point x="745" y="1597" type="line"/>
      <point x="123" y="1597" type="line"/>
      <point x="123" y="0" type="line"/>
      <point x="745" y="0" type="line"/>
    </contour>
  </outline>
</glyph>
<glyph name="J" format="1">
  <advance width="1579"/>
  <unicode hex="004A"/>
  <outline>
    <contour>
      <point x="1106" y="1554" type="move" name="top"/>
    </contour>
    <contour>
      <point x="727" y="-39" type="curve" smooth="yes"/>
      <point x="1151" y="-39"/>
      <point x="1481" y="170"/>
      <point x="1481" y="825" type="curve" smooth="yes"/>
      <point x="1481" y="1597" type="line"/>
      <point x="844" y="1597" type="line"/>
      <point x="844" y="647" type="line" smooth="yes"/>
      <point x="844" y="526"/>
      <point x="774" y="451"/>
      <point x="702" y="451" type="curve" smooth="yes"/>
      <point x="633" y="451"/>
      <point x="569" y="512"/>
      <point x="569" y="641" type="curve" smooth="yes"/>
      <point x="569" y="795" type="line"/>
      <point x="14" y="719" type="line"/>
      <point x="14" y="567" type="line" smooth="yes"/>
      <point x="14" y="143"/>
      <point x="308" y="-39"/>
    </contour>
  </outline>
</glyph>
<glyph name="K" format="1">
  <advance width="1956"/>
  <unicode hex="004B"/>
  <outline>
    <contour>
      <point x="123" y="1597" type="line"/>
      <point x="123" y="0" type="line"/>
      <point x="770" y="0" type="line"/>
      <point x="770" y="500" type="line"/>
      <point x="807" y="565" type="line"/>
      <point x="1141" y="0" type="line"/>
      <point x="1870" y="0" type="line"/>
      <point x="1274" y="924" type="line"/>
      <point x="1790" y="1597" type="line"/>
      <point x="1141" y="1597" type="line"/>
      <point x="756" y="1106" type="line"/>
      <point x="756" y="1597" type="line"/>
    </contour>
  </outline>
</glyph>
<glyph name="L" format="1">
  <advance width="1313"/>
  <unicode hex="004C"/>
  <outline>
    <contour>
      <point x="445" y="1555" type="move" name="top"/>
    </contour>
    <contour>
      <point x="123" y="0" type="line"/>
      <point x="1282" y="0" type="line"/>
      <point x="1282" y="481" type="line"/>
      <point x="745" y="481" type="line"/>
      <point x="745" y="1597" type="line"/>
      <point x="123" y="1597" type="line"/>
    </contour>
  </outline>
</glyph>
<glyph name="M" format="1">
  <advance width="2261"/>
  <unicode hex="004D"/>
  <outline>
    <contour>
      <point x="123" y="0" type="line"/>
      <point x="676" y="0" type="line"/>
      <point x="676" y="506" type="line"/>
      <point x="1073" y="70" type="line"/>
      <point x="1481" y="518" type="line"/>
      <point x="1481" y="0" type="line"/>
      <point x="2138" y="0" type="line"/>
      <point x="2138" y="1597" type="line"/>
      <point x="1917" y="1597" type="line"/>
      <point x="1124" y="872" type="line"/>
      <point x="352" y="1597" type="line"/>
      <point x="123" y="1597" type="line"/>
    </contour>
  </outline>
</glyph>
<glyph name="N" format="1">
  <advance width="1843"/>
  <unicode hex="004E"/>
  <outline>
    <contour>
      <point x="961" y="1554" type="move" name="top"/>
    </contour>
    <contour>
      <point x="123" y="0" type="line"/>
      <point x="684" y="0" type="line"/>
      <point x="684" y="549" type="line"/>
      <point x="1505" y="0" type="line"/>
      <point x="1720" y="0" type="line"/>
      <point x="1720" y="1597" type="line"/>
      <point x="1157" y="1597" type="line"/>
      <point x="1157" y="975" type="line"/>
      <point x="285" y="1597" type="line"/>
      <point x="123" y="1597" type="line"/>
    </contour>
  </outline>
</glyph>
<glyph name="O" format="1">
  <advance width="1942"/>
  <unicode hex="004F"/>
  <outline>
    <contour>
      <point x="961" y="1554" type="move" name="top"/>
    </contour>
    <contour>
      <point x="1075" y="1159" type="curve" smooth="yes"/>
      <point x="1192" y="1159"/>
      <point x="1237" y="1090"/>
      <point x="1237" y="997" type="curve" smooth="yes"/>
      <point x="1237" y="797"/>
      <point x="1032" y="481"/>
      <point x="891" y="481" type="curve" smooth="yes"/>
      <point x="770" y="481"/>
      <point x="723" y="551"/>
      <point x="723" y="647" type="curve" smooth="yes"/>
      <point x="723" y="848"/>
      <point x="930" y="1159"/>
    </contour>
    <contour>
      <point x="961" y="-39" type="curve" smooth="yes"/>
      <point x="1440" y="-39"/>
      <point x="1866" y="285"/>
      <point x="1866" y="797" type="curve" smooth="yes"/>
      <point x="1866" y="1325"/>
      <point x="1468" y="1642"/>
      <point x="961" y="1642" type="curve" smooth="yes"/>
      <point x="477" y="1642"/>
      <point x="74" y="1307"/>
      <point x="74" y="805" type="curve" smooth="yes"/>
      <point x="74" y="293"/>
      <point x="510" y="-39"/>
    </contour>
  </outline>
</glyph>
<glyph name="P" format="1">
  <advance width="1751"/>
  <unicode hex="0050"/>
  <outline>
    <contour>
      <point x="918" y="1642" type="curve" smooth="yes"/>
      <point x="694" y="1642"/>
      <point x="434" y="1624"/>
      <point x="123" y="1593" type="curve"/>
      <point x="123" y="0" type="line"/>
      <point x="776" y="0" type="line"/>
      <point x="776" y="289" type="line"/>
      <point x="846" y="289"/>
      <point x="901" y="285"/>
      <point x="954" y="285" type="curve" smooth="yes"/>
      <point x="1370" y="285"/>
      <point x="1706" y="575"/>
      <point x="1706" y="991" type="curve" smooth="yes"/>
      <point x="1706" y="1456"/>
      <point x="1475" y="1642"/>
    </contour>
    <contour>
      <point x="1024" y="1227" type="curve" smooth="yes"/>
      <point x="1096" y="1227"/>
      <point x="1137" y="1169"/>
      <point x="1137" y="1102" type="curve" smooth="yes"/>
      <point x="1137" y="946"/>
      <point x="1024" y="854"/>
      <point x="889" y="788" type="curve" smooth="yes"/>
      <point x="772" y="731" type="line"/>
      <point x="772" y="1108" type="line"/>
      <point x="772" y="1108"/>
      <point x="930" y="1227"/>
    </contour>
  </outline>
</glyph>
<glyph name="Q" format="1">
  <advance width="2015"/>
  <unicode hex="0051"/>
  <outline>
    <contour>
      <point x="958" y="-39" type="curve" smooth="yes"/>
      <point x="1145" y="-39"/>
      <point x="1325" y="10"/>
      <point x="1474" y="101" type="curve"/>
      <point x="1607" y="15"/>
      <point x="1749" y="-39"/>
      <point x="1901" y="-39" type="curve" smooth="yes"/>
      <point x="1929" y="-39"/>
      <point x="1962" y="-37"/>
      <point x="1993" y="-33" type="curve"/>
      <point x="1993" y="-33"/>
      <point x="1991" y="408"/>
      <point x="1989" y="408" type="curve" smooth="yes"/>
      <point x="1937" y="408"/>
      <point x="1868" y="422"/>
      <point x="1789" y="448" type="curve"/>
      <point x="1837" y="551"/>
      <point x="1864" y="668"/>
      <point x="1864" y="797" type="curve" smooth="yes"/>
      <point x="1864" y="1325"/>
      <point x="1466" y="1642"/>
      <point x="958" y="1642" type="curve" smooth="yes"/>
      <point x="475" y="1642"/>
      <point x="72" y="1307"/>
      <point x="72" y="805" type="curve" smooth="yes"/>
      <point x="72" y="293"/>
      <point x="508" y="-39"/>
    </contour>
    <contour>
      <point x="1073" y="1159" type="curve" smooth="yes"/>
      <point x="1190" y="1159"/>
      <point x="1235" y="1090"/>
      <point x="1235" y="997" type="curve" smooth="yes"/>
      <point x="1235" y="922"/>
      <point x="1206" y="832"/>
      <point x="1163" y="747" type="curve"/>
      <point x="1097" y="787"/>
      <point x="1031" y="828"/>
      <point x="969" y="870" type="curve"/>
      <point x="860" y="707" type="line"/>
      <point x="908" y="650"/>
      <point x="956" y="592"/>
      <point x="1005" y="536" type="curve"/>
      <point x="965" y="502"/>
      <point x="925" y="481"/>
      <point x="889" y="481" type="curve" smooth="yes"/>
      <point x="768" y="481"/>
      <point x="721" y="551"/>
      <point x="721" y="647" type="curve" smooth="yes"/>
      <point x="721" y="848"/>
      <point x="928" y="1159"/>
    </contour>
  </outline>
</glyph>
<glyph name="R" format="1">
  <advance width="1917"/>
  <unicode hex="0052"/>
  <outline>
    <contour>
      <point x="815" y="1554" type="move" name="top"/>
    </contour>
    <contour>
      <point x="772" y="1145" type="line"/>
      <point x="905" y="1200" type="line" smooth="yes"/>
      <point x="950" y="1219"/>
      <point x="991" y="1233"/>
      <point x="1030" y="1233" type="curve" smooth="yes"/>
      <point x="1090" y="1233"/>
      <point x="1135" y="1200"/>
      <point x="1135" y="1092" type="curve" smooth="yes"/>
      <point x="1135" y="963"/>
      <point x="1030" y="850"/>
      <point x="772" y="754" type="curve"/>
    </contour>
    <contour>
      <point x="1057" y="0" type="line"/>
      <point x="1847" y="0" type="line"/>
      <point x="1413" y="567" type="line"/>
      <point x="1597" y="676"/>
      <point x="1729" y="842"/>
      <point x="1729" y="1075" type="curve" smooth="yes"/>
      <point x="1729" y="1341"/>
      <point x="1538" y="1642"/>
      <point x="1022" y="1642" type="curve" smooth="yes"/>
      <point x="711" y="1642"/>
      <point x="123" y="1597"/>
      <point x="123" y="1597" type="curve"/>
      <point x="123" y="0" type="line"/>
      <point x="776" y="0" type="line"/>
      <point x="776" y="463" type="line"/>
    </contour>
  </outline>
</glyph>
<glyph name="S" format="1">
  <advance width="1446"/>
  <unicode hex="0053"/>
  <outline>
    <contour>
      <point x="717" y="1554" type="move" name="top"/>
    </contour>
    <contour>
      <point x="695" y="0" type="move" name="bot"/>
    </contour>
    <contour>
      <point x="100" y="530" type="curve"/>
      <point x="100" y="72" type="line"/>
      <point x="100" y="72"/>
      <point x="219" y="-39"/>
      <point x="696" y="-39" type="curve" smooth="yes"/>
      <point x="1111" y="-39"/>
      <point x="1356" y="165"/>
      <point x="1356" y="477" type="curve" smooth="yes"/>
      <point x="1356" y="826"/>
      <point x="1123" y="935"/>
      <point x="842" y="1057" type="curve" smooth="yes"/>
      <point x="805" y="1073"/>
      <point x="774" y="1106"/>
      <point x="774" y="1130" type="curve" smooth="yes"/>
      <point x="774" y="1159"/>
      <point x="805" y="1184"/>
      <point x="866" y="1184" type="curve" smooth="yes"/>
      <point x="999" y="1184"/>
      <point x="1257" y="1126"/>
      <point x="1257" y="1126" type="curve"/>
      <point x="1257" y="1585" type="line"/>
      <point x="1221" y="1595"/>
      <point x="1014" y="1642"/>
      <point x="793" y="1642" type="curve" smooth="yes"/>
      <point x="444" y="1642"/>
      <point x="96" y="1509"/>
      <point x="96" y="1133" type="curve" smooth="yes"/>
      <point x="96" y="674"/>
      <point x="647" y="635"/>
      <point x="647" y="485" type="curve" smooth="yes"/>
      <point x="647" y="438"/>
      <point x="606" y="424"/>
      <point x="547" y="424" type="curve" smooth="yes"/>
      <point x="412" y="424"/>
      <point x="117" y="526"/>
    </contour>
  </outline>
</glyph>
<glyph name="T" format="1">
  <advance width="1624"/>
  <unicode hex="0054"/>
  <outline>
    <contour>
      <point x="818" y="1555" type="move" name="top"/>
    </contour>
    <contour>
      <point x="57" y="1079" type="line"/>
      <point x="502" y="1079" type="line"/>
      <point x="502" y="0" type="line"/>
      <point x="1124" y="0" type="line"/>
      <point x="1124" y="1079" type="line"/>
      <point x="1569" y="1079" type="line"/>
      <point x="1569" y="1597" type="line"/>
      <point x="57" y="1597" type="line"/>
    </contour>
  </outline>
</glyph>
<glyph name="U" format="1">
  <advance width="1745"/>
  <unicode hex="0055"/>
  <outline>
    <contour>
      <point x="911" y="1554" type="move" name="top"/>
    </contour>
    <contour>
      <point x="901" y="0" type="move" name="bot"/>
    </contour>
    <contour>
      <point x="106" y="637" type="line" smooth="yes"/>
      <point x="106" y="178"/>
      <point x="381" y="-39"/>
      <point x="901" y="-39" type="curve" smooth="yes"/>
      <point x="1378" y="-39"/>
      <point x="1638" y="178"/>
      <point x="1638" y="637" type="curve" smooth="yes"/>
      <point x="1638" y="1597" type="line"/>
      <point x="1085" y="1597" type="line"/>
      <point x="1085" y="659" type="line" smooth="yes"/>
      <point x="1085" y="545"/>
      <point x="1034" y="455"/>
      <point x="911" y="455" type="curve" smooth="yes"/>
      <point x="788" y="455"/>
      <point x="737" y="541"/>
      <point x="737" y="655" type="curve" smooth="yes"/>
      <point x="737" y="1597" type="line"/>
      <point x="106" y="1597" type="line"/>
    </contour>
  </outline>
</glyph>
<glyph name="V" format="1">
  <advance width="1843"/>
  <unicode hex="0056"/>
  <outline>
    <contour>
      <point x="25" y="1597" type="line"/>
      <point x="852" y="2" type="line" smooth="yes"/>
      <point x="869" y="-31"/>
      <point x="904" y="-47"/>
      <point x="942" y="-47" type="curve" smooth="yes"/>
      <point x="978" y="-47"/>
      <point x="1016" y="-29"/>
      <point x="1032" y="2" type="curve" smooth="yes"/>
      <point x="1817" y="1597" type="line"/>
      <point x="1231" y="1597" type="line"/>
      <point x="999" y="1096" type="line"/>
      <point x="750" y="1597" type="line"/>
    </contour>
  </outline>
</glyph>
<glyph name="W" format="1">
  <advance width="2664"/>
  <unicode hex="0057"/>
  <outline>
    <contour>
      <point x="63" y="1597" type="line"/>
      <point x="625" y="45" type="line" smooth="yes"/>
      <point x="651" y="-26"/>
      <point x="697" y="-55"/>
      <point x="747" y="-55" type="curve" smooth="yes"/>
      <point x="796" y="-55"/>
      <point x="847" y="-22"/>
      <point x="887" y="31" type="curve" smooth="yes"/>
      <point x="1368" y="678" type="line"/>
      <point x="1815" y="33" type="line" smooth="yes"/>
      <point x="1857" y="-28"/>
      <point x="1907" y="-59"/>
      <point x="1956" y="-59" type="curve" smooth="yes"/>
      <point x="2006" y="-59"/>
      <point x="2053" y="-25"/>
      <point x="2075" y="41" type="curve" smooth="yes"/>
      <point x="2597" y="1597" type="line"/>
      <point x="2025" y="1597" type="line"/>
      <point x="1845" y="1034" type="line"/>
      <point x="1473" y="1563" type="line" smooth="yes"/>
      <point x="1447" y="1600"/>
      <point x="1434" y="1606"/>
      <point x="1417" y="1606" type="curve" smooth="yes"/>
      <point x="1399" y="1606"/>
      <point x="1389" y="1599"/>
      <point x="1362" y="1563" type="curve" smooth="yes"/>
      <point x="963" y="1028" type="line"/>
      <point x="780" y="1597" type="line"/>
    </contour>
  </outline>
</glyph>
<glyph name="X" format="1">
  <advance width="1923"/>
  <unicode hex="0058"/>
  <outline>
    <contour>
      <point x="1100" y="0" type="line"/>
      <point x="1837" y="0" type="line"/>
      <point x="1319" y="846" type="line"/>
      <point x="1737" y="1597" type="line"/>
      <point x="1178" y="1597" type="line"/>
      <point x="991" y="1278" type="line"/>
      <point x="813" y="1597" type="line"/>
      <point x="96" y="1597" type="line"/>
      <point x="567" y="831" type="line"/>
      <point x="131" y="0" type="line"/>
      <point x="727" y="0" type="line"/>
      <point x="909" y="365" type="line"/>
    </contour>
  </outline>
</glyph>
<glyph name="Y" format="1">
  <advance width="1718"/>
  <unicode hex="0059"/>
  <outline>
    <contour>
      <point x="915" y="1554" type="move" name="top"/>
    </contour>
    <contour>
      <point x="530" y="0" type="line"/>
      <point x="1178" y="0" type="line"/>
      <point x="1178" y="623" type="line"/>
      <point x="1675" y="1597" type="line"/>
      <point x="1079" y="1597" type="line"/>
      <point x="915" y="1270" type="line"/>
      <point x="756" y="1597" type="line"/>
      <point x="43" y="1597" type="line"/>
      <point x="530" y="623" type="line"/>
    </contour>
  </outline>
</glyph>
<glyph name="Z" format="1">
  <advance width="1845"/>
  <unicode hex="005A"/>
  <outline>
    <contour>
      <point x="948" y="1554" type="move" name="top"/>
    </contour>
    <contour>
      <point x="109" y="92" type="line"/>
      <point x="109" y="0" type="line"/>
      <point x="1726" y="0" type="line"/>
      <point x="1726" y="457" type="line"/>
      <point x="1110" y="457" type="line"/>
      <point x="1726" y="1475" type="line"/>
      <point x="1726" y="1597" type="line"/>
      <point x="170" y="1597" type="line"/>
      <point x="170" y="1114" type="line"/>
      <point x="721" y="1114" type="line"/>
    </contour>
  </outline>
</glyph>
<glyph name="bracketleft" format="1">
  <advance width="1188"/>
  <unicode hex="005B"/>
  <outline>
    <contour>
      <point x="1067" y="-37" type="line"/>
      <point x="1067" y="236" type="line"/>
      <point x="745" y="236" type="line"/>
      <point x="745" y="1354" type="line"/>
      <point x="1067" y="1354" type="line"/>
      <point x="1067" y="1640" type="line"/>
      <point x="123" y="1640" type="line"/>
      <point x="123" y="-37" type="line"/>
    </contour>
  </outline>
</glyph>
<glyph name="backslash" format="1">
  <advance width="1057"/>
  <unicode hex="005C"/>
  <outline>
    <contour>
      <point x="1030" y="0" type="line"/>
      <point x="356" y="0" type="line"/>
      <point x="49" y="1597" type="line"/>
      <point x="580" y="1597" type="line"/>
    </contour>
  </outline>
</glyph>
<glyph name="asciicircum" format="1">
  <advance width="819"/>
  <unicode hex="005E"/>
  <outline>
    <contour>
      <point x="63" y="1464" type="line" smooth="yes"/>
      <point x="51" y="1439"/>
      <point x="47" y="1416"/>
      <point x="47" y="1401" type="curve" smooth="yes"/>
      <point x="47" y="1378"/>
      <point x="59" y="1366"/>
      <point x="78" y="1366" type="curve" smooth="yes"/>
      <point x="103" y="1366"/>
      <point x="144" y="1388"/>
      <point x="184" y="1425" type="curve" smooth="yes"/>
      <point x="410" y="1632" type="line"/>
      <point x="637" y="1425" type="line" smooth="yes"/>
      <point x="676" y="1389"/>
      <point x="717" y="1366"/>
      <point x="743" y="1366" type="curve" smooth="yes"/>
      <point x="762" y="1366"/>
      <point x="772" y="1378"/>
      <point x="772" y="1401" type="curve" smooth="yes"/>
      <point x="772" y="1417"/>
      <point x="769" y="1438"/>
      <point x="758" y="1464" type="curve"/>
      <point x="553" y="1882" type="line" smooth="yes"/>
      <point x="522" y="1944"/>
      <point x="463" y="1972"/>
      <point x="412" y="1972" type="curve" smooth="yes"/>
      <point x="357" y="1972"/>
      <point x="296" y="1939"/>
      <point x="268" y="1882" type="curve" smooth="yes"/>
    </contour>
  </outline>
</glyph>
<glyph name="underscore" format="1">
  <advance width="1157"/>
  <unicode hex="005F"/>
  <outline>
    <contour>
      <point x="123" y="-297" type="line"/>
      <point x="1036" y="-297" type="line"/>
      <point x="1036" y="0" type="line"/>
      <point x="123" y="0" type="line"/>
    </contour>
  </outline>
</glyph>
<glyph name="grave" format="1">
  <advance width="625"/>
  <unicode hex="0060"/>
  <outline>
    <contour>
      <point x="555" y="680" type="move" name="_top"/>
    </contour>
    <contour>
      <point x="33" y="1476" type="line"/>
      <point x="463" y="938" type="line" smooth="yes"/>
      <point x="500" y="892"/>
      <point x="530" y="868"/>
      <point x="555" y="868" type="curve" smooth="yes"/>
      <point x="578" y="868"/>
      <point x="592" y="889"/>
      <point x="592" y="923" type="curve" smooth="yes"/>
      <point x="592" y="938"/>
      <point x="590" y="956"/>
      <point x="584" y="977" type="curve" smooth="yes"/>
      <point x="440" y="1476" type="line"/>
    </contour>
  </outline>
</glyph>
<glyph name="a" format="1">
  <advance width="1726"/>
  <unicode hex="0061"/>
  <outline>
    <contour>
      <point x="907" y="1243" type="move" name="top"/>
    </contour>
    <contour>
      <point x="84" y="565" type="curve" smooth="yes"/>
      <point x="84" y="156"/>
      <point x="358" y="-37"/>
      <point x="662" y="-37" type="curve" smooth="yes"/>
      <point x="846" y="-37"/>
      <point x="1034" y="55"/>
      <point x="1137" y="207" type="curve"/>
      <point x="1280" y="0" type="line"/>
      <point x="1608" y="0" type="line"/>
      <point x="1608" y="1243" type="line"/>
      <point x="1280" y="1243" type="line"/>
      <point x="1137" y="1090" type="line"/>
      <point x="1055" y="1217"/>
      <point x="907" y="1290"/>
      <point x="764" y="1290" type="curve" smooth="yes"/>
      <point x="410" y="1290"/>
      <point x="84" y="1001"/>
    </contour>
    <contour>
      <point x="680" y="516" type="curve" smooth="yes"/>
      <point x="680" y="678"/>
      <point x="839" y="887"/>
      <point x="990" y="887" type="curve" smooth="yes"/>
      <point x="1017" y="887"/>
      <point x="1044" y="881"/>
      <point x="1069" y="866" type="curve"/>
      <point x="1069" y="512" type="line"/>
      <point x="956" y="416"/>
      <point x="844" y="379"/>
      <point x="778" y="379" type="curve" smooth="yes"/>
      <point x="709" y="379"/>
      <point x="680" y="451"/>
    </contour>
  </outline>
</glyph>
<glyph name="b" format="1">
  <advance width="1733"/>
  <unicode hex="0062"/>
  <outline>
    <contour>
      <point x="123" y="16" type="line"/>
      <point x="367" y="-23"/>
      <point x="592" y="-39"/>
      <point x="766" y="-39" type="curve" smooth="yes"/>
      <point x="1460" y="-39"/>
      <point x="1657" y="432"/>
      <point x="1657" y="657" type="curve" smooth="yes"/>
      <point x="1657" y="975"/>
      <point x="1470" y="1260"/>
      <point x="1106" y="1260" type="curve" smooth="yes"/>
      <point x="1004" y="1260"/>
      <point x="827" y="1214"/>
      <point x="705" y="1096" type="curve"/>
      <point x="705" y="1683" type="line"/>
      <point x="123" y="1683" type="line"/>
    </contour>
    <contour>
      <point x="993" y="844" type="curve"/>
      <point x="1065" y="844"/>
      <point x="1092" y="770"/>
      <point x="1092" y="707" type="curve" smooth="yes"/>
      <point x="1092" y="539"/>
      <point x="936" y="336"/>
      <point x="801" y="336" type="curve" smooth="yes"/>
      <point x="702" y="336" type="line"/>
      <point x="702" y="713" type="line"/>
      <point x="762" y="760"/>
      <point x="868" y="844"/>
    </contour>
  </outline>
</glyph>
<glyph name="c" format="1">
  <advance width="1243"/>
  <unicode hex="0063"/>
  <outline>
    <contour>
      <point x="664" y="1243" type="move" name="top"/>
    </contour>
    <contour>
      <point x="729" y="0" type="move" name="bot"/>
    </contour>
    <contour>
      <point x="1130" y="522" type="line"/>
      <point x="948" y="387"/>
      <point x="880" y="379"/>
      <point x="838" y="379" type="curve" smooth="yes"/>
      <point x="785" y="379"/>
      <point x="721" y="395"/>
      <point x="721" y="514" type="curve" smooth="yes"/>
      <point x="721" y="707"/>
      <point x="899" y="887"/>
      <point x="1036" y="887" type="curve" smooth="yes"/>
      <point x="1063" y="887"/>
      <point x="1090" y="881"/>
      <point x="1110" y="864" type="curve"/>
      <point x="1110" y="1249" type="line"/>
      <point x="1026" y="1282"/>
      <point x="907" y="1292"/>
      <point x="852" y="1292" type="curve" smooth="yes"/>
      <point x="391" y="1292"/>
      <point x="74" y="1008"/>
      <point x="74" y="584" type="curve" smooth="yes"/>
      <point x="74" y="178"/>
      <point x="414" y="-37"/>
      <point x="766" y="-37" type="curve" smooth="yes"/>
      <point x="895" y="-37"/>
      <point x="1018" y="-10"/>
      <point x="1130" y="33" type="curve"/>
    </contour>
  </outline>
</glyph>
<glyph name="d" format="1">
  <advance width="1786"/>
  <unicode hex="0064"/>
  <outline>
    <contour>
      <point x="1755" y="1286" type="move" name="top"/>
    </contour>
    <contour>
      <point x="74" y="559" type="curve" smooth="yes"/>
      <point x="74" y="186"/>
      <point x="369" y="-35"/>
      <point x="670" y="-35" type="curve" smooth="yes"/>
      <point x="848" y="-35"/>
      <point x="1026" y="41"/>
      <point x="1151" y="207" type="curve"/>
      <point x="1294" y="0" type="line"/>
      <point x="1665" y="0" type="line"/>
      <point x="1665" y="1683" type="line"/>
      <point x="1083" y="1683" type="line"/>
      <point x="1083" y="1249" type="line"/>
      <point x="997" y="1276"/>
      <point x="903" y="1288"/>
      <point x="809" y="1288" type="curve" smooth="yes"/>
      <point x="449" y="1288"/>
      <point x="74" y="1063"/>
    </contour>
    <contour>
      <point x="793" y="379" type="curve" smooth="yes"/>
      <point x="721" y="379"/>
      <point x="694" y="453"/>
      <point x="694" y="516" type="curve" smooth="yes"/>
      <point x="694" y="684"/>
      <point x="860" y="887"/>
      <point x="1006" y="887" type="curve" smooth="yes"/>
      <point x="1032" y="887"/>
      <point x="1059" y="881"/>
      <point x="1083" y="866" type="curve"/>
      <point x="1083" y="510" type="line"/>
      <point x="1024" y="463"/>
      <point x="918" y="379"/>
    </contour>
  </outline>
</glyph>
<glyph name="e" format="1">
  <advance width="1505"/>
  <unicode hex="0065"/>
  <outline>
    <contour>
      <point x="811" y="1241" type="move" name="top"/>
    </contour>
    <contour>
      <point x="852" y="975" type="curve"/>
      <point x="903" y="975"/>
      <point x="934" y="948"/>
      <point x="934" y="887" type="curve" smooth="yes"/>
      <point x="934" y="879"/>
      <point x="932" y="872"/>
      <point x="932" y="864" type="curve" smooth="yes"/>
      <point x="913" y="711" type="line"/>
      <point x="694" y="662" type="line"/>
      <point x="723" y="831"/>
      <point x="709" y="963"/>
    </contour>
    <contour>
      <point x="866" y="1292" type="curve" smooth="yes"/>
      <point x="457" y="1292"/>
      <point x="74" y="1047"/>
      <point x="74" y="559" type="curve" smooth="yes"/>
      <point x="74" y="168"/>
      <point x="399" y="-37"/>
      <point x="721" y="-37" type="curve" smooth="yes"/>
      <point x="981" y="-37"/>
      <point x="1237" y="20"/>
      <point x="1395" y="156" type="curve"/>
      <point x="1333" y="467" type="line"/>
      <point x="1176" y="332"/>
      <point x="973" y="301"/>
      <point x="891" y="301" type="curve" smooth="yes"/>
      <point x="799" y="301"/>
      <point x="694" y="307"/>
      <point x="694" y="434" type="curve"/>
      <point x="725" y="432"/>
      <point x="774" y="432"/>
      <point x="799" y="432" type="curve" smooth="yes"/>
      <point x="1200" y="432"/>
      <point x="1417" y="662"/>
      <point x="1417" y="885" type="curve" smooth="yes"/>
      <point x="1417" y="1090"/>
      <point x="1253" y="1292"/>
    </contour>
  </outline>
</glyph>
<glyph name="f" format="1">
  <advance width="1122"/>
  <unicode hex="0066"/>
  <outline>
    <contour>
      <point x="68" y="926" type="line"/>
      <point x="182" y="926" type="line"/>
      <point x="182" y="0" type="line"/>
      <point x="780" y="0" type="line"/>
      <point x="780" y="926" type="line"/>
      <point x="1063" y="926" type="line"/>
      <point x="1063" y="1243" type="line"/>
      <point x="780" y="1243" type="line"/>
      <point x="788" y="1346"/>
      <point x="838" y="1427"/>
      <point x="965" y="1427" type="curve" smooth="yes"/>
      <point x="993" y="1427"/>
      <point x="1024" y="1423"/>
      <point x="1061" y="1413" type="curve"/>
      <point x="1061" y="1712" type="line"/>
      <point x="948" y="1778"/>
      <point x="795" y="1815"/>
      <point x="643" y="1815" type="curve" smooth="yes"/>
      <point x="391" y="1815"/>
      <point x="182" y="1683"/>
      <point x="182" y="1454" type="curve" smooth="yes"/>
      <point x="182" y="1243" type="line"/>
      <point x="68" y="1243" type="line"/>
    </contour>
  </outline>
</glyph>
<glyph name="g" format="1">
  <advance width="1702"/>
  <unicode hex="0067"/>
  <outline>
    <contour>
      <point x="755" y="1241" type="move" name="top"/>
    </contour>
    <contour>
      <point x="1077" y="154" type="curve"/>
      <point x="1077" y="-127"/>
      <point x="948" y="-186"/>
      <point x="805" y="-186" type="curve" smooth="yes"/>
      <point x="725" y="-186"/>
      <point x="641" y="-166"/>
      <point x="573" y="-158" type="curve"/>
      <point x="573" y="-512" type="line"/>
      <point x="678" y="-539"/>
      <point x="799" y="-555"/>
      <point x="922" y="-555" type="curve" smooth="yes"/>
      <point x="1255" y="-555"/>
      <point x="1591" y="-426"/>
      <point x="1591" y="0" type="curve" smooth="yes"/>
      <point x="1591" y="1243" type="line"/>
      <point x="1264" y="1243" type="line"/>
      <point x="1120" y="1090" type="line"/>
      <point x="1038" y="1217"/>
      <point x="891" y="1290"/>
      <point x="748" y="1290" type="curve" smooth="yes"/>
      <point x="393" y="1290"/>
      <point x="74" y="1008"/>
      <point x="74" y="571" type="curve" smooth="yes"/>
      <point x="74" y="164"/>
      <point x="342" y="-37"/>
      <point x="645" y="-37" type="curve" smooth="yes"/>
      <point x="805" y="-37"/>
      <point x="961" y="27"/>
    </contour>
    <contour>
      <point x="762" y="379" type="curve" smooth="yes"/>
      <point x="690" y="379"/>
      <point x="664" y="453"/>
      <point x="664" y="516" type="curve" smooth="yes"/>
      <point x="664" y="684"/>
      <point x="829" y="887"/>
      <point x="975" y="887" type="curve" smooth="yes"/>
      <point x="1001" y="887"/>
      <point x="1028" y="881"/>
      <point x="1053" y="866" type="curve"/>
      <point x="1053" y="510" type="line"/>
      <point x="993" y="463"/>
      <point x="887" y="379"/>
    </contour>
  </outline>
</glyph>
<glyph name="h" format="1">
  <advance width="1695"/>
  <unicode hex="0068"/>
  <outline>
    <contour>
      <point x="715" y="0" type="line"/>
      <point x="715" y="776" type="line" smooth="yes"/>
      <point x="715" y="850"/>
      <point x="741" y="907"/>
      <point x="811" y="907" type="curve" smooth="yes"/>
      <point x="901" y="907"/>
      <point x="985" y="760"/>
      <point x="985" y="539" type="curve" smooth="yes"/>
      <point x="985" y="0" type="line"/>
      <point x="1583" y="0" type="line"/>
      <point x="1583" y="766" type="line" smooth="yes"/>
      <point x="1583" y="1094"/>
      <point x="1370" y="1290"/>
      <point x="1102" y="1290" type="curve" smooth="yes"/>
      <point x="950" y="1290"/>
      <point x="801" y="1225"/>
      <point x="715" y="1110" type="curve"/>
      <point x="715" y="1683" type="line"/>
      <point x="121" y="1683" type="line"/>
      <point x="121" y="0" type="line"/>
    </contour>
  </outline>
</glyph>
<glyph name="i" format="1">
  <advance width="821"/>
  <unicode hex="0069"/>
  <outline>
    <contour>
      <point x="412" y="0" type="move" name="bot"/>
    </contour>
    <contour>
      <point x="440" y="1819" type="curve" smooth="yes"/>
      <point x="217" y="1819"/>
      <point x="106" y="1677"/>
      <point x="106" y="1550" type="curve" smooth="yes"/>
      <point x="106" y="1444"/>
      <point x="180" y="1346"/>
      <point x="385" y="1346" type="curve" smooth="yes"/>
      <point x="598" y="1346"/>
      <point x="717" y="1483"/>
      <point x="717" y="1608" type="curve" smooth="yes"/>
      <point x="717" y="1718"/>
      <point x="629" y="1819"/>
    </contour>
    <contour>
      <point x="700" y="1243" type="line"/>
      <point x="121" y="1243" type="line"/>
      <point x="121" y="0" type="line"/>
      <point x="700" y="0" type="line"/>
    </contour>
  </outline>
</glyph>
<glyph name="j" format="1">
  <advance width="1016"/>
  <unicode hex="006A"/>
  <outline>
    <contour>
      <point x="31" y="-188" type="line"/>
      <point x="145" y="-279"/>
      <point x="299" y="-332"/>
      <point x="451" y="-332" type="curve" smooth="yes"/>
      <point x="702" y="-332"/>
      <point x="911" y="-168"/>
      <point x="911" y="111" type="curve" smooth="yes"/>
      <point x="911" y="1243" type="line"/>
      <point x="313" y="1243" type="line"/>
      <point x="313" y="317" type="line" smooth="yes"/>
      <point x="313" y="201"/>
      <point x="211" y="53"/>
      <point x="137" y="53" type="curve" smooth="yes"/>
      <point x="94" y="53"/>
      <point x="59" y="59"/>
      <point x="33" y="70" type="curve"/>
    </contour>
    <contour>
      <point x="639" y="1819" type="curve" smooth="yes"/>
      <point x="416" y="1819"/>
      <point x="305" y="1677"/>
      <point x="305" y="1550" type="curve" smooth="yes"/>
      <point x="305" y="1444"/>
      <point x="379" y="1346"/>
      <point x="584" y="1346" type="curve" smooth="yes"/>
      <point x="797" y="1346"/>
      <point x="915" y="1483"/>
      <point x="915" y="1608" type="curve" smooth="yes"/>
      <point x="915" y="1718"/>
      <point x="827" y="1819"/>
    </contour>
  </outline>
</glyph>
<glyph name="k" format="1">
  <advance width="1544"/>
  <unicode hex="006B"/>
  <outline>
    <contour>
      <point x="731" y="0" type="move" name="bot"/>
    </contour>
    <contour>
      <point x="123" y="1683" type="line"/>
      <point x="123" y="0" type="line"/>
      <point x="651" y="0" type="line"/>
      <point x="651" y="369" type="line"/>
      <point x="653" y="379"/>
      <point x="662" y="393"/>
      <point x="668" y="403" type="curve"/>
      <point x="918" y="0" type="line"/>
      <point x="1528" y="0" type="line"/>
      <point x="1083" y="700" type="line"/>
      <point x="1466" y="1243" type="line"/>
      <point x="877" y="1243" type="line"/>
      <point x="641" y="872" type="line"/>
      <point x="641" y="1683" type="line"/>
    </contour>
  </outline>
</glyph>
<glyph name="l" format="1">
  <advance width="811"/>
  <unicode hex="006C"/>
  <outline>
    <contour>
      <point x="412" y="1612" type="move" name="top"/>
    </contour>
    <contour>
      <point x="690" y="1683" type="line"/>
      <point x="123" y="1683" type="line"/>
      <point x="123" y="0" type="line"/>
      <point x="690" y="0" type="line"/>
    </contour>
  </outline>
</glyph>
<glyph name="m" format="1">
  <advance width="2396"/>
  <unicode hex="006D"/>
  <outline>
    <contour>
      <point x="930" y="0" type="line"/>
      <point x="1497" y="0" type="line"/>
      <point x="1497" y="791" type="line"/>
      <point x="1497" y="854"/>
      <point x="1522" y="905"/>
      <point x="1577" y="905" type="curve" smooth="yes"/>
      <point x="1634" y="905"/>
      <point x="1704" y="819"/>
      <point x="1704" y="641" type="curve" smooth="yes"/>
      <point x="1704" y="0" type="line"/>
      <point x="2284" y="0" type="line"/>
      <point x="2284" y="848" type="line" smooth="yes"/>
      <point x="2284" y="1126"/>
      <point x="2093" y="1290"/>
      <point x="1864" y="1290" type="curve" smooth="yes"/>
      <point x="1708" y="1290"/>
      <point x="1554" y="1210"/>
      <point x="1446" y="1073" type="curve"/>
      <point x="1374" y="1212"/>
      <point x="1235" y="1290"/>
      <point x="1077" y="1290" type="curve" smooth="yes"/>
      <point x="893" y="1290"/>
      <point x="694" y="1200"/>
      <point x="592" y="1049" type="curve"/>
      <point x="449" y="1243" type="line"/>
      <point x="121" y="1243" type="line"/>
      <point x="121" y="0" type="line"/>
      <point x="715" y="0" type="line"/>
      <point x="715" y="776" type="line" smooth="yes"/>
      <point x="715" y="846"/>
      <point x="735" y="905"/>
      <point x="795" y="905" type="curve" smooth="yes"/>
      <point x="852" y="905"/>
      <point x="930" y="819"/>
      <point x="930" y="641" type="curve" smooth="yes"/>
    </contour>
  </outline>
</glyph>
<glyph name="n" format="1">
  <advance width="1681"/>
  <unicode hex="006E"/>
  <outline>
    <contour>
      <point x="836" y="1243" type="move" name="top"/>
    </contour>
    <contour>
      <point x="971" y="0" type="line"/>
      <point x="1569" y="0" type="line"/>
      <point x="1569" y="848" type="line" smooth="yes"/>
      <point x="1569" y="1126"/>
      <point x="1360" y="1290"/>
      <point x="1108" y="1290" type="curve" smooth="yes"/>
      <point x="907" y="1290"/>
      <point x="702" y="1200"/>
      <point x="592" y="1049" type="curve"/>
      <point x="449" y="1243" type="line"/>
      <point x="121" y="1243" type="line"/>
      <point x="121" y="0" type="line"/>
      <point x="715" y="0" type="line"/>
      <point x="715" y="776" type="line" smooth="yes"/>
      <point x="715" y="846"/>
      <point x="735" y="905"/>
      <point x="795" y="905" type="curve" smooth="yes"/>
      <point x="903" y="905"/>
      <point x="971" y="817"/>
      <point x="971" y="600" type="curve" smooth="yes"/>
    </contour>
  </outline>
</glyph>
<glyph name="o" format="1">
  <advance width="1587"/>
  <unicode hex="006F"/>
  <outline>
    <contour>
      <point x="784" y="1241" type="move" name="top"/>
    </contour>
    <contour>
      <point x="934" y="899" type="curve" smooth="yes"/>
      <point x="1010" y="899"/>
      <point x="1038" y="840"/>
      <point x="1038" y="780" type="curve" smooth="yes"/>
      <point x="1038" y="623"/>
      <point x="838" y="367"/>
      <point x="721" y="367" type="curve" smooth="yes"/>
      <point x="631" y="367"/>
      <point x="602" y="426"/>
      <point x="602" y="485" type="curve" smooth="yes"/>
      <point x="602" y="657"/>
      <point x="795" y="899"/>
    </contour>
    <contour>
      <point x="784" y="-37" type="curve" smooth="yes"/>
      <point x="1167" y="-37"/>
      <point x="1511" y="217"/>
      <point x="1511" y="623" type="curve" smooth="yes"/>
      <point x="1511" y="1036"/>
      <point x="1192" y="1290"/>
      <point x="784" y="1290" type="curve" smooth="yes"/>
      <point x="397" y="1290"/>
      <point x="74" y="1024"/>
      <point x="74" y="627" type="curve" smooth="yes"/>
      <point x="74" y="223"/>
      <point x="426" y="-37"/>
    </contour>
  </outline>
</glyph>
<glyph name="p" format="1">
  <advance width="1645"/>
  <unicode hex="0070"/>
  <outline>
    <contour>
      <point x="1063" y="1290" type="curve" smooth="yes"/>
      <point x="924" y="1290"/>
      <point x="748" y="1223"/>
      <point x="588" y="1051" type="curve"/>
      <point x="449" y="1243" type="line"/>
      <point x="121" y="1243" type="line"/>
      <point x="121" y="-324" type="line"/>
      <point x="715" y="-324" type="line"/>
      <point x="715" y="0" type="line"/>
      <point x="1350" y="12"/>
      <point x="1569" y="467"/>
      <point x="1569" y="788" type="curve" smooth="yes"/>
      <point x="1569" y="1065"/>
      <point x="1399" y="1290"/>
    </contour>
    <contour>
      <point x="963" y="877" type="curve" smooth="yes"/>
      <point x="1042" y="877"/>
      <point x="1075" y="831"/>
      <point x="1075" y="776" type="curve" smooth="yes"/>
      <point x="1075" y="555"/>
      <point x="784" y="399"/>
      <point x="715" y="352" type="curve"/>
      <point x="715" y="639" type="line"/>
      <point x="766" y="758"/>
      <point x="874" y="877"/>
    </contour>
  </outline>
</glyph>
<glyph name="q" format="1">
  <advance width="1704"/>
  <unicode hex="0071"/>
  <outline>
    <contour>
      <point x="1583" y="1229" type="line"/>
      <point x="1348" y="1268"/>
      <point x="1149" y="1284"/>
      <point x="981" y="1284" type="curve" smooth="yes"/>
      <point x="201" y="1284"/>
      <point x="74" y="797"/>
      <point x="74" y="565" type="curve" smooth="yes"/>
      <point x="74" y="248"/>
      <point x="262" y="-37"/>
      <point x="641" y="-37" type="curve" smooth="yes"/>
      <point x="743" y="-37"/>
      <point x="920" y="8"/>
      <point x="1042" y="127" type="curve"/>
      <point x="1042" y="-326" type="line"/>
      <point x="1583" y="-326" type="line"/>
    </contour>
    <contour>
      <point x="754" y="379" type="curve" smooth="yes"/>
      <point x="682" y="379"/>
      <point x="655" y="453"/>
      <point x="655" y="516" type="curve" smooth="yes"/>
      <point x="655" y="684"/>
      <point x="821" y="887"/>
      <point x="967" y="887" type="curve" smooth="yes"/>
      <point x="993" y="887"/>
      <point x="1020" y="881"/>
      <point x="1044" y="866" type="curve"/>
      <point x="1044" y="510" type="line"/>
      <point x="985" y="463"/>
      <point x="879" y="379"/>
    </contour>
  </outline>
</glyph>
<glyph name="r" format="1">
  <advance width="1065"/>
  <unicode hex="0072"/>
  <outline>
    <contour>
      <point x="528" y="1243" type="move" name="top"/>
    </contour>
    <contour>
      <point x="520" y="0" type="move" name="bot"/>
    </contour>
    <contour>
      <point x="1010" y="1288" type="line"/>
      <point x="897" y="1276"/>
      <point x="791" y="1212"/>
      <point x="723" y="1110" type="curve"/>
      <point x="723" y="1243" type="line"/>
      <point x="121" y="1243" type="line"/>
      <point x="121" y="0" type="line"/>
      <point x="723" y="0" type="line"/>
      <point x="723" y="580" type="line" smooth="yes"/>
      <point x="723" y="659"/>
      <point x="885" y="774"/>
      <point x="1010" y="774" type="curve"/>
    </contour>
  </outline>
</glyph>
<glyph name="s" format="1">
  <advance width="1202"/>
  <unicode hex="0073"/>
  <outline>
    <contour>
      <point x="580" y="1243" type="move" name="top"/>
    </contour>
    <contour>
      <point x="585" y="0" type="move" name="bot"/>
    </contour>
    <contour>
      <point x="100" y="424" type="curve"/>
      <point x="100" y="53" type="line"/>
      <point x="100" y="53"/>
      <point x="199" y="-37"/>
      <point x="584" y="-37" type="curve" smooth="yes"/>
      <point x="907" y="-37"/>
      <point x="1118" y="102"/>
      <point x="1118" y="377" type="curve" smooth="yes"/>
      <point x="1118" y="664"/>
      <point x="954" y="726"/>
      <point x="743" y="812" type="curve" smooth="yes"/>
      <point x="674" y="840"/>
      <point x="657" y="858"/>
      <point x="657" y="879" type="curve" smooth="yes"/>
      <point x="657" y="901"/>
      <point x="678" y="922"/>
      <point x="717" y="922" type="curve" smooth="yes"/>
      <point x="817" y="922"/>
      <point x="1040" y="870"/>
      <point x="1040" y="870" type="curve"/>
      <point x="1040" y="1247" type="line"/>
      <point x="1010" y="1255"/>
      <point x="840" y="1290"/>
      <point x="659" y="1290" type="curve" smooth="yes"/>
      <point x="377" y="1290"/>
      <point x="96" y="1184"/>
      <point x="96" y="885" type="curve" smooth="yes"/>
      <point x="96" y="500"/>
      <point x="479" y="520"/>
      <point x="479" y="397" type="curve" smooth="yes"/>
      <point x="479" y="360"/>
      <point x="453" y="348"/>
      <point x="414" y="348" type="curve" smooth="yes"/>
      <point x="299" y="348"/>
      <point x="137" y="422"/>
    </contour>
  </outline>
</glyph>
<glyph name="t" format="1">
  <advance width="1124"/>
  <unicode hex="0074"/>
  <outline>
    <contour>
      <point x="918" y="1243" type="move" name="top"/>
    </contour>
    <contour>
      <point x="66" y="926" type="line"/>
      <point x="180" y="926" type="line"/>
      <point x="180" y="406" type="line" smooth="yes"/>
      <point x="180" y="127"/>
      <point x="389" y="-39"/>
      <point x="641" y="-39" type="curve" smooth="yes"/>
      <point x="793" y="-39"/>
      <point x="946" y="12"/>
      <point x="1061" y="90" type="curve"/>
      <point x="1061" y="344" type="line"/>
      <point x="846" y="344"/>
      <point x="778" y="430"/>
      <point x="778" y="612" type="curve" smooth="yes"/>
      <point x="778" y="926" type="line"/>
      <point x="1061" y="926" type="line"/>
      <point x="1061" y="1243" type="line"/>
      <point x="778" y="1243" type="line"/>
      <point x="778" y="1640" type="line"/>
      <point x="180" y="1579" type="line"/>
      <point x="180" y="1243" type="line"/>
      <point x="66" y="1243" type="line"/>
    </contour>
  </outline>
</glyph>
<glyph name="u" format="1">
  <advance width="1679"/>
  <unicode hex="0075"/>
  <outline>
    <contour>
      <point x="842" y="1241" type="move" name="top"/>
    </contour>
    <contour>
      <point x="1346" y="0" type="move" name="bot"/>
    </contour>
    <contour>
      <point x="711" y="1243" type="line"/>
      <point x="113" y="1243" type="line"/>
      <point x="113" y="395" type="line" smooth="yes"/>
      <point x="113" y="117"/>
      <point x="322" y="-47"/>
      <point x="573" y="-47" type="curve" smooth="yes"/>
      <point x="774" y="-47"/>
      <point x="979" y="43"/>
      <point x="1090" y="195" type="curve"/>
      <point x="1233" y="0" type="line"/>
      <point x="1561" y="0" type="line"/>
      <point x="1561" y="1243" type="line"/>
      <point x="967" y="1243" type="line"/>
      <point x="967" y="467" type="line" smooth="yes"/>
      <point x="967" y="389"/>
      <point x="950" y="336"/>
      <point x="870" y="336" type="curve" smooth="yes"/>
      <point x="788" y="336"/>
      <point x="711" y="408"/>
      <point x="711" y="664" type="curve" smooth="yes"/>
    </contour>
  </outline>
</glyph>
<glyph name="v" format="1">
  <advance width="1470"/>
  <unicode hex="0076"/>
  <outline>
    <contour>
      <point x="25" y="1243" type="line"/>
      <point x="670" y="2" type="line" smooth="yes"/>
      <point x="683" y="-23"/>
      <point x="718" y="-37"/>
      <point x="750" y="-37" type="curve" smooth="yes"/>
      <point x="784" y="-37"/>
      <point x="817" y="-23"/>
      <point x="829" y="2" type="curve" smooth="yes"/>
      <point x="1442" y="1243" type="line"/>
      <point x="965" y="1243" type="line"/>
      <point x="909" y="1122"/>
      <point x="850" y="999"/>
      <point x="795" y="877" type="curve"/>
      <point x="610" y="1243" type="line"/>
    </contour>
  </outline>
</glyph>
<glyph name="w" format="1">
  <advance width="2079"/>
  <unicode hex="0077"/>
  <outline>
    <contour>
      <point x="514" y="-8" type="line"/>
      <point x="680" y="-8" type="line"/>
      <point x="1063" y="510" type="line"/>
      <point x="1421" y="-8" type="line"/>
      <point x="1587" y="-8" type="line"/>
      <point x="2009" y="1243" type="line"/>
      <point x="1554" y="1243" type="line"/>
      <point x="1513" y="1112"/>
      <point x="1462" y="969"/>
      <point x="1421" y="838" type="curve"/>
      <point x="1135" y="1243" type="line"/>
      <point x="1071" y="1243" type="line"/>
      <point x="975" y="1110"/>
      <point x="862" y="963"/>
      <point x="764" y="829" type="curve"/>
      <point x="629" y="1243" type="line"/>
      <point x="69" y="1243" type="line"/>
    </contour>
  </outline>
</glyph>
<glyph name="x" format="1">
  <advance width="1530"/>
  <unicode hex="0078"/>
  <outline>
    <contour>
      <point x="657" y="1243" type="line"/>
      <point x="90" y="1243" type="line"/>
      <point x="436" y="645" type="line"/>
      <point x="100" y="0" type="line"/>
      <point x="600" y="0" type="line"/>
      <point x="715" y="283" type="line"/>
      <point x="856" y="0" type="line"/>
      <point x="1454" y="0" type="line"/>
      <point x="1053" y="655" type="line"/>
      <point x="1364" y="1243" type="line"/>
      <point x="903" y="1243" type="line"/>
      <point x="780" y="1010" type="line"/>
    </contour>
  </outline>
</glyph>
<glyph name="y" format="1">
  <advance width="1651"/>
  <unicode hex="0079"/>
  <outline>
    <contour>
      <point x="889" y="1241" type="move" name="top"/>
    </contour>
    <contour>
      <point x="1624" y="1243" type="line"/>
      <point x="1100" y="1243" type="line"/>
      <point x="899" y="762" type="line"/>
      <point x="684" y="1243" type="line"/>
      <point x="88" y="1243" type="line"/>
      <point x="602" y="197" type="line"/>
      <point x="608" y="176"/>
      <point x="612" y="158"/>
      <point x="612" y="139" type="curve" smooth="yes"/>
      <point x="612" y="61"/>
      <point x="555" y="-2"/>
      <point x="467" y="-2" type="curve" smooth="yes"/>
      <point x="379" y="-2"/>
      <point x="260" y="12"/>
      <point x="201" y="27" type="curve"/>
      <point x="201" y="-328" type="line"/>
      <point x="291" y="-365"/>
      <point x="455" y="-385"/>
      <point x="614" y="-385" type="curve" smooth="yes"/>
      <point x="903" y="-385"/>
      <point x="1048" y="-188"/>
      <point x="1157" y="82" type="curve" smooth="yes"/>
    </contour>
  </outline>
</glyph>
<glyph name="z" format="1">
  <advance width="1483"/>
  <unicode hex="007A"/>
  <outline>
    <contour>
      <point x="770" y="1243" type="move" name="top"/>
    </contour>
    <contour>
      <point x="109" y="68" type="line"/>
      <point x="109" y="0" type="line"/>
      <point x="1395" y="0" type="line"/>
      <point x="1395" y="356" type="line"/>
      <point x="911" y="356" type="line"/>
      <point x="1395" y="1151" type="line"/>
      <point x="1395" y="1243" type="line"/>
      <point x="156" y="1243" type="line"/>
      <point x="156" y="866" type="line"/>
      <point x="588" y="866" type="line"/>
    </contour>
  </outline>
</glyph>
<glyph name="braceleft" format="1">
  <advance width="1044"/>
  <unicode hex="007B"/>
  <outline>
    <contour>
      <point x="190" y="432" type="curve" smooth="yes"/>
      <point x="190" y="90"/>
      <point x="403" y="-143"/>
      <point x="924" y="-143" type="curve"/>
      <point x="924" y="238" type="line"/>
      <point x="752" y="238"/>
      <point x="750" y="379"/>
      <point x="750" y="460" type="curve" smooth="yes"/>
      <point x="750" y="598"/>
      <point x="655" y="745"/>
      <point x="510" y="784" type="curve"/>
      <point x="659" y="825"/>
      <point x="750" y="975"/>
      <point x="750" y="1114" type="curve" smooth="yes"/>
      <point x="750" y="1196"/>
      <point x="752" y="1333"/>
      <point x="924" y="1333" type="curve"/>
      <point x="924" y="1714" type="line"/>
      <point x="403" y="1714"/>
      <point x="190" y="1481"/>
      <point x="190" y="1139" type="curve" smooth="yes"/>
      <point x="190" y="1034"/>
      <point x="129" y="954"/>
      <point x="33" y="950" type="curve"/>
      <point x="33" y="621" type="line"/>
      <point x="129" y="616"/>
      <point x="190" y="537"/>
    </contour>
  </outline>
</glyph>
<glyph name="bar" format="1">
  <advance width="815"/>
  <unicode hex="007C"/>
  <outline>
    <contour>
      <point x="725" y="1802" type="line"/>
      <point x="96" y="1802" type="line"/>
      <point x="162" y="-205" type="line"/>
      <point x="647" y="-205" type="line"/>
    </contour>
  </outline>
</glyph>
<glyph name="braceright" format="1">
  <advance width="1044"/>
  <unicode hex="007D"/>
  <outline>
    <contour>
      <point x="856" y="432" type="curve" smooth="yes"/>
      <point x="856" y="537"/>
      <point x="918" y="616"/>
      <point x="1014" y="621" type="curve"/>
      <point x="1014" y="950" type="line"/>
      <point x="918" y="954"/>
      <point x="856" y="1034"/>
      <point x="856" y="1139" type="curve" smooth="yes"/>
      <point x="856" y="1481"/>
      <point x="643" y="1714"/>
      <point x="123" y="1714" type="curve"/>
      <point x="123" y="1333" type="line"/>
      <point x="295" y="1333"/>
      <point x="297" y="1196"/>
      <point x="297" y="1114" type="curve" smooth="yes"/>
      <point x="297" y="975"/>
      <point x="387" y="825"/>
      <point x="537" y="784" type="curve"/>
      <point x="387" y="744"/>
      <point x="297" y="594"/>
      <point x="297" y="459" type="curve" smooth="yes"/>
      <point x="297" y="378"/>
      <point x="295" y="238"/>
      <point x="123" y="238" type="curve"/>
      <point x="123" y="-143" type="line"/>
      <point x="643" y="-143"/>
      <point x="856" y="90"/>
    </contour>
  </outline>
</glyph>
<glyph name="asciitilde" format="1">
  <advance width="1098"/>
  <unicode hex="007E"/>
  <outline>
    <contour>
      <point x="238" y="1427" type="curve" smooth="yes"/>
      <point x="399" y="1427"/>
      <point x="614" y="1321"/>
      <point x="776" y="1321" type="curve" smooth="yes"/>
      <point x="911" y="1321"/>
      <point x="1012" y="1397"/>
      <point x="1012" y="1669" type="curve" smooth="yes"/>
      <point x="1012" y="1677"/>
      <point x="1006" y="1686"/>
      <point x="995" y="1686" type="curve" smooth="yes"/>
      <point x="973" y="1686"/>
      <point x="928" y="1624"/>
      <point x="852" y="1624" type="curve" smooth="yes"/>
      <point x="711" y="1624"/>
      <point x="494" y="1729"/>
      <point x="326" y="1729" type="curve" smooth="yes"/>
      <point x="184" y="1729"/>
      <point x="78" y="1655"/>
      <point x="78" y="1384" type="curve" smooth="yes"/>
      <point x="78" y="1376"/>
      <point x="86" y="1368"/>
      <point x="96" y="1368" type="curve" smooth="yes"/>
      <point x="117" y="1368"/>
      <point x="164" y="1427"/>
    </contour>
  </outline>
</glyph>
<glyph name="exclamdown" format="1">
  <advance width="774"/>
  <unicode hex="00A1"/>
  <outline>
    <contour>
      <point x="420" y="1083" type="curve" smooth="yes"/>
      <point x="594" y="1083"/>
      <point x="680" y="1200"/>
      <point x="680" y="1321" type="curve" smooth="yes"/>
      <point x="680" y="1456"/>
      <point x="575" y="1599"/>
      <point x="365" y="1599" type="curve" smooth="yes"/>
      <point x="184" y="1599"/>
      <point x="104" y="1487"/>
      <point x="104" y="1364" type="curve" smooth="yes"/>
      <point x="104" y="1233"/>
      <point x="223" y="1083"/>
    </contour>
    <contour>
      <point x="578" y="924" type="line"/>
      <point x="205" y="924" type="line"/>
      <point x="102" y="-37" type="line"/>
      <point x="680" y="-37" type="line"/>
    </contour>
  </outline>
</glyph>
<glyph name="cent" format="1">
  <advance width="1167"/>
  <unicode hex="00A2"/>
  <outline>
    <contour>
      <point x="623" y="-205" type="line"/>
      <point x="774" y="-205" type="line"/>
      <point x="784" y="-35" type="line"/>
      <point x="891" y="-27"/>
      <point x="991" y="-2"/>
      <point x="1085" y="33" type="curve"/>
      <point x="1085" y="561" type="line"/>
      <point x="879" y="410"/>
      <point x="819" y="401"/>
      <point x="778" y="401" type="curve" smooth="yes"/>
      <point x="707" y="401"/>
      <point x="668" y="463"/>
      <point x="668" y="569" type="curve" smooth="yes"/>
      <point x="668" y="745"/>
      <point x="815" y="842"/>
      <point x="971" y="842" type="curve" smooth="yes"/>
      <point x="1001" y="842"/>
      <point x="1034" y="838"/>
      <point x="1065" y="829" type="curve"/>
      <point x="1065" y="1249" type="line"/>
      <point x="999" y="1272"/>
      <point x="913" y="1284"/>
      <point x="848" y="1290" type="curve"/>
      <point x="858" y="1452" type="line"/>
      <point x="705" y="1452" type="line"/>
      <point x="696" y="1288" type="line"/>
      <point x="297" y="1251"/>
      <point x="29" y="979"/>
      <point x="29" y="584" type="curve" smooth="yes"/>
      <point x="29" y="213"/>
      <point x="311" y="2"/>
      <point x="631" y="-31" type="curve"/>
    </contour>
  </outline>
</glyph>
<glyph name="sterling" format="1">
  <advance width="1954"/>
  <unicode hex="00A3"/>
  <outline>
    <contour>
      <point x="1860" y="70" type="curve"/>
      <point x="1823" y="506" type="line"/>
      <point x="1759" y="475"/>
      <point x="1597" y="438"/>
      <point x="1477" y="438" type="curve" smooth="yes"/>
      <point x="1358" y="438"/>
      <point x="1243" y="477"/>
      <point x="1124" y="477" type="curve" smooth="yes"/>
      <point x="1042" y="477"/>
      <point x="952" y="461"/>
      <point x="872" y="444" type="curve"/>
      <point x="872" y="444"/>
      <point x="911" y="541"/>
      <point x="920" y="649" type="curve"/>
      <point x="1438" y="649" type="line"/>
      <point x="1438" y="967" type="line"/>
      <point x="946" y="967" type="line"/>
      <point x="946" y="1126"/>
      <point x="1044" y="1206"/>
      <point x="1174" y="1206" type="curve" smooth="yes"/>
      <point x="1257" y="1206"/>
      <point x="1335" y="1165"/>
      <point x="1362" y="1087" type="curve"/>
      <point x="1829" y="1249" type="line"/>
      <point x="1829" y="1579"/>
      <point x="1395" y="1640"/>
      <point x="1180" y="1640" type="curve" smooth="yes"/>
      <point x="727" y="1640"/>
      <point x="391" y="1464"/>
      <point x="336" y="997" type="curve" smooth="yes"/>
      <point x="332" y="967" type="line"/>
      <point x="70" y="967" type="line"/>
      <point x="70" y="649" type="line"/>
      <point x="315" y="649" type="line"/>
      <point x="315" y="557" type="line" smooth="yes"/>
      <point x="315" y="360"/>
      <point x="174" y="207"/>
      <point x="59" y="131" type="curve"/>
      <point x="178" y="-37" type="line"/>
      <point x="315" y="33"/>
      <point x="449" y="55"/>
      <point x="575" y="55" type="curve" smooth="yes"/>
      <point x="897" y="55"/>
      <point x="1141" y="-37"/>
      <point x="1405" y="-37" type="curve" smooth="yes"/>
      <point x="1546" y="-37"/>
      <point x="1692" y="-14"/>
    </contour>
  </outline>
</glyph>
<glyph name="currency" format="1">
  <advance width="1620"/>
  <unicode hex="00A4"/>
  <outline>
    <contour>
      <point x="809" y="276" type="curve" smooth="yes"/>
      <point x="958" y="276"/>
      <point x="1085" y="307"/>
      <point x="1190" y="360" type="curve"/>
      <point x="1317" y="217" type="line"/>
      <point x="1446" y="315" type="line"/>
      <point x="1325" y="451" type="line"/>
      <point x="1460" y="571"/>
      <point x="1528" y="739"/>
      <point x="1528" y="907" type="curve" smooth="yes"/>
      <point x="1528" y="1075"/>
      <point x="1460" y="1243"/>
      <point x="1323" y="1364" type="curve"/>
      <point x="1446" y="1501" type="line"/>
      <point x="1317" y="1599" type="line"/>
      <point x="1188" y="1454" type="line"/>
      <point x="1085" y="1507"/>
      <point x="958" y="1538"/>
      <point x="809" y="1538" type="curve" smooth="yes"/>
      <point x="662" y="1538"/>
      <point x="539" y="1507"/>
      <point x="436" y="1458" type="curve"/>
      <point x="313" y="1599" type="line"/>
      <point x="184" y="1501" type="line"/>
      <point x="299" y="1368" type="line"/>
      <point x="160" y="1247"/>
      <point x="90" y="1077"/>
      <point x="90" y="907" type="curve" smooth="yes"/>
      <point x="90" y="737"/>
      <point x="160" y="567"/>
      <point x="299" y="446" type="curve"/>
      <point x="184" y="315" type="line"/>
      <point x="313" y="217" type="line"/>
      <point x="436" y="356" type="line"/>
      <point x="537" y="305"/>
      <point x="662" y="276"/>
    </contour>
    <contour>
      <point x="809" y="635" type="curve" smooth="yes"/>
      <point x="668" y="635"/>
      <point x="532" y="729"/>
      <point x="532" y="915" type="curve" smooth="yes"/>
      <point x="532" y="1096"/>
      <point x="670" y="1186"/>
      <point x="809" y="1186" type="curve" smooth="yes"/>
      <point x="948" y="1186"/>
      <point x="1085" y="1096"/>
      <point x="1085" y="915" type="curve" smooth="yes"/>
      <point x="1085" y="729"/>
      <point x="950" y="635"/>
    </contour>
  </outline>
</glyph>
<glyph name="yen" format="1">
  <advance width="1739"/>
  <unicode hex="00A5"/>
  <outline>
    <contour>
      <point x="178" y="748" type="line"/>
      <point x="465" y="748" type="line"/>
      <point x="520" y="635" type="line"/>
      <point x="178" y="635" type="line"/>
      <point x="178" y="451" type="line"/>
      <point x="541" y="451" type="line"/>
      <point x="541" y="0" type="line"/>
      <point x="1188" y="0" type="line"/>
      <point x="1188" y="451" type="line"/>
      <point x="1565" y="451" type="line"/>
      <point x="1565" y="635" type="line"/>
      <point x="1208" y="635" type="line"/>
      <point x="1264" y="748" type="line"/>
      <point x="1565" y="748" type="line"/>
      <point x="1565" y="932" type="line"/>
      <point x="1356" y="932" type="line"/>
      <point x="1686" y="1597" type="line"/>
      <point x="1090" y="1597" type="line"/>
      <point x="926" y="1270" type="line"/>
      <point x="766" y="1597" type="line"/>
      <point x="53" y="1597" type="line"/>
      <point x="377" y="932" type="line"/>
      <point x="178" y="932" type="line"/>
    </contour>
  </outline>
</glyph>
<glyph name="brokenbar" format="1">
  <advance width="801"/>
  <unicode hex="00A6"/>
  <outline>
    <contour>
      <point x="127" y="918" type="line"/>
      <point x="156" y="1802" type="line"/>
      <point x="641" y="1802" type="line"/>
      <point x="676" y="918" type="line"/>
    </contour>
    <contour>
      <point x="672" y="680" type="line"/>
      <point x="707" y="-205" type="line"/>
      <point x="98" y="-205" type="line"/>
      <point x="127" y="680" type="line"/>
    </contour>
  </outline>
</glyph>
<glyph name="section" format="1">
  <advance width="1434"/>
  <unicode hex="00A7"/>
  <outline>
    <contour>
      <point x="201" y="334" type="curve"/>
      <point x="201" y="-14" type="line"/>
      <point x="283" y="-55"/>
      <point x="420" y="-82"/>
      <point x="563" y="-82" type="curve" smooth="yes"/>
      <point x="817" y="-82"/>
      <point x="1092" y="4"/>
      <point x="1092" y="254" type="curve" smooth="yes"/>
      <point x="1092" y="285"/>
      <point x="1087" y="317"/>
      <point x="1079" y="354" type="curve"/>
      <point x="1231" y="369"/>
      <point x="1372" y="563"/>
      <point x="1372" y="764" type="curve" smooth="yes"/>
      <point x="1372" y="1257"/>
      <point x="856" y="1151"/>
      <point x="856" y="1247" type="curve" smooth="yes"/>
      <point x="856" y="1286"/>
      <point x="897" y="1298"/>
      <point x="965" y="1298" type="curve" smooth="yes"/>
      <point x="1067" y="1298"/>
      <point x="1219" y="1278"/>
      <point x="1219" y="1278" type="curve"/>
      <point x="1219" y="1634" type="line"/>
      <point x="1122" y="1655"/>
      <point x="1010" y="1669"/>
      <point x="899" y="1669" type="curve" smooth="yes"/>
      <point x="627" y="1669"/>
      <point x="362" y="1581"/>
      <point x="362" y="1280" type="curve" smooth="yes"/>
      <point x="362" y="1264"/>
      <point x="362" y="1248"/>
      <point x="364" y="1233" type="curve"/>
      <point x="228" y="1218"/>
      <point x="57" y="1067"/>
      <point x="57" y="854" type="curve" smooth="yes"/>
      <point x="57" y="381"/>
      <point x="582" y="469"/>
      <point x="582" y="344" type="curve" smooth="yes"/>
      <point x="582" y="297"/>
      <point x="535" y="291"/>
      <point x="479" y="291" type="curve" smooth="yes"/>
      <point x="360" y="291"/>
      <point x="201" y="334"/>
    </contour>
    <contour>
      <point x="563" y="774" type="curve"/>
      <point x="522" y="793"/>
      <point x="469" y="807"/>
      <point x="469" y="854" type="curve" smooth="yes"/>
      <point x="469" y="897"/>
      <point x="504" y="920"/>
      <point x="563" y="920" type="curve" smooth="yes"/>
      <point x="662" y="920"/>
      <point x="870" y="844"/>
      <point x="879" y="836" type="curve"/>
      <point x="944" y="815"/>
      <point x="973" y="774"/>
      <point x="973" y="737" type="curve" smooth="yes"/>
      <point x="973" y="696"/>
      <point x="942" y="686"/>
      <point x="901" y="686" type="curve" smooth="yes"/>
      <point x="776" y="686"/>
      <point x="563" y="774"/>
    </contour>
  </outline>
</glyph>
<glyph name="dieresis" format="1">
  <advance width="1290"/>
  <unicode hex="00A8"/>
  <outline>
    <contour>
      <point x="647" y="680" type="move" name="_top"/>
    </contour>
    <contour>
      <point x="360" y="1284" type="curve" smooth="yes"/>
      <point x="195" y="1284"/>
      <point x="102" y="1165"/>
      <point x="102" y="1049" type="curve" smooth="yes"/>
      <point x="102" y="936"/>
      <point x="178" y="842"/>
      <point x="330" y="842" type="curve" smooth="yes"/>
      <point x="506" y="842"/>
      <point x="582" y="963"/>
      <point x="582" y="1083" type="curve" smooth="yes"/>
      <point x="582" y="1194"/>
      <point x="504" y="1284"/>
    </contour>
    <contour>
      <point x="965" y="1284" type="curve" smooth="yes"/>
      <point x="801" y="1284"/>
      <point x="709" y="1165"/>
      <point x="709" y="1049" type="curve" smooth="yes"/>
      <point x="709" y="936"/>
      <point x="788" y="842"/>
      <point x="938" y="842" type="curve" smooth="yes"/>
      <point x="1114" y="842"/>
      <point x="1188" y="963"/>
      <point x="1188" y="1083" type="curve" smooth="yes"/>
      <point x="1188" y="1194"/>
      <point x="1110" y="1284"/>
    </contour>
  </outline>
</glyph>
<glyph name="copyright" format="1">
  <advance width="2384"/>
  <unicode hex="00A9"/>
  <outline>
    <contour>
      <point x="1528" y="766" type="line"/>
      <point x="1358" y="641"/>
      <point x="1300" y="633"/>
      <point x="1257" y="633" type="curve" smooth="yes"/>
      <point x="1186" y="633"/>
      <point x="1149" y="688"/>
      <point x="1149" y="786" type="curve" smooth="yes"/>
      <point x="1149" y="928"/>
      <point x="1268" y="1042"/>
      <point x="1411" y="1042" type="curve" smooth="yes"/>
      <point x="1440" y="1042"/>
      <point x="1475" y="1038"/>
      <point x="1507" y="1026" type="curve"/>
      <point x="1507" y="1405" type="line"/>
      <point x="1430" y="1434"/>
      <point x="1321" y="1440"/>
      <point x="1264" y="1440" type="curve" smooth="yes"/>
      <point x="866" y="1440"/>
      <point x="590" y="1182"/>
      <point x="590" y="797" type="curve" smooth="yes"/>
      <point x="590" y="432"/>
      <point x="895" y="233"/>
      <point x="1206" y="233" type="curve" smooth="yes"/>
      <point x="1323" y="233"/>
      <point x="1430" y="254"/>
      <point x="1528" y="293" type="curve"/>
    </contour>
    <contour>
      <point x="1192" y="1710" type="curve" smooth="yes"/>
      <point x="1780" y="1710"/>
      <point x="2073" y="1298"/>
      <point x="2073" y="805" type="curve" smooth="yes"/>
      <point x="2073" y="311"/>
      <point x="1780" y="-98"/>
      <point x="1192" y="-98" type="curve" smooth="yes"/>
      <point x="606" y="-98"/>
      <point x="311" y="311"/>
      <point x="311" y="805" type="curve" smooth="yes"/>
      <point x="311" y="1298"/>
      <point x="606" y="1710"/>
    </contour>
    <contour>
      <point x="76" y="805" type="curve" smooth="yes"/>
      <point x="76" y="80"/>
      <point x="633" y="-283"/>
      <point x="1192" y="-283" type="curve" smooth="yes"/>
      <point x="1749" y="-283"/>
      <point x="2308" y="80"/>
      <point x="2308" y="805" type="curve" smooth="yes"/>
      <point x="2308" y="1530"/>
      <point x="1749" y="1892"/>
      <point x="1192" y="1892" type="curve" smooth="yes"/>
      <point x="633" y="1892"/>
      <point x="76" y="1530"/>
    </contour>
  </outline>
</glyph>
<glyph name="ordfeminine" format="1">
  <advance width="1362"/>
  <unicode hex="00AA"/>
  <outline>
    <contour>
      <point x="88" y="1114" type="curve" smooth="yes"/>
      <point x="88" y="764"/>
      <point x="287" y="580"/>
      <point x="522" y="580" type="curve" smooth="yes"/>
      <point x="655" y="580"/>
      <point x="793" y="653"/>
      <point x="868" y="774" type="curve"/>
      <point x="983" y="608" type="line"/>
      <point x="1245" y="608" type="line"/>
      <point x="1245" y="1604" type="line"/>
      <point x="983" y="1604" type="line"/>
      <point x="868" y="1448" type="line"/>
      <point x="791" y="1569"/>
      <point x="645" y="1640"/>
      <point x="506" y="1640" type="curve" smooth="yes"/>
      <point x="279" y="1640"/>
      <point x="88" y="1444"/>
    </contour>
    <contour>
      <point x="584" y="903" type="curve" smooth="yes"/>
      <point x="510" y="903"/>
      <point x="492" y="954"/>
      <point x="492" y="1006" type="curve" smooth="yes"/>
      <point x="492" y="1163"/>
      <point x="696" y="1290"/>
      <point x="815" y="1290" type="curve"/>
      <point x="815" y="1044" type="line"/>
      <point x="768" y="973"/>
      <point x="668" y="903"/>
    </contour>
  </outline>
</glyph>
<glyph name="guillemotleft" format="1">
  <advance width="1606"/>
  <unicode hex="00AB"/>
  <outline>
    <contour>
      <point x="1485" y="1446" type="line"/>
      <point x="797" y="870" type="line" smooth="yes"/>
      <point x="774" y="851"/>
      <point x="758" y="824"/>
      <point x="758" y="791" type="curve" smooth="yes"/>
      <point x="758" y="756"/>
      <point x="774" y="729"/>
      <point x="797" y="711" type="curve" smooth="yes"/>
      <point x="1485" y="160" type="line"/>
      <point x="1485" y="616" type="line"/>
      <point x="1249" y="797" type="line"/>
      <point x="1485" y="963" type="line"/>
    </contour>
    <contour>
      <point x="754" y="1446" type="line"/>
      <point x="66" y="870" type="line" smooth="yes"/>
      <point x="43" y="851"/>
      <point x="27" y="824"/>
      <point x="27" y="791" type="curve" smooth="yes"/>
      <point x="27" y="756"/>
      <point x="43" y="729"/>
      <point x="66" y="711" type="curve" smooth="yes"/>
      <point x="754" y="160" type="line"/>
      <point x="754" y="616" type="line"/>
      <point x="518" y="797" type="line"/>
      <point x="754" y="963" type="line"/>
    </contour>
  </outline>
</glyph>
<glyph name="logicalnot" format="1">
  <advance width="1219"/>
  <unicode hex="00AC"/>
  <outline>
    <contour>
      <point x="39" y="479" type="line"/>
      <point x="801" y="479" type="line"/>
      <point x="801" y="305" type="line"/>
      <point x="1098" y="305" type="line"/>
      <point x="1098" y="911" type="line"/>
      <point x="39" y="911" type="line"/>
    </contour>
  </outline>
</glyph>
<glyph name="uni00AD" format="1">
  <advance width="1036"/>
  <unicode hex="00AD"/>
  <outline>
    <contour>
      <point x="61" y="614" type="line"/>
      <point x="975" y="614" type="line"/>
      <point x="975" y="911" type="line"/>
      <point x="61" y="911" type="line"/>
    </contour>
  </outline>
</glyph>
<glyph name="registered" format="1">
  <advance width="2384"/>
  <unicode hex="00AE"/>
  <outline>
    <contour>
      <point x="1288" y="281" type="line"/>
      <point x="1845" y="281" type="line"/>
      <point x="1540" y="680" type="line"/>
      <point x="1669" y="750"/>
      <point x="1761" y="858"/>
      <point x="1761" y="1008" type="curve" smooth="yes"/>
      <point x="1761" y="1210"/>
      <point x="1573" y="1405"/>
      <point x="1247" y="1405" type="curve" smooth="yes"/>
      <point x="633" y="1405" type="line"/>
      <point x="633" y="281" type="line"/>
      <point x="1092" y="281" type="line"/>
      <point x="1092" y="575" type="line"/>
      <point x="1110" y="575" type="line"/>
    </contour>
    <contour>
      <point x="1253" y="1110" type="curve" smooth="yes"/>
      <point x="1303" y="1110"/>
      <point x="1327" y="1065"/>
      <point x="1327" y="1014" type="curve" smooth="yes"/>
      <point x="1327" y="919"/>
      <point x="1249" y="891"/>
      <point x="1178" y="844" type="curve"/>
      <point x="1090" y="795" type="line"/>
      <point x="1090" y="1047" type="line"/>
      <point x="1090" y="1047"/>
      <point x="1194" y="1110"/>
    </contour>
    <contour>
      <point x="1192" y="1710" type="curve" smooth="yes"/>
      <point x="1780" y="1710"/>
      <point x="2073" y="1298"/>
      <point x="2073" y="805" type="curve" smooth="yes"/>
      <point x="2073" y="311"/>
      <point x="1780" y="-98"/>
      <point x="1192" y="-98" type="curve" smooth="yes"/>
      <point x="606" y="-98"/>
      <point x="311" y="311"/>
      <point x="311" y="805" type="curve" smooth="yes"/>
      <point x="311" y="1298"/>
      <point x="606" y="1710"/>
    </contour>
    <contour>
      <point x="76" y="805" type="curve" smooth="yes"/>
      <point x="76" y="80"/>
      <point x="633" y="-283"/>
      <point x="1192" y="-283" type="curve" smooth="yes"/>
      <point x="1749" y="-283"/>
      <point x="2308" y="80"/>
      <point x="2308" y="805" type="curve" smooth="yes"/>
      <point x="2308" y="1530"/>
      <point x="1749" y="1892"/>
      <point x="1192" y="1892" type="curve" smooth="yes"/>
      <point x="633" y="1892"/>
      <point x="76" y="1530"/>
    </contour>
  </outline>
</glyph>
<glyph name="macron" format="1">
  <advance width="1157"/>
  <unicode hex="00AF"/>
  <outline>
    <contour>
      <point x="588" y="680" type="move" name="_top"/>
    </contour>
    <contour>
      <point x="123" y="946" type="line"/>
      <point x="1036" y="946" type="line"/>
      <point x="1036" y="1243" type="line"/>
      <point x="123" y="1243" type="line"/>
    </contour>
  </outline>
</glyph>
<glyph name="degree" format="1">
  <advance width="803"/>
  <unicode hex="00B0"/>
  <outline>
    <contour>
      <point x="401" y="1460" type="curve" smooth="yes"/>
      <point x="498" y="1460"/>
      <point x="547" y="1391"/>
      <point x="547" y="1323" type="curve" smooth="yes"/>
      <point x="547" y="1255"/>
      <point x="500" y="1188"/>
      <point x="406" y="1188" type="curve" smooth="yes"/>
      <point x="309" y="1188"/>
      <point x="260" y="1257"/>
      <point x="260" y="1327" type="curve" smooth="yes"/>
      <point x="260" y="1393"/>
      <point x="307" y="1460"/>
    </contour>
    <contour>
      <point x="78" y="1325" type="curve" smooth="yes"/>
      <point x="78" y="1112"/>
      <point x="240" y="1006"/>
      <point x="403" y="1006" type="curve" smooth="yes"/>
      <point x="565" y="1006"/>
      <point x="727" y="1112"/>
      <point x="727" y="1325" type="curve" smooth="yes"/>
      <point x="727" y="1534"/>
      <point x="563" y="1640"/>
      <point x="401" y="1640" type="curve" smooth="yes"/>
      <point x="240" y="1640"/>
      <point x="78" y="1536"/>
    </contour>
  </outline>
</glyph>
<glyph name="plusminus" format="1">
  <advance width="936"/>
  <unicode hex="00B1"/>
  <outline>
    <contour>
      <point x="59" y="979" type="line"/>
      <point x="59" y="684" type="line"/>
      <point x="322" y="684" type="line"/>
      <point x="322" y="424" type="line"/>
      <point x="616" y="424" type="line"/>
      <point x="616" y="684" type="line"/>
      <point x="877" y="684" type="line"/>
      <point x="877" y="979" type="line"/>
      <point x="616" y="979" type="line"/>
      <point x="616" y="1241" type="line"/>
      <point x="322" y="1241" type="line"/>
      <point x="322" y="979" type="line"/>
    </contour>
    <contour>
      <point x="102" y="0" type="line"/>
      <point x="831" y="0" type="line"/>
      <point x="831" y="238" type="line"/>
      <point x="102" y="238" type="line"/>
    </contour>
  </outline>
</glyph>
<glyph name="twosuperior" format="1">
  <advance width="1413"/>
  <unicode hex="00B2"/>
  <outline>
    <contour>
      <point x="166" y="0" type="line"/>
      <point x="1313" y="0" type="line"/>
      <point x="1313" y="383" type="line"/>
      <point x="907" y="383" type="line"/>
      <point x="1075" y="512"/>
      <point x="1305" y="653"/>
      <point x="1305" y="895" type="curve" smooth="yes"/>
      <point x="1305" y="1176"/>
      <point x="1049" y="1313"/>
      <point x="762" y="1313" type="curve" smooth="yes"/>
      <point x="494" y="1313"/>
      <point x="201" y="1194"/>
      <point x="68" y="971" type="curve"/>
      <point x="256" y="700" type="line"/>
      <point x="387" y="840"/>
      <point x="535" y="920"/>
      <point x="633" y="920" type="curve" smooth="yes"/>
      <point x="707" y="920"/>
      <point x="750" y="872"/>
      <point x="750" y="811" type="curve" smooth="yes"/>
      <point x="750" y="758"/>
      <point x="718" y="695"/>
      <point x="651" y="639" type="curve" smooth="yes"/>
      <point x="166" y="231" type="line"/>
    </contour>
  </outline>
</glyph>
<glyph name="threesuperior" format="1">
  <advance width="1518"/>
  <unicode hex="00B3"/>
  <outline>
    <contour>
      <point x="1425" y="420" type="curve" smooth="yes"/>
      <point x="1425" y="686"/>
      <point x="1231" y="791"/>
      <point x="985" y="821" type="curve"/>
      <point x="1397" y="1135" type="line"/>
      <point x="1397" y="1278" type="line"/>
      <point x="164" y="1278" type="line"/>
      <point x="164" y="930" type="line"/>
      <point x="647" y="930" type="line"/>
      <point x="453" y="795" type="line"/>
      <point x="444" y="791"/>
      <point x="428" y="772"/>
      <point x="428" y="770" type="curve"/>
      <point x="526" y="602" type="line"/>
      <point x="537" y="602" type="line" smooth="yes"/>
      <point x="550" y="603"/>
      <point x="571" y="605"/>
      <point x="593" y="605" type="curve" smooth="yes"/>
      <point x="700" y="605"/>
      <point x="879" y="584"/>
      <point x="879" y="455" type="curve" smooth="yes"/>
      <point x="879" y="391"/>
      <point x="825" y="344"/>
      <point x="717" y="344" type="curve" smooth="yes"/>
      <point x="555" y="344"/>
      <point x="391" y="399"/>
      <point x="270" y="479" type="curve"/>
      <point x="80" y="170" type="line"/>
      <point x="291" y="4"/>
      <point x="578" y="-29"/>
      <point x="764" y="-29" type="curve" smooth="yes"/>
      <point x="1065" y="-29"/>
      <point x="1425" y="57"/>
    </contour>
  </outline>
</glyph>
<glyph name="acute" format="1">
  <advance width="625"/>
  <unicode hex="00B4"/>
  <outline>
    <contour>
      <point x="70" y="680" type="move" name="_top"/>
    </contour>
    <contour>
      <point x="184" y="1477" type="line"/>
      <point x="41" y="978" type="line" smooth="yes"/>
      <point x="35" y="957"/>
      <point x="33" y="939"/>
      <point x="33" y="924" type="curve" smooth="yes"/>
      <point x="33" y="890"/>
      <point x="47" y="869"/>
      <point x="70" y="869" type="curve" smooth="yes"/>
      <point x="94" y="869"/>
      <point x="125" y="893"/>
      <point x="162" y="939" type="curve" smooth="yes"/>
      <point x="592" y="1477" type="line"/>
    </contour>
  </outline>
</glyph>
<glyph name="mu" format="1">
  <advance width="1649"/>
  <unicode hex="00B5"/>
  <outline>
    <contour>
      <point x="123" y="-233" type="line"/>
      <point x="721" y="-233" type="line"/>
      <point x="721" y="27" type="line"/>
      <point x="766" y="8"/>
      <point x="809" y="0"/>
      <point x="848" y="0" type="curve" smooth="yes"/>
      <point x="954" y="0"/>
      <point x="1049" y="55"/>
      <point x="1100" y="195" type="curve"/>
      <point x="1243" y="0" type="line"/>
      <point x="1571" y="0" type="line"/>
      <point x="1571" y="1243" type="line"/>
      <point x="977" y="1243" type="line"/>
      <point x="977" y="467" type="line"/>
      <point x="948" y="365"/>
      <point x="887" y="322"/>
      <point x="829" y="322" type="curve" smooth="yes"/>
      <point x="772" y="322"/>
      <point x="721" y="367"/>
      <point x="721" y="438" type="curve" smooth="yes"/>
      <point x="721" y="1243" type="line"/>
      <point x="123" y="1243" type="line"/>
    </contour>
  </outline>
</glyph>
<glyph name="paragraph" format="1">
  <advance width="1751"/>
  <unicode hex="00B6"/>
  <outline>
    <contour>
      <point x="1628" y="1597" type="line"/>
      <point x="539" y="1597" type="line" smooth="yes"/>
      <point x="213" y="1597"/>
      <point x="39" y="1362"/>
      <point x="39" y="1116" type="curve" smooth="yes"/>
      <point x="39" y="727"/>
      <point x="317" y="449"/>
      <point x="707" y="449" type="curve" smooth="yes"/>
      <point x="754" y="449"/>
      <point x="803" y="453"/>
      <point x="864" y="453" type="curve"/>
      <point x="864" y="0" type="line"/>
      <point x="1192" y="0" type="line"/>
      <point x="1192" y="1292" type="line"/>
      <point x="1307" y="1292" type="line"/>
      <point x="1307" y="0" type="line"/>
      <point x="1628" y="0" type="line"/>
    </contour>
  </outline>
</glyph>
<glyph name="periodcentered" format="1">
  <advance width="760"/>
  <unicode hex="00B7"/>
  <outline>
    <contour>
      <point x="410" y="1241" type="curve" smooth="yes"/>
      <point x="201" y="1241"/>
      <point x="76" y="1073"/>
      <point x="76" y="924" type="curve" smooth="yes"/>
      <point x="76" y="782"/>
      <point x="160" y="653"/>
      <point x="350" y="653" type="curve" smooth="yes"/>
      <point x="573" y="653"/>
      <point x="684" y="815"/>
      <point x="684" y="969" type="curve" smooth="yes"/>
      <point x="684" y="1108"/>
      <point x="592" y="1241"/>
    </contour>
  </outline>
</glyph>
<glyph name="cedilla" format="1">
  <advance width="709"/>
  <unicode hex="00B8"/>
  <outline>
    <contour>
      <point x="362" y="0" type="move" name="_bot"/>
    </contour>
    <contour>
      <point x="59" y="-545" type="curve"/>
      <point x="135" y="-596"/>
      <point x="252" y="-631"/>
      <point x="362" y="-631" type="curve" smooth="yes"/>
      <point x="514" y="-631"/>
      <point x="657" y="-563"/>
      <point x="657" y="-403" type="curve" smooth="yes"/>
      <point x="657" y="-218"/>
      <point x="485" y="-200"/>
      <point x="401" y="-192" type="curve" smooth="yes"/>
      <point x="379" y="-190" type="line"/>
      <point x="440" y="0" type="line"/>
      <point x="303" y="0" type="line"/>
      <point x="303" y="0"/>
      <point x="208" y="-322"/>
      <point x="209" y="-328" type="curve"/>
      <point x="297" y="-328"/>
      <point x="385" y="-360"/>
      <point x="385" y="-420" type="curve" smooth="yes"/>
      <point x="385" y="-469"/>
      <point x="332" y="-485"/>
      <point x="295" y="-485" type="curve" smooth="yes"/>
      <point x="190" y="-485"/>
      <point x="98" y="-422"/>
      <point x="80" y="-422" type="curve" smooth="yes"/>
      <point x="49" y="-422"/>
      <point x="20" y="-451"/>
      <point x="20" y="-483" type="curve" smooth="yes"/>
      <point x="20" y="-502"/>
      <point x="33" y="-524"/>
    </contour>
  </outline>
</glyph>
<glyph name="onesuperior" format="1">
  <advance width="952"/>
  <unicode hex="00B9"/>
  <outline>
    <contour>
      <point x="303" y="0" type="line"/>
      <point x="831" y="0" type="line"/>
      <point x="831" y="1278" type="line"/>
      <point x="684" y="1278" type="line"/>
      <point x="20" y="973" type="line"/>
      <point x="20" y="586" type="line"/>
      <point x="303" y="688" type="line"/>
    </contour>
  </outline>
</glyph>
<glyph name="ordmasculine" format="1">
  <advance width="1303"/>
  <unicode hex="00BA"/>
  <outline>
    <contour>
      <point x="723" y="1325" type="curve" smooth="yes"/>
      <point x="786" y="1325"/>
      <point x="813" y="1284"/>
      <point x="813" y="1229" type="curve" smooth="yes"/>
      <point x="813" y="1106"/>
      <point x="694" y="913"/>
      <point x="612" y="913" type="curve" smooth="yes"/>
      <point x="543" y="913"/>
      <point x="520" y="956"/>
      <point x="520" y="1014" type="curve" smooth="yes"/>
      <point x="520" y="1137"/>
      <point x="639" y="1325"/>
    </contour>
    <contour>
      <point x="645" y="580" type="curve" smooth="yes"/>
      <point x="950" y="580"/>
      <point x="1227" y="782"/>
      <point x="1227" y="1106" type="curve" smooth="yes"/>
      <point x="1227" y="1438"/>
      <point x="971" y="1640"/>
      <point x="645" y="1640" type="curve" smooth="yes"/>
      <point x="336" y="1640"/>
      <point x="76" y="1427"/>
      <point x="76" y="1110" type="curve" smooth="yes"/>
      <point x="76" y="786"/>
      <point x="358" y="580"/>
    </contour>
  </outline>
</glyph>
<glyph name="guillemotright" format="1">
  <advance width="1608"/>
  <unicode hex="00BB"/>
  <outline>
    <contour>
      <point x="123" y="160" type="line"/>
      <point x="811" y="735" type="line" smooth="yes"/>
      <point x="834" y="754"/>
      <point x="850" y="782"/>
      <point x="850" y="815" type="curve" smooth="yes"/>
      <point x="850" y="850"/>
      <point x="834" y="877"/>
      <point x="811" y="895" type="curve" smooth="yes"/>
      <point x="123" y="1446" type="line"/>
      <point x="123" y="989" type="line"/>
      <point x="358" y="809" type="line"/>
      <point x="123" y="643" type="line"/>
    </contour>
    <contour>
      <point x="854" y="160" type="line"/>
      <point x="1542" y="735" type="line" smooth="yes"/>
      <point x="1565" y="754"/>
      <point x="1581" y="782"/>
      <point x="1581" y="815" type="curve" smooth="yes"/>
      <point x="1581" y="850"/>
      <point x="1565" y="877"/>
      <point x="1542" y="895" type="curve" smooth="yes"/>
      <point x="854" y="1446" type="line"/>
      <point x="854" y="989" type="line"/>
      <point x="1090" y="809" type="line"/>
      <point x="854" y="643" type="line"/>
    </contour>
  </outline>
</glyph>
<glyph name="AE" format="1">
  <advance width="2439"/>
  <unicode hex="00C6"/>
  <outline>
    <contour>
      <point x="23" y="0" type="line"/>
      <point x="674" y="0" type="line"/>
      <point x="745" y="123" type="line"/>
      <point x="1153" y="123" type="line"/>
      <point x="1153" y="0" type="line"/>
      <point x="2380" y="0" type="line"/>
      <point x="2380" y="444" type="line"/>
      <point x="1825" y="444" type="line"/>
      <point x="1825" y="618" type="line"/>
      <point x="2349" y="618" type="line"/>
      <point x="2349" y="1001" type="line"/>
      <point x="1825" y="1001" type="line"/>
      <point x="1825" y="1155" type="line"/>
      <point x="2349" y="1155" type="line"/>
      <point x="2349" y="1597" type="line"/>
      <point x="1114" y="1597" type="line"/>
    </contour>
    <contour>
      <point x="1153" y="494" type="line"/>
      <point x="930" y="494" type="line"/>
      <point x="1153" y="920" type="line"/>
    </contour>
  </outline>
</glyph>
<glyph name="Eth" format="1">
  <advance width="1812"/>
  <unicode hex="00D0"/>
  <outline>
    <contour>
      <point x="123" y="0" type="line"/>
      <point x="889" y="0" type="line" smooth="yes"/>
      <point x="1370" y="0"/>
      <point x="1735" y="295"/>
      <point x="1735" y="797" type="curve" smooth="yes"/>
      <point x="1735" y="1200"/>
      <point x="1493" y="1642"/>
      <point x="971" y="1642" type="curve" smooth="yes"/>
      <point x="688" y="1642"/>
      <point x="123" y="1597"/>
      <point x="123" y="1597" type="curve"/>
      <point x="123" y="983" type="line"/>
      <point x="49" y="983" type="line"/>
      <point x="49" y="748" type="line"/>
      <point x="123" y="748" type="line"/>
    </contour>
    <contour>
      <point x="745" y="1090" type="line"/>
      <point x="784" y="1135"/>
      <point x="840" y="1174"/>
      <point x="901" y="1174" type="curve" smooth="yes"/>
      <point x="1028" y="1174"/>
      <point x="1098" y="1038"/>
      <point x="1098" y="928" type="curve" smooth="yes"/>
      <point x="1098" y="707"/>
      <point x="887" y="602"/>
      <point x="745" y="481" type="curve"/>
      <point x="745" y="748" type="line"/>
      <point x="922" y="748" type="line"/>
      <point x="922" y="983" type="line"/>
      <point x="745" y="983" type="line"/>
    </contour>
  </outline>
</glyph>
<glyph name="multiply" format="1">
  <advance width="1171"/>
  <unicode hex="00D7"/>
  <outline>
    <contour>
      <point x="66" y="389" type="line"/>
      <point x="326" y="129" type="line"/>
      <point x="588" y="389" type="line"/>
      <point x="846" y="131" type="line"/>
      <point x="1108" y="391" type="line"/>
      <point x="848" y="651" type="line"/>
      <point x="1108" y="909" type="line"/>
      <point x="846" y="1171" type="line"/>
      <point x="588" y="911" type="line"/>
      <point x="326" y="1171" type="line"/>
      <point x="66" y="911" type="line"/>
      <point x="326" y="651" type="line"/>
    </contour>
  </outline>
</glyph>
<glyph name="Oslash" format="1">
  <advance width="1858"/>
  <unicode hex="00D8"/>
  <outline>
    <contour>
      <point x="950" y="-39" type="curve" smooth="yes"/>
      <point x="1430" y="-39"/>
      <point x="1855" y="285"/>
      <point x="1855" y="797" type="curve" smooth="yes"/>
      <point x="1855" y="1178"/>
      <point x="1649" y="1448"/>
      <point x="1343" y="1571" type="curve"/>
      <point x="1405" y="1763" type="line"/>
      <point x="1262" y="1804" type="line"/>
      <point x="1200" y="1614" type="line"/>
      <point x="1120" y="1632"/>
      <point x="1036" y="1642"/>
      <point x="950" y="1642" type="curve" smooth="yes"/>
      <point x="467" y="1642"/>
      <point x="63" y="1307"/>
      <point x="63" y="805" type="curve" smooth="yes"/>
      <point x="63" y="422"/>
      <point x="305" y="139"/>
      <point x="616" y="20" type="curve"/>
      <point x="551" y="-184" type="line"/>
      <point x="694" y="-225" type="line"/>
      <point x="762" y="-18" type="line"/>
      <point x="823" y="-31"/>
      <point x="887" y="-39"/>
    </contour>
    <contour>
      <point x="1065" y="1159" type="curve" smooth="yes"/>
      <point x="1182" y="1159"/>
      <point x="1227" y="1090"/>
      <point x="1227" y="997" type="curve" smooth="yes"/>
      <point x="1227" y="797"/>
      <point x="1022" y="481"/>
      <point x="881" y="481" type="curve" smooth="yes"/>
      <point x="760" y="481"/>
      <point x="713" y="551"/>
      <point x="713" y="647" type="curve" smooth="yes"/>
      <point x="713" y="848"/>
      <point x="920" y="1159"/>
    </contour>
  </outline>
</glyph>
<glyph name="Thorn" format="1">
  <advance width="1661"/>
  <unicode hex="00DE"/>
  <outline>
    <contour>
      <point x="61" y="0" type="line"/>
      <point x="715" y="0" type="line"/>
      <point x="715" y="207" type="line"/>
      <point x="1311" y="221"/>
      <point x="1628" y="539"/>
      <point x="1628" y="1020" type="curve" smooth="yes"/>
      <point x="1628" y="1296"/>
      <point x="1475" y="1536"/>
      <point x="1102" y="1536" type="curve" smooth="yes"/>
      <point x="995" y="1536"/>
      <point x="866" y="1516"/>
      <point x="715" y="1468" type="curve"/>
      <point x="715" y="1599" type="line"/>
      <point x="61" y="1599" type="line"/>
    </contour>
    <contour>
      <point x="948" y="1116" type="curve" smooth="yes"/>
      <point x="1016" y="1116"/>
      <point x="1055" y="1065"/>
      <point x="1055" y="999" type="curve" smooth="yes"/>
      <point x="1055" y="854"/>
      <point x="950" y="764"/>
      <point x="821" y="702" type="curve" smooth="yes"/>
      <point x="711" y="649" type="line"/>
      <point x="711" y="1006" type="line"/>
      <point x="711" y="1006"/>
      <point x="860" y="1116"/>
    </contour>
  </outline>
</glyph>
<glyph name="germandbls" format="1">
  <advance width="1806"/>
  <unicode hex="00DF"/>
  <outline>
    <contour>
      <point x="55" y="-55" type="line"/>
      <point x="680" y="-55" type="line"/>
      <point x="680" y="1112" type="line" smooth="yes"/>
      <point x="680" y="1135"/>
      <point x="809" y="1233"/>
      <point x="887" y="1233" type="curve" smooth="yes"/>
      <point x="928" y="1233"/>
      <point x="975" y="1206"/>
      <point x="975" y="1147" type="curve" smooth="yes"/>
      <point x="975" y="1042"/>
      <point x="874" y="979"/>
      <point x="817" y="950" type="curve"/>
      <point x="817" y="725" type="line"/>
      <point x="860" y="735"/>
      <point x="918" y="758"/>
      <point x="961" y="758" type="curve" smooth="yes"/>
      <point x="1012" y="758"/>
      <point x="1053" y="733"/>
      <point x="1053" y="641" type="curve" smooth="yes"/>
      <point x="1053" y="487"/>
      <point x="924" y="434"/>
      <point x="817" y="373" type="curve"/>
      <point x="817" y="-57" type="line"/>
      <point x="827" y="-59"/>
      <point x="842" y="-59"/>
      <point x="846" y="-59" type="curve" smooth="yes"/>
      <point x="1212" y="-59"/>
      <point x="1761" y="-16"/>
      <point x="1761" y="487" type="curve" smooth="yes"/>
      <point x="1761" y="817"/>
      <point x="1583" y="881"/>
      <point x="1407" y="936" type="curve"/>
      <point x="1552" y="1004"/>
      <point x="1640" y="1071"/>
      <point x="1640" y="1219" type="curve" smooth="yes"/>
      <point x="1640" y="1458"/>
      <point x="1337" y="1595"/>
      <point x="975" y="1595" type="curve" smooth="yes"/>
      <point x="522" y="1595"/>
      <point x="55" y="1430"/>
      <point x="55" y="989" type="curve" smooth="yes"/>
    </contour>
  </outline>
</glyph>
<glyph name="ae" format="1">
  <advance width="2468"/>
  <unicode hex="00E6"/>
  <outline>
    <contour>
      <point x="1815" y="1292" type="curve" smooth="yes"/>
      <point x="1620" y="1292"/>
      <point x="1432" y="1237"/>
      <point x="1288" y="1126" type="curve"/>
      <point x="1188" y="1239"/>
      <point x="928" y="1290"/>
      <point x="836" y="1290" type="curve" smooth="yes"/>
      <point x="440" y="1290"/>
      <point x="74" y="1001"/>
      <point x="74" y="565" type="curve" smooth="yes"/>
      <point x="74" y="156"/>
      <point x="348" y="-37"/>
      <point x="651" y="-37" type="curve" smooth="yes"/>
      <point x="778" y="-37"/>
      <point x="936" y="0"/>
      <point x="1159" y="176" type="curve"/>
      <point x="1284" y="35"/>
      <point x="1477" y="-37"/>
      <point x="1669" y="-37" type="curve" smooth="yes"/>
      <point x="1929" y="-37"/>
      <point x="2185" y="20"/>
      <point x="2343" y="156" type="curve"/>
      <point x="2281" y="467" type="line"/>
      <point x="2124" y="332"/>
      <point x="1921" y="301"/>
      <point x="1839" y="301" type="curve" smooth="yes"/>
      <point x="1747" y="301"/>
      <point x="1642" y="307"/>
      <point x="1642" y="434" type="curve"/>
      <point x="1673" y="432"/>
      <point x="1722" y="432"/>
      <point x="1747" y="432" type="curve" smooth="yes"/>
      <point x="2148" y="432"/>
      <point x="2365" y="662"/>
      <point x="2365" y="885" type="curve" smooth="yes"/>
      <point x="2365" y="1090"/>
      <point x="2202" y="1292"/>
    </contour>
    <contour>
      <point x="629" y="516" type="curve" smooth="yes"/>
      <point x="629" y="678"/>
      <point x="788" y="887"/>
      <point x="939" y="887" type="curve" smooth="yes"/>
      <point x="966" y="887"/>
      <point x="993" y="881"/>
      <point x="1018" y="866" type="curve"/>
      <point x="1018" y="512" type="line"/>
      <point x="905" y="416"/>
      <point x="793" y="379"/>
      <point x="727" y="379" type="curve" smooth="yes"/>
      <point x="657" y="379"/>
      <point x="629" y="451"/>
    </contour>
    <contour>
      <point x="1800" y="975" type="curve"/>
      <point x="1851" y="975"/>
      <point x="1882" y="948"/>
      <point x="1882" y="887" type="curve" smooth="yes"/>
      <point x="1882" y="879"/>
      <point x="1880" y="872"/>
      <point x="1880" y="864" type="curve"/>
      <point x="1862" y="711" type="line"/>
      <point x="1642" y="662" type="line"/>
      <point x="1671" y="831"/>
      <point x="1657" y="963"/>
    </contour>
  </outline>
</glyph>
<glyph name="eth" format="1">
  <advance width="1663"/>
  <unicode hex="00F0"/>
  <outline>
    <contour>
      <point x="760" y="1063" type="line"/>
      <point x="813" y="1245" type="line"/>
      <point x="938" y="1200"/>
      <point x="1028" y="1104"/>
      <point x="1028" y="928" type="curve"/>
      <point x="923" y="963"/>
      <point x="802" y="983"/>
      <point x="681" y="983" type="curve" smooth="yes"/>
      <point x="381" y="983"/>
      <point x="74" y="856"/>
      <point x="74" y="506" type="curve" smooth="yes"/>
      <point x="74" y="80"/>
      <point x="457" y="-37"/>
      <point x="766" y="-37" type="curve" smooth="yes"/>
      <point x="1186" y="-37"/>
      <point x="1587" y="188"/>
      <point x="1587" y="727" type="curve" smooth="yes"/>
      <point x="1587" y="1182"/>
      <point x="1298" y="1489"/>
      <point x="911" y="1573" type="curve"/>
      <point x="983" y="1815" type="line"/>
      <point x="776" y="1855" type="line"/>
      <point x="698" y="1597" type="line"/>
      <point x="688" y="1597" type="line" smooth="yes"/>
      <point x="516" y="1597"/>
      <point x="395" y="1577"/>
      <point x="207" y="1532" type="curve"/>
      <point x="264" y="1229" type="line"/>
      <point x="359" y="1257"/>
      <point x="482" y="1278"/>
      <point x="602" y="1278" type="curve"/>
      <point x="551" y="1104" type="line"/>
    </contour>
    <contour>
      <point x="731" y="289" type="curve" smooth="yes"/>
      <point x="659" y="289"/>
      <point x="633" y="362"/>
      <point x="633" y="426" type="curve" smooth="yes"/>
      <point x="633" y="557"/>
      <point x="799" y="715"/>
      <point x="944" y="715" type="curve" smooth="yes"/>
      <point x="971" y="715"/>
      <point x="997" y="715"/>
      <point x="1022" y="694" type="curve"/>
      <point x="1022" y="420" type="line"/>
      <point x="963" y="373"/>
      <point x="856" y="289"/>
    </contour>
  </outline>
</glyph>
<glyph name="oslash" format="1">
  <advance width="1587"/>
  <unicode hex="00F8"/>
  <outline>
    <contour>
      <point x="784" y="-37" type="curve" smooth="yes"/>
      <point x="1167" y="-37"/>
      <point x="1511" y="217"/>
      <point x="1511" y="623" type="curve" smooth="yes"/>
      <point x="1511" y="901"/>
      <point x="1366" y="1108"/>
      <point x="1147" y="1212" type="curve"/>
      <point x="1217" y="1399" type="line"/>
      <point x="1053" y="1454" type="line"/>
      <point x="981" y="1270" type="line"/>
      <point x="918" y="1282"/>
      <point x="852" y="1290"/>
      <point x="784" y="1290" type="curve" smooth="yes"/>
      <point x="397" y="1290"/>
      <point x="74" y="1024"/>
      <point x="74" y="627" type="curve" smooth="yes"/>
      <point x="74" y="334"/>
      <point x="258" y="117"/>
      <point x="496" y="18" type="curve"/>
      <point x="438" y="-129" type="line"/>
      <point x="602" y="-184" type="line"/>
      <point x="664" y="-27" type="line"/>
      <point x="705" y="-33"/>
      <point x="743" y="-37"/>
    </contour>
    <contour>
      <point x="934" y="899" type="curve" smooth="yes"/>
      <point x="1010" y="899"/>
      <point x="1038" y="840"/>
      <point x="1038" y="780" type="curve" smooth="yes"/>
      <point x="1038" y="623"/>
      <point x="838" y="367"/>
      <point x="721" y="367" type="curve" smooth="yes"/>
      <point x="631" y="367"/>
      <point x="602" y="426"/>
      <point x="602" y="485" type="curve" smooth="yes"/>
      <point x="602" y="657"/>
      <point x="795" y="899"/>
    </contour>
  </outline>
</glyph>
<glyph name="thorn" format="1">
  <advance width="1722"/>
  <unicode hex="00FE"/>
  <outline>
    <contour>
      <point x="102" y="-354" type="line"/>
      <point x="680" y="-354" type="line"/>
      <point x="680" y="-39" type="line"/>
      <point x="745" y="-39" type="line" smooth="yes"/>
      <point x="1440" y="-39"/>
      <point x="1636" y="432"/>
      <point x="1636" y="657" type="curve" smooth="yes"/>
      <point x="1636" y="975"/>
      <point x="1450" y="1260"/>
      <point x="1085" y="1260" type="curve" smooth="yes"/>
      <point x="983" y="1260"/>
      <point x="807" y="1214"/>
      <point x="684" y="1096" type="curve"/>
      <point x="684" y="1597" type="line"/>
      <point x="102" y="1597" type="line"/>
    </contour>
    <contour>
      <point x="973" y="844" type="curve" smooth="yes"/>
      <point x="1044" y="844"/>
      <point x="1071" y="770"/>
      <point x="1071" y="707" type="curve" smooth="yes"/>
      <point x="1071" y="539"/>
      <point x="915" y="336"/>
      <point x="780" y="336" type="curve" smooth="yes"/>
      <point x="682" y="336" type="line"/>
      <point x="682" y="713" type="line"/>
      <point x="741" y="760"/>
      <point x="848" y="844"/>
    </contour>
  </outline>
</glyph>
<glyph name="hbar" format="1">
  <advance width="1649"/>
  <unicode hex="0127"/>
  <outline>
    <contour>
      <point x="-10" y="1336" type="line"/>
      <point x="146" y="1336" type="line"/>
      <point x="146" y="0" type="line"/>
      <point x="740" y="0" type="line"/>
      <point x="740" y="776" type="line" smooth="yes"/>
      <point x="740" y="850"/>
      <point x="766" y="907"/>
      <point x="836" y="907" type="curve" smooth="yes"/>
      <point x="926" y="907"/>
      <point x="1010" y="760"/>
      <point x="1010" y="539" type="curve" smooth="yes"/>
      <point x="1010" y="0" type="line"/>
      <point x="1608" y="0" type="line"/>
      <point x="1608" y="766" type="line" smooth="yes"/>
      <point x="1608" y="1094"/>
      <point x="1395" y="1290"/>
      <point x="1127" y="1290" type="curve" smooth="yes"/>
      <point x="975" y="1290"/>
      <point x="826" y="1225"/>
      <point x="740" y="1110" type="curve"/>
      <point x="740" y="1336" type="line"/>
      <point x="903" y="1336" type="line"/>
      <point x="903" y="1539" type="line"/>
      <point x="740" y="1539" type="line"/>
      <point x="740" y="1683" type="line"/>
      <point x="146" y="1683" type="line"/>
      <point x="146" y="1539" type="line"/>
      <point x="-10" y="1539" type="line"/>
    </contour>
  </outline>
</glyph>
<glyph name="dotlessi" format="1">
  <advance width="700"/>
  <unicode hex="0131"/>
  <outline>
    <contour>
      <point x="354" y="1243" type="move" name="top"/>
    </contour>
    <contour>
      <point x="639" y="1243" type="line"/>
      <point x="61" y="1243" type="line"/>
      <point x="61" y="0" type="line"/>
      <point x="639" y="0" type="line"/>
    </contour>
  </outline>
</glyph>
<glyph name="ij" format="1">
  <advance width="1721"/>
  <unicode hex="0133"/>
  <outline>
    <contour>
      <point x="736" y="-258" type="line"/>
      <point x="850" y="-349"/>
      <point x="1004" y="-402"/>
      <point x="1156" y="-402" type="curve" smooth="yes"/>
      <point x="1407" y="-402"/>
      <point x="1616" y="-238"/>
      <point x="1616" y="41" type="curve" smooth="yes"/>
      <point x="1616" y="1243" type="line"/>
      <point x="1018" y="1243" type="line"/>
      <point x="1018" y="177" type="line" smooth="yes"/>
      <point x="1018" y="61"/>
      <point x="916" y="-87"/>
      <point x="842" y="-87" type="curve" smooth="yes"/>
      <point x="799" y="-87"/>
      <point x="764" y="-81"/>
      <point x="738" y="-70" type="curve"/>
    </contour>
    <contour>
      <point x="1344" y="1819" type="curve" smooth="yes"/>
      <point x="1121" y="1819"/>
      <point x="1010" y="1677"/>
      <point x="1010" y="1550" type="curve" smooth="yes"/>
      <point x="1010" y="1444"/>
      <point x="1084" y="1346"/>
      <point x="1289" y="1346" type="curve" smooth="yes"/>
      <point x="1502" y="1346"/>
      <point x="1620" y="1483"/>
      <point x="1620" y="1608" type="curve" smooth="yes"/>
      <point x="1620" y="1718"/>
      <point x="1532" y="1819"/>
    </contour>
    <component base="i"/>
  </outline>
</glyph>
<glyph name="kgreenlandic" format="1">
  <advance width="1556"/>
  <unicode hex="0138"/>
  <outline>
    <contour>
      <point x="123" y="1243" type="line"/>
      <point x="123" y="0" type="line"/>
      <point x="651" y="0" type="line"/>
      <point x="651" y="416" type="line"/>
      <point x="918" y="0" type="line"/>
      <point x="1528" y="0" type="line"/>
      <point x="1071" y="668" type="line"/>
      <point x="1466" y="1243" type="line"/>
      <point x="877" y="1243" type="line"/>
      <point x="641" y="852" type="line"/>
      <point x="641" y="1243" type="line"/>
    </contour>
  </outline>
</glyph>
<glyph name="Lslash" format="1">
  <advance width="1321"/>
  <unicode hex="0141"/>
  <outline>
    <contour>
      <point x="0" y="541" type="line"/>
      <point x="123" y="584" type="line"/>
      <point x="123" y="0" type="line"/>
      <point x="1282" y="0" type="line"/>
      <point x="1282" y="481" type="line"/>
      <point x="745" y="481" type="line"/>
      <point x="745" y="805" type="line"/>
      <point x="928" y="870" type="line"/>
      <point x="928" y="1241" type="line"/>
      <point x="745" y="1176" type="line"/>
      <point x="745" y="1597" type="line"/>
      <point x="123" y="1597" type="line"/>
      <point x="123" y="954" type="line"/>
      <point x="0" y="911" type="line"/>
    </contour>
  </outline>
</glyph>
<glyph name="lslash" format="1">
  <advance width="741"/>
  <unicode hex="0142"/>
  <outline>
    <contour>
      <point x="690" y="1774" type="line"/>
      <point x="123" y="1774" type="line"/>
      <point x="123" y="973" type="line"/>
      <point x="-55" y="911" type="line"/>
      <point x="-55" y="541" type="line"/>
      <point x="123" y="604" type="line"/>
      <point x="123" y="0" type="line"/>
      <point x="690" y="0" type="line"/>
      <point x="690" y="805" type="line"/>
      <point x="872" y="870" type="line"/>
      <point x="872" y="1241" type="line"/>
      <point x="690" y="1176" type="line"/>
    </contour>
  </outline>
</glyph>
<glyph name="OE" format="1">
  <advance width="2363"/>
  <unicode hex="0152"/>
  <outline>
    <contour>
      <point x="47" y="739" type="curve" smooth="yes"/>
      <point x="47" y="326"/>
      <point x="375" y="0"/>
      <point x="803" y="0" type="curve" smooth="yes"/>
      <point x="2302" y="0" type="line"/>
      <point x="2302" y="469" type="line"/>
      <point x="1798" y="469" type="line"/>
      <point x="1798" y="621" type="line"/>
      <point x="2281" y="621" type="line"/>
      <point x="2281" y="1012" type="line"/>
      <point x="1798" y="1012" type="line"/>
      <point x="1798" y="1163" type="line"/>
      <point x="2302" y="1163" type="line"/>
      <point x="2302" y="1599" type="line"/>
      <point x="979" y="1599" type="line" smooth="yes"/>
      <point x="432" y="1599"/>
      <point x="47" y="1235"/>
    </contour>
    <contour>
      <point x="1049" y="1159" type="curve" smooth="yes"/>
      <point x="1165" y="1159"/>
      <point x="1210" y="1090"/>
      <point x="1210" y="997" type="curve" smooth="yes"/>
      <point x="1210" y="797"/>
      <point x="1006" y="481"/>
      <point x="864" y="481" type="curve" smooth="yes"/>
      <point x="743" y="481"/>
      <point x="696" y="551"/>
      <point x="696" y="647" type="curve" smooth="yes"/>
      <point x="696" y="848"/>
      <point x="903" y="1159"/>
    </contour>
  </outline>
</glyph>
<glyph name="oe" format="1">
  <advance width="2544"/>
  <unicode hex="0153"/>
  <outline>
    <contour>
      <point x="721" y="-37" type="curve" smooth="yes"/>
      <point x="901" y="-37"/>
      <point x="1073" y="27"/>
      <point x="1210" y="137" type="curve"/>
      <point x="1331" y="20"/>
      <point x="1481" y="-37"/>
      <point x="1634" y="-37" type="curve" smooth="yes"/>
      <point x="1853" y="-37"/>
      <point x="2116" y="20"/>
      <point x="2226" y="156" type="curve"/>
      <point x="2165" y="467" type="line"/>
      <point x="1959" y="330"/>
      <point x="1853" y="326"/>
      <point x="1779" y="326" type="curve" smooth="yes"/>
      <point x="1696" y="326"/>
      <point x="1612" y="328"/>
      <point x="1612" y="414" type="curve"/>
      <point x="1642" y="412"/>
      <point x="1667" y="412"/>
      <point x="1692" y="412" type="curve" smooth="yes"/>
      <point x="2048" y="412"/>
      <point x="2258" y="668"/>
      <point x="2258" y="903" type="curve" smooth="yes"/>
      <point x="2258" y="1105"/>
      <point x="2105" y="1292"/>
      <point x="1759" y="1292" type="curve" smooth="yes"/>
      <point x="1563" y="1292"/>
      <point x="1376" y="1231"/>
      <point x="1233" y="1106" type="curve"/>
      <point x="1114" y="1223"/>
      <point x="956" y="1290"/>
      <point x="782" y="1290" type="curve" smooth="yes"/>
      <point x="309" y="1290"/>
      <point x="74" y="944"/>
      <point x="74" y="606" type="curve" smooth="yes"/>
      <point x="74" y="281"/>
      <point x="291" y="-37"/>
    </contour>
    <contour>
      <point x="860" y="897" type="curve" smooth="yes"/>
      <point x="940" y="897"/>
      <point x="973" y="844"/>
      <point x="973" y="776" type="curve" smooth="yes"/>
      <point x="973" y="623"/>
      <point x="823" y="381"/>
      <point x="721" y="381" type="curve" smooth="yes"/>
      <point x="635" y="381"/>
      <point x="606" y="434"/>
      <point x="606" y="508" type="curve" smooth="yes"/>
      <point x="606" y="662"/>
      <point x="754" y="897"/>
    </contour>
    <contour>
      <point x="1704" y="975" type="curve"/>
      <point x="1755" y="975"/>
      <point x="1786" y="948"/>
      <point x="1786" y="887" type="curve" smooth="yes"/>
      <point x="1786" y="879"/>
      <point x="1784" y="872"/>
      <point x="1784" y="864" type="curve"/>
      <point x="1765" y="711" type="line"/>
      <point x="1559" y="662" type="line"/>
      <point x="1583" y="831"/>
      <point x="1579" y="963"/>
    </contour>
  </outline>
</glyph>
<glyph name="LJ" format="1">
  <advance width="2892"/>
  <unicode hex="01C7"/>
  <outline>
    <contour>
      <point x="123" y="0" type="line"/>
      <point x="1282" y="0" type="line"/>
      <point x="1282" y="481" type="line"/>
      <point x="745" y="481" type="line"/>
      <point x="745" y="1597" type="line"/>
      <point x="123" y="1597" type="line"/>
    </contour>
    <contour>
      <point x="2040" y="-39" type="curve" smooth="yes"/>
      <point x="2464" y="-39"/>
      <point x="2794" y="170"/>
      <point x="2794" y="825" type="curve" smooth="yes"/>
      <point x="2794" y="1597" type="line"/>
      <point x="2157" y="1597" type="line"/>
      <point x="2157" y="647" type="line" smooth="yes"/>
      <point x="2157" y="526"/>
      <point x="2087" y="451"/>
      <point x="2015" y="451" type="curve" smooth="yes"/>
      <point x="1946" y="451"/>
      <point x="1882" y="512"/>
      <point x="1882" y="641" type="curve" smooth="yes"/>
      <point x="1882" y="795" type="line"/>
      <point x="1327" y="719" type="line"/>
      <point x="1327" y="567" type="line" smooth="yes"/>
      <point x="1327" y="143"/>
      <point x="1621" y="-39"/>
    </contour>
  </outline>
</glyph>
<glyph name="Lj" format="1">
  <advance width="2329"/>
  <unicode hex="01C8"/>
  <outline>
    <contour>
      <point x="123" y="0" type="line"/>
      <point x="1282" y="0" type="line"/>
      <point x="1282" y="481" type="line"/>
      <point x="745" y="481" type="line"/>
      <point x="745" y="1597" type="line"/>
      <point x="123" y="1597" type="line"/>
    </contour>
    <contour>
      <point x="1344" y="-188" type="line"/>
      <point x="1458" y="-279"/>
      <point x="1612" y="-332"/>
      <point x="1764" y="-332" type="curve" smooth="yes"/>
      <point x="2015" y="-332"/>
      <point x="2224" y="-168"/>
      <point x="2224" y="111" type="curve" smooth="yes"/>
      <point x="2224" y="1241" type="line"/>
      <point x="1626" y="1241" type="line"/>
      <point x="1626" y="317" type="line" smooth="yes"/>
      <point x="1626" y="201"/>
      <point x="1524" y="53"/>
      <point x="1450" y="53" type="curve" smooth="yes"/>
      <point x="1407" y="53"/>
      <point x="1372" y="59"/>
      <point x="1346" y="70" type="curve"/>
    </contour>
    <contour>
      <point x="1952" y="1819" type="curve" smooth="yes"/>
      <point x="1729" y="1819"/>
      <point x="1618" y="1677"/>
      <point x="1618" y="1550" type="curve" smooth="yes"/>
      <point x="1618" y="1444"/>
      <point x="1692" y="1346"/>
      <point x="1897" y="1346" type="curve" smooth="yes"/>
      <point x="2110" y="1346"/>
      <point x="2228" y="1483"/>
      <point x="2228" y="1608" type="curve" smooth="yes"/>
      <point x="2228" y="1718"/>
      <point x="2140" y="1819"/>
    </contour>
  </outline>
</glyph>
<glyph name="lj" format="1">
  <advance width="1827"/>
  <unicode hex="01C9"/>
  <outline>
    <contour>
      <point x="690" y="1683" type="line"/>
      <point x="123" y="1683" type="line"/>
      <point x="123" y="0" type="line"/>
      <point x="690" y="0" type="line"/>
    </contour>
    <contour>
      <point x="842" y="-188" type="line"/>
      <point x="956" y="-279"/>
      <point x="1110" y="-332"/>
      <point x="1262" y="-332" type="curve" smooth="yes"/>
      <point x="1513" y="-332"/>
      <point x="1722" y="-168"/>
      <point x="1722" y="111" type="curve" smooth="yes"/>
      <point x="1722" y="1241" type="line"/>
      <point x="1124" y="1241" type="line"/>
      <point x="1124" y="317" type="line" smooth="yes"/>
      <point x="1124" y="201"/>
      <point x="1022" y="53"/>
      <point x="948" y="53" type="curve" smooth="yes"/>
      <point x="905" y="53"/>
      <point x="870" y="59"/>
      <point x="844" y="70" type="curve"/>
    </contour>
    <contour>
      <point x="1450" y="1819" type="curve" smooth="yes"/>
      <point x="1227" y="1819"/>
      <point x="1116" y="1677"/>
      <point x="1116" y="1550" type="curve" smooth="yes"/>
      <point x="1116" y="1444"/>
      <point x="1190" y="1346"/>
      <point x="1395" y="1346" type="curve" smooth="yes"/>
      <point x="1608" y="1346"/>
      <point x="1726" y="1483"/>
      <point x="1726" y="1608" type="curve" smooth="yes"/>
      <point x="1726" y="1718"/>
      <point x="1638" y="1819"/>
    </contour>
  </outline>
</glyph>
<glyph name="nj" format="1">
  <advance width="2586"/>
  <unicode hex="01CC"/>
  <outline>
    <contour>
      <point x="971" y="0" type="line"/>
      <point x="1569" y="0" type="line"/>
      <point x="1569" y="848" type="line" smooth="yes"/>
      <point x="1569" y="1126"/>
      <point x="1360" y="1290"/>
      <point x="1108" y="1290" type="curve" smooth="yes"/>
      <point x="907" y="1290"/>
      <point x="702" y="1200"/>
      <point x="592" y="1049" type="curve"/>
      <point x="449" y="1243" type="line"/>
      <point x="121" y="1243" type="line"/>
      <point x="121" y="0" type="line"/>
      <point x="715" y="0" type="line"/>
      <point x="715" y="776" type="line" smooth="yes"/>
      <point x="715" y="846"/>
      <point x="735" y="905"/>
      <point x="795" y="905" type="curve" smooth="yes"/>
      <point x="903" y="905"/>
      <point x="971" y="817"/>
      <point x="971" y="600" type="curve" smooth="yes"/>
    </contour>
    <contour>
      <point x="1601" y="-338" type="line"/>
      <point x="1715" y="-387"/>
      <point x="1869" y="-412"/>
      <point x="2021" y="-412" type="curve" smooth="yes"/>
      <point x="2272" y="-412"/>
      <point x="2481" y="-248"/>
      <point x="2481" y="31" type="curve" smooth="yes"/>
      <point x="2481" y="1241" type="line"/>
      <point x="1883" y="1241" type="line"/>
      <point x="1883" y="167" type="line" smooth="yes"/>
      <point x="1883" y="51"/>
      <point x="1781" y="-97"/>
      <point x="1707" y="-97" type="curve" smooth="yes"/>
      <point x="1664" y="-97"/>
      <point x="1629" y="-91"/>
      <point x="1603" y="-80" type="curve"/>
    </contour>
    <contour>
      <point x="2209" y="1819" type="curve" smooth="yes"/>
      <point x="1986" y="1819"/>
      <point x="1875" y="1677"/>
      <point x="1875" y="1550" type="curve" smooth="yes"/>
      <point x="1875" y="1444"/>
      <point x="1949" y="1346"/>
      <point x="2154" y="1346" type="curve" smooth="yes"/>
      <point x="2367" y="1346"/>
      <point x="2485" y="1483"/>
      <point x="2485" y="1608" type="curve" smooth="yes"/>
      <point x="2485" y="1718"/>
      <point x="2397" y="1819"/>
    </contour>
  </outline>
</glyph>
<glyph name="dotlessj" format="1">
  <advance width="965"/>
  <unicode hex="0237"/>
  <outline>
    <contour>
      <point x="602" y="1243" type="move" name="top"/>
    </contour>
    <contour>
      <point x="29" y="-188" type="line"/>
      <point x="143" y="-279"/>
      <point x="297" y="-332"/>
      <point x="449" y="-332" type="curve" smooth="yes"/>
      <point x="700" y="-332"/>
      <point x="909" y="-168"/>
      <point x="909" y="111" type="curve" smooth="yes"/>
      <point x="909" y="1243" type="line"/>
      <point x="311" y="1243" type="line"/>
      <point x="311" y="317" type="line" smooth="yes"/>
      <point x="311" y="201"/>
      <point x="209" y="53"/>
      <point x="135" y="53" type="curve" smooth="yes"/>
      <point x="92" y="53"/>
      <point x="57" y="59"/>
      <point x="31" y="70" type="curve"/>
    </contour>
  </outline>
</glyph>
<glyph name="circumflex" format="1">
  <advance width="819"/>
  <unicode hex="02C6"/>
  <outline>
    <contour>
      <point x="410" y="680" type="move" name="_top"/>
    </contour>
    <contour>
      <point x="63" y="1004" type="line"/>
      <point x="51" y="977"/>
      <point x="47" y="956"/>
      <point x="47" y="940" type="curve" smooth="yes"/>
      <point x="47" y="918"/>
      <point x="59" y="905"/>
      <point x="78" y="905" type="curve" smooth="yes"/>
      <point x="104" y="905"/>
      <point x="143" y="928"/>
      <point x="184" y="965" type="curve" smooth="yes"/>
      <point x="410" y="1171" type="line"/>
      <point x="637" y="965" type="line" smooth="yes"/>
      <point x="677" y="928"/>
      <point x="716" y="905"/>
      <point x="743" y="905" type="curve" smooth="yes"/>
      <point x="762" y="905"/>
      <point x="772" y="918"/>
      <point x="772" y="940" type="curve" smooth="yes"/>
      <point x="772" y="956"/>
      <point x="771" y="977"/>
      <point x="758" y="1004" type="curve" smooth="yes"/>
      <point x="553" y="1421" type="line" smooth="yes"/>
      <point x="522" y="1483"/>
      <point x="467" y="1511"/>
      <point x="412" y="1511" type="curve" smooth="yes"/>
      <point x="356" y="1511"/>
      <point x="296" y="1479"/>
      <point x="268" y="1421" type="curve" smooth="yes"/>
    </contour>
  </outline>
</glyph>
<glyph name="caron" format="1">
  <advance width="786"/>
  <unicode hex="02C7"/>
  <outline>
    <contour>
      <point x="393" y="680" type="move" name="_top"/>
    </contour>
    <contour>
      <point x="252" y="989" type="line" smooth="yes"/>
      <point x="280" y="932"/>
      <point x="341" y="899"/>
      <point x="395" y="899" type="curve" smooth="yes"/>
      <point x="450" y="899"/>
      <point x="507" y="927"/>
      <point x="537" y="989" type="curve" smooth="yes"/>
      <point x="741" y="1407" type="line" smooth="yes"/>
      <point x="754" y="1434"/>
      <point x="756" y="1454"/>
      <point x="756" y="1470" type="curve" smooth="yes"/>
      <point x="756" y="1493"/>
      <point x="745" y="1505"/>
      <point x="727" y="1505" type="curve" smooth="yes"/>
      <point x="700" y="1505"/>
      <point x="660" y="1482"/>
      <point x="621" y="1446" type="curve" smooth="yes"/>
      <point x="393" y="1239" type="line"/>
      <point x="168" y="1446" type="line" smooth="yes"/>
      <point x="127" y="1483"/>
      <point x="88" y="1505"/>
      <point x="61" y="1505" type="curve" smooth="yes"/>
      <point x="43" y="1505"/>
      <point x="31" y="1493"/>
      <point x="31" y="1470" type="curve" smooth="yes"/>
      <point x="31" y="1452"/>
      <point x="36" y="1433"/>
      <point x="47" y="1407" type="curve"/>
    </contour>
  </outline>
</glyph>
<glyph name="breve" format="1">
  <advance width="1317"/>
  <unicode hex="02D8"/>
  <outline>
    <contour>
      <point x="657" y="680" type="move" name="_top"/>
    </contour>
    <contour>
      <point x="842" y="1465" type="line"/>
      <point x="842" y="1328"/>
      <point x="780" y="1205"/>
      <point x="657" y="1205" type="curve" smooth="yes"/>
      <point x="535" y="1205"/>
      <point x="471" y="1330"/>
      <point x="471" y="1472" type="curve"/>
      <point x="41" y="1472" type="line"/>
      <point x="41" y="1154"/>
      <point x="246" y="855"/>
      <point x="657" y="855" type="curve" smooth="yes"/>
      <point x="1067" y="855"/>
      <point x="1274" y="1150"/>
      <point x="1274" y="1465" type="curve"/>
    </contour>
  </outline>
</glyph>
<glyph name="ring" format="1">
  <advance width="735"/>
  <unicode hex="02DA"/>
  <outline>
    <contour>
      <point x="371" y="680" type="move" name="_top"/>
    </contour>
    <contour>
      <point x="367" y="1327" type="curve" smooth="yes"/>
      <point x="463" y="1327"/>
      <point x="512" y="1257"/>
      <point x="512" y="1190" type="curve" smooth="yes"/>
      <point x="512" y="1122"/>
      <point x="465" y="1055"/>
      <point x="371" y="1055" type="curve" smooth="yes"/>
      <point x="274" y="1055"/>
      <point x="225" y="1124"/>
      <point x="225" y="1194" type="curve" smooth="yes"/>
      <point x="225" y="1260"/>
      <point x="272" y="1327"/>
    </contour>
    <contour>
      <point x="43" y="1192" type="curve" smooth="yes"/>
      <point x="43" y="979"/>
      <point x="205" y="872"/>
      <point x="369" y="872" type="curve" smooth="yes"/>
      <point x="530" y="872"/>
      <point x="692" y="979"/>
      <point x="692" y="1192" type="curve" smooth="yes"/>
      <point x="692" y="1401"/>
      <point x="528" y="1507"/>
      <point x="367" y="1507" type="curve" smooth="yes"/>
      <point x="205" y="1507"/>
      <point x="43" y="1403"/>
    </contour>
  </outline>
</glyph>
<glyph name="ogonek" format="1">
  <advance width="696"/>
  <unicode hex="02DB"/>
  <outline>
    <contour>
      <point x="383" y="0" type="move" name="_bot"/>
    </contour>
    <contour>
      <point x="637" y="-543" type="curve"/>
      <point x="664" y="-522"/>
      <point x="676" y="-500"/>
      <point x="676" y="-481" type="curve" smooth="yes"/>
      <point x="676" y="-449"/>
      <point x="647" y="-420"/>
      <point x="616" y="-420" type="curve" smooth="yes"/>
      <point x="598" y="-420"/>
      <point x="506" y="-483"/>
      <point x="401" y="-483" type="curve" smooth="yes"/>
      <point x="336" y="-483"/>
      <point x="311" y="-444"/>
      <point x="311" y="-387" type="curve" smooth="yes"/>
      <point x="311" y="-246"/>
      <point x="455" y="0"/>
      <point x="455" y="0" type="curve"/>
      <point x="317" y="0" type="line"/>
      <point x="317" y="0"/>
      <point x="39" y="-197"/>
      <point x="39" y="-401" type="curve" smooth="yes"/>
      <point x="39" y="-561"/>
      <point x="182" y="-629"/>
      <point x="334" y="-629" type="curve" smooth="yes"/>
      <point x="444" y="-629"/>
      <point x="561" y="-594"/>
    </contour>
  </outline>
</glyph>
<glyph name="tilde" format="1">
  <advance width="1098"/>
  <unicode hex="02DC"/>
  <outline>
    <contour>
      <point x="602" y="680" type="move" name="_top"/>
    </contour>
    <contour>
      <point x="305" y="989" type="curve" smooth="yes"/>
      <point x="467" y="989"/>
      <point x="682" y="883"/>
      <point x="844" y="883" type="curve" smooth="yes"/>
      <point x="979" y="883"/>
      <point x="1079" y="958"/>
      <point x="1079" y="1231" type="curve" smooth="yes"/>
      <point x="1079" y="1239"/>
      <point x="1073" y="1247"/>
      <point x="1063" y="1247" type="curve" smooth="yes"/>
      <point x="1040" y="1247"/>
      <point x="995" y="1186"/>
      <point x="920" y="1186" type="curve" smooth="yes"/>
      <point x="778" y="1186"/>
      <point x="561" y="1290"/>
      <point x="393" y="1290" type="curve" smooth="yes"/>
      <point x="252" y="1290"/>
      <point x="145" y="1217"/>
      <point x="145" y="946" type="curve" smooth="yes"/>
      <point x="145" y="938"/>
      <point x="154" y="930"/>
      <point x="164" y="930" type="curve" smooth="yes"/>
      <point x="184" y="930"/>
      <point x="231" y="989"/>
    </contour>
  </outline>
</glyph>
<glyph name="hungarumlaut" format="1">
  <advance width="1274"/>
  <unicode hex="02DD"/>
  <outline>
    <contour>
      <point x="406" y="680" type="move" name="_top"/>
    </contour>
    <contour>
      <point x="188" y="1485" type="line"/>
      <point x="147" y="985" type="line"/>
      <point x="147" y="975"/>
      <point x="145" y="967"/>
      <point x="145" y="958" type="curve" smooth="yes"/>
      <point x="145" y="903"/>
      <point x="164" y="877"/>
      <point x="186" y="877" type="curve" smooth="yes"/>
      <point x="211" y="877"/>
      <point x="239" y="899"/>
      <point x="268" y="946" type="curve" smooth="yes"/>
      <point x="596" y="1485" type="line"/>
    </contour>
    <contour>
      <point x="725" y="1485" type="line"/>
      <point x="596" y="985" type="line"/>
      <point x="596" y="963"/>
      <point x="594" y="944"/>
      <point x="594" y="930" type="curve" smooth="yes"/>
      <point x="594" y="895"/>
      <point x="606" y="881"/>
      <point x="627" y="881" type="curve" smooth="yes"/>
      <point x="653" y="881"/>
      <point x="690" y="905"/>
      <point x="723" y="946" type="curve" smooth="yes"/>
      <point x="1153" y="1485" type="line"/>
    </contour>
  </outline>
</glyph>
<glyph name="dotaccentcmb" format="1">
  <advance width="694"/>
  <unicode hex="0307"/>
  <outline>
    <contour>
      <point x="315" y="680" type="move" name="_top"/>
    </contour>
    <contour>
      <point x="377" y="1516" type="curve" smooth="yes"/>
      <point x="168" y="1516"/>
      <point x="43" y="1348"/>
      <point x="43" y="1198" type="curve" smooth="yes"/>
      <point x="43" y="1057"/>
      <point x="127" y="928"/>
      <point x="317" y="928" type="curve" smooth="yes"/>
      <point x="541" y="928"/>
      <point x="651" y="1090"/>
      <point x="651" y="1243" type="curve" smooth="yes"/>
      <point x="651" y="1382"/>
      <point x="559" y="1516"/>
    </contour>
  </outline>
</glyph>
<glyph name="uni030F" format="1">
  <advance width="1274"/>
  <unicode hex="030F"/>
  <outline>
    <contour>
      <point x="795" y="680" type="move" name="_top"/>
    </contour>
    <contour>
      <point x="115" y="1485" type="line"/>
      <point x="586" y="946" type="line" smooth="yes"/>
      <point x="623" y="903"/>
      <point x="657" y="883"/>
      <point x="682" y="883" type="curve" smooth="yes"/>
      <point x="702" y="883"/>
      <point x="715" y="899"/>
      <point x="715" y="930" type="curve" smooth="yes"/>
      <point x="715" y="946"/>
      <point x="713" y="963"/>
      <point x="707" y="985" type="curve" smooth="yes"/>
      <point x="563" y="1485" type="line"/>
    </contour>
    <contour>
      <point x="672" y="1485" type="line"/>
      <point x="1020" y="946" type="line" smooth="yes"/>
      <point x="1050" y="900"/>
      <point x="1079" y="877"/>
      <point x="1102" y="877" type="curve" smooth="yes"/>
      <point x="1126" y="877"/>
      <point x="1143" y="903"/>
      <point x="1143" y="950" type="curve" smooth="yes"/>
      <point x="1143" y="961"/>
      <point x="1143" y="973"/>
      <point x="1141" y="985" type="curve" smooth="yes"/>
      <point x="1079" y="1485" type="line"/>
    </contour>
  </outline>
</glyph>
<glyph name="uni0311" format="1">
  <advance width="1319"/>
  <unicode hex="0311"/>
  <outline>
    <contour>
      <point x="659" y="680" type="move" name="_top"/>
    </contour>
    <contour>
      <point x="1214" y="926" type="line"/>
      <point x="1214" y="1190"/>
      <point x="1026" y="1450"/>
      <point x="659" y="1450" type="curve" smooth="yes"/>
      <point x="291" y="1450"/>
      <point x="104" y="1192"/>
      <point x="104" y="926" type="curve"/>
      <point x="473" y="926" type="line"/>
      <point x="473" y="1036"/>
      <point x="537" y="1141"/>
      <point x="659" y="1141" type="curve" smooth="yes"/>
      <point x="782" y="1141"/>
      <point x="844" y="1032"/>
      <point x="844" y="926" type="curve"/>
    </contour>
  </outline>
</glyph>
<glyph name="uni0326" format="1">
  <advance width="715"/>
  <unicode hex="0326"/>
  <outline>
    <contour>
      <point x="355" y="0" type="move" name="_bot"/>
    </contour>
    <contour>
      <point x="53" y="-1022" type="line"/>
      <point x="477" y="-1022"/>
      <point x="662" y="-842"/>
      <point x="662" y="-539" type="curve" smooth="yes"/>
      <point x="662" y="-135" type="line"/>
      <point x="53" y="-135" type="line"/>
      <point x="53" y="-557" type="line"/>
      <point x="233" y="-557" type="line"/>
      <point x="233" y="-557"/>
      <point x="233" y="-764"/>
      <point x="53" y="-764" type="curve"/>
    </contour>
  </outline>
</glyph>
<glyph name="endash" format="1">
  <advance width="1157"/>
  <unicode hex="2013"/>
  <outline>
    <contour>
      <point x="123" y="614" type="line"/>
      <point x="1036" y="614" type="line"/>
      <point x="1036" y="911" type="line"/>
      <point x="123" y="911" type="line"/>
    </contour>
  </outline>
</glyph>
<glyph name="emdash" format="1">
  <advance width="1157"/>
  <unicode hex="2014"/>
  <outline>
    <contour>
      <point x="123" y="614" type="line"/>
      <point x="1036" y="614" type="line"/>
      <point x="1036" y="911" type="line"/>
      <point x="123" y="911" type="line"/>
    </contour>
  </outline>
</glyph>
<glyph name="quoteleft" format="1">
  <advance width="811"/>
  <unicode hex="2018"/>
  <outline>
    <contour>
      <point x="690" y="1599" type="line"/>
      <point x="266" y="1599"/>
      <point x="82" y="1419"/>
      <point x="82" y="1116" type="curve" smooth="yes"/>
      <point x="82" y="713" type="line"/>
      <point x="690" y="713" type="line"/>
      <point x="690" y="1135" type="line"/>
      <point x="510" y="1135" type="line"/>
      <point x="510" y="1135"/>
      <point x="510" y="1341"/>
      <point x="690" y="1341" type="curve"/>
    </contour>
  </outline>
</glyph>
<glyph name="quoteright" format="1">
  <advance width="809"/>
  <unicode hex="2019"/>
  <outline>
    <contour>
      <point x="123" y="713" type="line"/>
      <point x="547" y="713"/>
      <point x="731" y="893"/>
      <point x="731" y="1196" type="curve" smooth="yes"/>
      <point x="731" y="1599" type="line"/>
      <point x="123" y="1599" type="line"/>
      <point x="123" y="1178" type="line"/>
      <point x="303" y="1178" type="line"/>
      <point x="303" y="1178"/>
      <point x="303" y="971"/>
      <point x="123" y="971" type="curve"/>
    </contour>
  </outline>
</glyph>
<glyph name="quotedblleft" format="1">
  <advance width="1587"/>
  <unicode hex="201C"/>
  <outline>
    <contour>
      <point x="713" y="1599" type="line"/>
      <point x="289" y="1599"/>
      <point x="104" y="1419"/>
      <point x="104" y="1116" type="curve" smooth="yes"/>
      <point x="104" y="713" type="line"/>
      <point x="713" y="713" type="line"/>
      <point x="713" y="1135" type="line"/>
      <point x="532" y="1135" type="line"/>
      <point x="532" y="1135"/>
      <point x="532" y="1341"/>
      <point x="713" y="1341" type="curve"/>
    </contour>
    <contour>
      <point x="1464" y="1599" type="line"/>
      <point x="1040" y="1599"/>
      <point x="856" y="1419"/>
      <point x="856" y="1116" type="curve" smooth="yes"/>
      <point x="856" y="713" type="line"/>
      <point x="1464" y="713" type="line"/>
      <point x="1464" y="1135" type="line"/>
      <point x="1284" y="1135" type="line"/>
      <point x="1284" y="1135"/>
      <point x="1284" y="1341"/>
      <point x="1464" y="1341" type="curve"/>
    </contour>
  </outline>
</glyph>
<glyph name="quotedblright" format="1">
  <advance width="1585"/>
  <unicode hex="201D"/>
  <outline>
    <contour>
      <point x="874" y="713" type="line"/>
      <point x="1298" y="713"/>
      <point x="1483" y="893"/>
      <point x="1483" y="1196" type="curve" smooth="yes"/>
      <point x="1483" y="1599" type="line"/>
      <point x="874" y="1599" type="line"/>
      <point x="874" y="1178" type="line"/>
      <point x="1055" y="1178" type="line"/>
      <point x="1055" y="1178"/>
      <point x="1055" y="971"/>
      <point x="874" y="971" type="curve"/>
    </contour>
    <contour>
      <point x="123" y="713" type="line"/>
      <point x="547" y="713"/>
      <point x="731" y="893"/>
      <point x="731" y="1196" type="curve" smooth="yes"/>
      <point x="731" y="1599" type="line"/>
      <point x="123" y="1599" type="line"/>
      <point x="123" y="1178" type="line"/>
      <point x="303" y="1178" type="line"/>
      <point x="303" y="1178"/>
      <point x="303" y="971"/>
      <point x="123" y="971" type="curve"/>
    </contour>
  </outline>
</glyph>
<glyph name="quotedblbase" format="1">
  <advance width="1585"/>
  <unicode hex="201E"/>
  <outline>
    <contour>
      <point x="874" y="-465" type="line"/>
      <point x="1298" y="-465"/>
      <point x="1483" y="-285"/>
      <point x="1483" y="18" type="curve" smooth="yes"/>
      <point x="1483" y="422" type="line"/>
      <point x="874" y="422" type="line"/>
      <point x="874" y="0" type="line"/>
      <point x="1055" y="0" type="line"/>
      <point x="1055" y="0"/>
      <point x="1055" y="-207"/>
      <point x="874" y="-207" type="curve"/>
    </contour>
    <contour>
      <point x="123" y="-465" type="line"/>
      <point x="547" y="-465"/>
      <point x="731" y="-285"/>
      <point x="731" y="18" type="curve" smooth="yes"/>
      <point x="731" y="422" type="line"/>
      <point x="123" y="422" type="line"/>
      <point x="123" y="0" type="line"/>
      <point x="303" y="0" type="line"/>
      <point x="303" y="0"/>
      <point x="303" y="-207"/>
      <point x="123" y="-207" type="curve"/>
    </contour>
  </outline>
</glyph>
<glyph name="bullet" format="1">
  <advance width="760"/>
  <unicode hex="2022"/>
  <outline>
    <contour>
      <point x="410" y="715" type="curve" smooth="yes"/>
      <point x="152" y="715"/>
      <point x="-6" y="506"/>
      <point x="-6" y="315" type="curve" smooth="yes"/>
      <point x="-6" y="133"/>
      <point x="102" y="-37"/>
      <point x="350" y="-37" type="curve" smooth="yes"/>
      <point x="631" y="-37"/>
      <point x="766" y="166"/>
      <point x="766" y="360" type="curve" smooth="yes"/>
      <point x="766" y="541"/>
      <point x="649" y="715"/>
    </contour>
  </outline>
</glyph>
<glyph name="guilsinglleft" format="1">
  <advance width="1010"/>
  <unicode hex="2039"/>
  <outline>
    <contour>
      <point x="891" y="1466" type="line"/>
      <point x="39" y="870" type="line" smooth="yes"/>
      <point x="14" y="856"/>
      <point x="0" y="823"/>
      <point x="0" y="791" type="curve" smooth="yes"/>
      <point x="0" y="756"/>
      <point x="12" y="725"/>
      <point x="39" y="711" type="curve" smooth="yes"/>
      <point x="891" y="139" type="line"/>
      <point x="891" y="637" type="line"/>
      <point x="668" y="766" type="line"/>
      <point x="891" y="901" type="line"/>
    </contour>
  </outline>
</glyph>
<glyph name="guilsinglright" format="1">
  <advance width="1014"/>
  <unicode hex="203A"/>
  <outline>
    <contour>
      <point x="123" y="139" type="line"/>
      <point x="975" y="735" type="line" smooth="yes"/>
      <point x="998" y="751"/>
      <point x="1014" y="782"/>
      <point x="1014" y="815" type="curve" smooth="yes"/>
      <point x="1014" y="850"/>
      <point x="1001" y="881"/>
      <point x="975" y="895" type="curve"/>
      <point x="123" y="1466" type="line"/>
      <point x="123" y="969" type="line"/>
      <point x="346" y="840" type="line"/>
      <point x="123" y="705" type="line"/>
    </contour>
  </outline>
</glyph>
<glyph name="fraction" format="1">
  <advance width="1171"/>
  <unicode hex="2044"/>
  <outline>
    <contour>
      <point x="1165" y="1597" type="line"/>
      <point x="573" y="1597" type="line"/>
      <point x="20" y="0" type="line"/>
      <point x="285" y="0" type="line"/>
    </contour>
  </outline>
</glyph>
<glyph name="foursuperior" format="1">
  <advance width="1526"/>
  <unicode hex="2074"/>
  <outline>
    <contour>
      <point x="47" y="172" type="line"/>
      <point x="776" y="172" type="line"/>
      <point x="776" y="0" type="line"/>
      <point x="1317" y="0" type="line"/>
      <point x="1317" y="172" type="line"/>
      <point x="1432" y="172" type="line"/>
      <point x="1432" y="561" type="line"/>
      <point x="1317" y="561" type="line"/>
      <point x="1317" y="1280" type="line"/>
      <point x="549" y="1280" type="line"/>
      <point x="47" y="549" type="line"/>
    </contour>
    <contour>
      <point x="776" y="911" type="line"/>
      <point x="776" y="549" type="line"/>
      <point x="545" y="549" type="line"/>
    </contour>
  </outline>
</glyph>
<glyph name="Euro" format="1">
  <advance width="1663"/>
  <unicode hex="20AC"/>
  <outline>
    <contour>
      <point x="33" y="901" type="line"/>
      <point x="211" y="901" type="line"/>
      <point x="205" y="860"/>
      <point x="203" y="819"/>
      <point x="201" y="776" type="curve"/>
      <point x="33" y="776" type="line"/>
      <point x="33" y="643" type="line"/>
      <point x="207" y="643" type="line"/>
      <point x="258" y="178"/>
      <point x="668" y="-68"/>
      <point x="1092" y="-68" type="curve" smooth="yes"/>
      <point x="1255" y="-68"/>
      <point x="1411" y="-37"/>
      <point x="1552" y="18" type="curve"/>
      <point x="1552" y="535" type="line"/>
      <point x="1446" y="479"/>
      <point x="1343" y="449"/>
      <point x="1253" y="449" type="curve" smooth="yes"/>
      <point x="1120" y="449"/>
      <point x="1014" y="512"/>
      <point x="969" y="643" type="curve"/>
      <point x="1419" y="643" type="line"/>
      <point x="1419" y="776" type="line"/>
      <point x="944" y="776" type="line"/>
      <point x="944" y="809" type="line" smooth="yes"/>
      <point x="944" y="840"/>
      <point x="948" y="870"/>
      <point x="954" y="901" type="curve"/>
      <point x="1419" y="901" type="line"/>
      <point x="1419" y="1034" type="line"/>
      <point x="1014" y="1034" type="line"/>
      <point x="1094" y="1149"/>
      <point x="1233" y="1223"/>
      <point x="1382" y="1223" type="curve" smooth="yes"/>
      <point x="1427" y="1223"/>
      <point x="1475" y="1214"/>
      <point x="1522" y="1200" type="curve"/>
      <point x="1522" y="1624" type="line"/>
      <point x="1415" y="1663"/>
      <point x="1253" y="1673"/>
      <point x="1174" y="1673" type="curve" smooth="yes"/>
      <point x="705" y="1673"/>
      <point x="354" y="1425"/>
      <point x="240" y="1034" type="curve"/>
      <point x="33" y="1034" type="line"/>
    </contour>
  </outline>
</glyph>
<glyph name="trademark" format="1">
  <advance width="2699"/>
  <unicode hex="2122"/>
  <outline>
    <contour>
      <point x="49" y="1235" type="line"/>
      <point x="360" y="1235" type="line"/>
      <point x="360" y="469" type="line"/>
      <point x="803" y="469" type="line"/>
      <point x="803" y="1235" type="line"/>
      <point x="1116" y="1235" type="line"/>
      <point x="1116" y="1599" type="line"/>
      <point x="49" y="1599" type="line"/>
    </contour>
    <contour>
      <point x="1212" y="469" type="line"/>
      <point x="1602" y="469" type="line"/>
      <point x="1602" y="827" type="line"/>
      <point x="1882" y="520" type="line"/>
      <point x="2173" y="834" type="line"/>
      <point x="2173" y="469" type="line"/>
      <point x="2638" y="469" type="line"/>
      <point x="2638" y="1599" type="line"/>
      <point x="2482" y="1599" type="line"/>
      <point x="1919" y="1087" type="line"/>
      <point x="1370" y="1599" type="line"/>
      <point x="1212" y="1599" type="line"/>
    </contour>
  </outline>
</glyph>
<glyph name="commaaccent" format="1">
  <advance width="715"/>
  <unicode hex="F6C3"/>
  <outline>
    <contour>
      <point x="349" y="0" type="move" name="_bot"/>
    </contour>
    <contour>
      <point x="54" y="-1161" type="move" name="_top"/>
    </contour>
    <contour>
      <point x="53" y="-1022" type="line"/>
      <point x="477" y="-1022"/>
      <point x="662" y="-842"/>
      <point x="662" y="-539" type="curve" smooth="yes"/>
      <point x="662" y="-135" type="line"/>
      <point x="53" y="-135" type="line"/>
      <point x="53" y="-557" type="line"/>
      <point x="233" y="-557" type="line"/>
      <point x="233" y="-557"/>
      <point x="233" y="-764"/>
      <point x="53" y="-764" type="curve"/>
    </contour>
  </outline>
</glyph>
<glyph name="ff" format="1">
  <advance width="2116"/>
  <unicode hex="FB00"/>
  <outline>
    <contour>
      <point x="780" y="926" type="line"/>
      <point x="1176" y="926" type="line"/>
      <point x="1176" y="0" type="line"/>
      <point x="1774" y="0" type="line"/>
      <point x="1774" y="926" type="line"/>
      <point x="2056" y="926" type="line"/>
      <point x="2056" y="1243" type="line"/>
      <point x="1774" y="1243" type="line"/>
      <point x="1782" y="1346"/>
      <point x="1831" y="1427"/>
      <point x="1958" y="1427" type="curve" smooth="yes"/>
      <point x="1987" y="1427"/>
      <point x="2017" y="1423"/>
      <point x="2054" y="1413" type="curve"/>
      <point x="2054" y="1712" type="line"/>
      <point x="1942" y="1778"/>
      <point x="1788" y="1815"/>
      <point x="1636" y="1815" type="curve" smooth="yes"/>
      <point x="1384" y="1815"/>
      <point x="1176" y="1683"/>
      <point x="1176" y="1454" type="curve" smooth="yes"/>
      <point x="1176" y="1243" type="line"/>
      <point x="780" y="1243" type="line"/>
      <point x="788" y="1346"/>
      <point x="838" y="1427"/>
      <point x="965" y="1427" type="curve" smooth="yes"/>
      <point x="993" y="1427"/>
      <point x="1024" y="1423"/>
      <point x="1061" y="1413" type="curve"/>
      <point x="1061" y="1712" type="line"/>
      <point x="948" y="1778"/>
      <point x="795" y="1815"/>
      <point x="643" y="1815" type="curve" smooth="yes"/>
      <point x="391" y="1815"/>
      <point x="182" y="1683"/>
      <point x="182" y="1454" type="curve" smooth="yes"/>
      <point x="182" y="1243" type="line"/>
      <point x="68" y="1243" type="line"/>
      <point x="68" y="926" type="line"/>
      <point x="182" y="926" type="line"/>
      <point x="182" y="0" type="line"/>
      <point x="780" y="0" type="line"/>
    </contour>
  </outline>
</glyph>
<glyph name="fi" format="1">
  <advance width="1882"/>
  <unicode hex="FB01"/>
  <outline>
    <contour>
      <point x="68" y="926" type="line"/>
      <point x="182" y="926" type="line"/>
      <point x="182" y="0" type="line"/>
      <point x="780" y="0" type="line"/>
      <point x="780" y="926" type="line"/>
      <point x="1200" y="926" type="line"/>
      <point x="1200" y="0" type="line"/>
      <point x="1778" y="0" type="line"/>
      <point x="1778" y="1243" type="line"/>
      <point x="780" y="1243" type="line"/>
      <point x="791" y="1384"/>
      <point x="879" y="1468"/>
      <point x="993" y="1468" type="curve" smooth="yes"/>
      <point x="1022" y="1468"/>
      <point x="1051" y="1464"/>
      <point x="1081" y="1454" type="curve"/>
      <point x="1081" y="1753" type="line"/>
      <point x="963" y="1819"/>
      <point x="803" y="1855"/>
      <point x="643" y="1855" type="curve" smooth="yes"/>
      <point x="391" y="1855"/>
      <point x="182" y="1724"/>
      <point x="182" y="1495" type="curve" smooth="yes"/>
      <point x="182" y="1243" type="line"/>
      <point x="68" y="1243" type="line"/>
    </contour>
    <contour>
      <point x="1518" y="1882" type="curve" smooth="yes"/>
      <point x="1321" y="1882"/>
      <point x="1202" y="1733"/>
      <point x="1202" y="1602" type="curve" smooth="yes"/>
      <point x="1202" y="1479"/>
      <point x="1282" y="1366"/>
      <point x="1462" y="1366" type="curve" smooth="yes"/>
      <point x="1673" y="1366"/>
      <point x="1778" y="1509"/>
      <point x="1778" y="1645" type="curve" smooth="yes"/>
      <point x="1778" y="1765"/>
      <point x="1692" y="1882"/>
    </contour>
  </outline>
</glyph>
<glyph name="fl" format="1">
  <advance width="1896"/>
  <unicode hex="FB02"/>
  <outline>
    <contour>
      <point x="1776" y="1712" type="line"/>
      <point x="1622" y="1774"/>
      <point x="1257" y="1837"/>
      <point x="1012" y="1837" type="curve" smooth="yes"/>
      <point x="535" y="1837"/>
      <point x="182" y="1726"/>
      <point x="182" y="1352" type="curve" smooth="yes"/>
      <point x="182" y="1243" type="line"/>
      <point x="68" y="1243" type="line"/>
      <point x="68" y="926" type="line"/>
      <point x="182" y="926" type="line"/>
      <point x="182" y="0" type="line"/>
      <point x="780" y="0" type="line"/>
      <point x="780" y="926" type="line"/>
      <point x="1063" y="926" type="line"/>
      <point x="1063" y="1243" type="line"/>
      <point x="756" y="1243" type="line"/>
      <point x="745" y="1278"/>
      <point x="741" y="1309"/>
      <point x="741" y="1335" type="curve" smooth="yes"/>
      <point x="741" y="1473"/>
      <point x="858" y="1507"/>
      <point x="979" y="1507" type="curve" smooth="yes"/>
      <point x="1065" y="1507"/>
      <point x="1155" y="1489"/>
      <point x="1198" y="1475" type="curve"/>
      <point x="1198" y="0" type="line"/>
      <point x="1776" y="0" type="line"/>
    </contour>
  </outline>
</glyph>
<glyph name="ffi" format="1">
  <advance width="3052"/>
  <unicode hex="FB03"/>
  <outline>
    <contour>
      <point x="68" y="926" type="line"/>
      <point x="264" y="926" type="line"/>
      <point x="264" y="0" type="line"/>
      <point x="862" y="0" type="line"/>
      <point x="862" y="926" type="line"/>
      <point x="1305" y="926" type="line"/>
      <point x="1305" y="0" type="line"/>
      <point x="1903" y="0" type="line"/>
      <point x="1903" y="926" type="line"/>
      <point x="2367" y="926" type="line"/>
      <point x="2367" y="0" type="line"/>
      <point x="2935" y="0" type="line"/>
      <point x="2935" y="1243" type="line"/>
      <point x="1903" y="1243" type="line"/>
      <point x="1913" y="1384"/>
      <point x="2001" y="1468"/>
      <point x="2116" y="1468" type="curve" smooth="yes"/>
      <point x="2144" y="1468"/>
      <point x="2173" y="1464"/>
      <point x="2204" y="1454" type="curve"/>
      <point x="2204" y="1753" type="line"/>
      <point x="2085" y="1819"/>
      <point x="1925" y="1855"/>
      <point x="1765" y="1855" type="curve" smooth="yes"/>
      <point x="1513" y="1855"/>
      <point x="1305" y="1724"/>
      <point x="1305" y="1495" type="curve" smooth="yes"/>
      <point x="1305" y="1243" type="line"/>
      <point x="862" y="1243" type="line"/>
      <point x="870" y="1346"/>
      <point x="920" y="1427"/>
      <point x="1047" y="1427" type="curve" smooth="yes"/>
      <point x="1075" y="1427"/>
      <point x="1106" y="1423"/>
      <point x="1143" y="1413" type="curve"/>
      <point x="1143" y="1712" type="line"/>
      <point x="1030" y="1778"/>
      <point x="877" y="1815"/>
      <point x="725" y="1815" type="curve" smooth="yes"/>
      <point x="473" y="1815"/>
      <point x="264" y="1683"/>
      <point x="264" y="1454" type="curve" smooth="yes"/>
      <point x="264" y="1243" type="line"/>
      <point x="68" y="1243" type="line"/>
    </contour>
    <contour>
      <point x="2671" y="1819" type="curve" smooth="yes"/>
      <point x="2447" y="1819"/>
      <point x="2337" y="1677"/>
      <point x="2337" y="1550" type="curve" smooth="yes"/>
      <point x="2337" y="1444"/>
      <point x="2410" y="1346"/>
      <point x="2615" y="1346" type="curve" smooth="yes"/>
      <point x="2828" y="1346"/>
      <point x="2947" y="1483"/>
      <point x="2947" y="1608" type="curve" smooth="yes"/>
      <point x="2947" y="1718"/>
      <point x="2859" y="1819"/>
    </contour>
  </outline>
</glyph>
<glyph name="ffl" format="1">
  <advance width="2834"/>
  <unicode hex="FB04"/>
  <outline>
    <contour>
      <point x="68" y="926" type="line"/>
      <point x="182" y="926" type="line"/>
      <point x="182" y="0" type="line"/>
      <point x="780" y="0" type="line"/>
      <point x="780" y="926" type="line"/>
      <point x="1161" y="926" type="line"/>
      <point x="1161" y="0" type="line"/>
      <point x="1759" y="0" type="line"/>
      <point x="1759" y="926" type="line"/>
      <point x="2042" y="926" type="line"/>
      <point x="2042" y="1243" type="line"/>
      <point x="1735" y="1243" type="line"/>
      <point x="1724" y="1278"/>
      <point x="1720" y="1309"/>
      <point x="1720" y="1335" type="curve" smooth="yes"/>
      <point x="1720" y="1473"/>
      <point x="1837" y="1507"/>
      <point x="1958" y="1507" type="curve" smooth="yes"/>
      <point x="2044" y="1507"/>
      <point x="2105" y="1489"/>
      <point x="2148" y="1475" type="curve"/>
      <point x="2148" y="0" type="line"/>
      <point x="2714" y="0" type="line"/>
      <point x="2714" y="1712" type="line"/>
      <point x="2560" y="1774"/>
      <point x="2236" y="1837"/>
      <point x="1991" y="1837" type="curve" smooth="yes"/>
      <point x="1513" y="1837"/>
      <point x="1161" y="1726"/>
      <point x="1161" y="1352" type="curve" smooth="yes"/>
      <point x="1161" y="1243" type="line"/>
      <point x="780" y="1243" type="line"/>
      <point x="788" y="1346"/>
      <point x="838" y="1427"/>
      <point x="965" y="1427" type="curve" smooth="yes"/>
      <point x="993" y="1427"/>
      <point x="1024" y="1423"/>
      <point x="1061" y="1413" type="curve"/>
      <point x="1061" y="1712" type="line"/>
      <point x="948" y="1778"/>
      <point x="795" y="1815"/>
      <point x="643" y="1815" type="curve" smooth="yes"/>
      <point x="391" y="1815"/>
      <point x="182" y="1683"/>
      <point x="182" y="1454" type="curve" smooth="yes"/>
      <point x="182" y="1243" type="line"/>
      <point x="68" y="1243" type="line"/>
    </contour>
  </outline>
</glyph>
<glyph name="foundryicon" format="1">
  <advance width="1251"/>
  <outline>
    <contour>
      <point x="604" y="375" type="qcurve"/>
      <point x="592" y="375" type="line"/>
      <point x="530" y="323"/>
      <point x="397" y="221" type="qcurve"/>
      <point x="390" y="216"/>
      <point x="330" y="157"/>
      <point x="278" y="115"/>
      <point x="266" y="115" type="qcurve"/>
      <point x="231" y="115"/>
      <point x="231" y="141" type="qcurve"/>
      <point x="231" y="149"/>
      <point x="236" y="163"/>
      <point x="244" y="180"/>
      <point x="246" y="186" type="qcurve"/>
      <point x="261" y="252"/>
      <point x="349" y="502"/>
      <point x="354" y="516" type="qcurve"/>
      <point x="356" y="518"/>
      <point x="356" y="520" type="qcurve"/>
      <point x="354" y="522" type="line"/>
      <point x="333" y="551"/>
      <point x="274" y="613"/>
      <point x="234" y="650"/>
      <point x="151" y="722"/>
      <point x="137" y="735" type="qcurve"/>
      <point x="127" y="744"/>
      <point x="61" y="781"/>
      <point x="18" y="818"/>
      <point x="18" y="840" type="qcurve"/>
      <point x="18" y="870"/>
      <point x="57" y="870" type="qcurve"/>
      <point x="59" y="870"/>
      <point x="137" y="859"/>
      <point x="243" y="848"/>
      <point x="279" y="848" type="qcurve"/>
      <point x="469" y="840" type="line"/>
      <point x="563" y="1075" type="line"/>
      <point x="573" y="1090"/>
      <point x="605" y="1179"/>
      <point x="641" y="1235"/>
      <point x="666" y="1235" type="qcurve"/>
      <point x="680" y="1235"/>
      <point x="715" y="1201"/>
      <point x="715" y="1188" type="qcurve"/>
      <point x="715" y="1119"/>
      <point x="768" y="895" type="qcurve"/>
      <point x="778" y="848" type="line"/>
      <point x="863" y="842"/>
      <point x="981" y="842" type="qcurve"/>
      <point x="1017" y="842"/>
      <point x="1142" y="848"/>
      <point x="1171" y="848" type="qcurve"/>
      <point x="1225" y="848"/>
      <point x="1225" y="807" type="qcurve"/>
      <point x="1225" y="801"/>
      <point x="1186" y="772"/>
      <point x="1133" y="739"/>
      <point x="1128" y="735" type="qcurve"/>
      <point x="1107" y="715"/>
      <point x="1012" y="616"/>
      <point x="933" y="548"/>
      <point x="893" y="528" type="qcurve"/>
      <point x="881" y="522" type="line"/>
      <point x="881" y="510" type="line"/>
      <point x="881" y="486"/>
      <point x="895" y="428"/>
      <point x="919" y="356"/>
      <point x="922" y="344" type="qcurve"/>
      <point x="928" y="343"/>
      <point x="975" y="128"/>
      <point x="975" y="106" type="qcurve"/>
      <point x="975" y="91"/>
      <point x="957" y="72"/>
      <point x="942" y="72" type="qcurve"/>
      <point x="925" y="72"/>
      <point x="842" y="167"/>
      <point x="754" y="280"/>
      <point x="644" y="375"/>
    </contour>
  </outline>
</glyph>
